<svg width="1445" height="591" viewBox="0 0 1445 591" fill="none" xmlns="http://www.w3.org/2000/svg">
<path d="M143.273 104.455V119H140.638V104.455H143.273ZM150.061 119.192C149.204 119.192 148.437 118.972 147.76 118.531C147.083 118.091 146.547 117.452 146.154 116.614C145.761 115.776 145.565 114.758 145.565 113.56C145.565 112.348 145.764 111.325 146.162 110.491C146.564 109.653 147.106 109.021 147.788 108.595C148.47 108.164 149.23 107.949 150.068 107.949C150.707 107.949 151.233 108.058 151.645 108.276C152.056 108.489 152.383 108.747 152.625 109.05C152.866 109.348 153.053 109.63 153.186 109.895H153.292V104.455H155.87V119H153.342V117.281H153.186C153.053 117.546 152.861 117.828 152.61 118.126C152.359 118.42 152.028 118.671 151.616 118.879C151.204 119.088 150.686 119.192 150.061 119.192ZM150.778 117.082C151.323 117.082 151.787 116.936 152.17 116.642C152.554 116.344 152.845 115.929 153.044 115.399C153.243 114.869 153.342 114.251 153.342 113.545C153.342 112.84 153.243 112.227 153.044 111.706C152.85 111.185 152.561 110.78 152.177 110.491C151.798 110.203 151.332 110.058 150.778 110.058C150.205 110.058 149.727 110.207 149.343 110.506C148.96 110.804 148.671 111.216 148.477 111.741C148.283 112.267 148.186 112.868 148.186 113.545C148.186 114.227 148.283 114.836 148.477 115.371C148.676 115.901 148.967 116.32 149.35 116.628C149.739 116.931 150.215 117.082 150.778 117.082ZM163.44 119.213C162.346 119.213 161.401 118.986 160.606 118.531C159.815 118.072 159.207 117.423 158.781 116.585C158.354 115.742 158.141 114.75 158.141 113.609C158.141 112.487 158.354 111.502 158.781 110.655C159.211 109.803 159.813 109.14 160.585 108.666C161.356 108.188 162.263 107.949 163.305 107.949C163.977 107.949 164.612 108.058 165.208 108.276C165.809 108.489 166.34 108.82 166.799 109.27C167.263 109.72 167.628 110.293 167.893 110.989C168.158 111.68 168.29 112.504 168.29 113.46V114.249H159.349V112.516H165.826C165.821 112.023 165.715 111.585 165.506 111.202C165.298 110.813 165.007 110.508 164.633 110.286C164.263 110.063 163.833 109.952 163.34 109.952C162.815 109.952 162.353 110.08 161.955 110.335C161.558 110.586 161.247 110.918 161.025 111.33C160.807 111.737 160.696 112.184 160.691 112.672V114.185C160.691 114.819 160.807 115.364 161.039 115.818C161.271 116.268 161.595 116.614 162.012 116.855C162.429 117.092 162.916 117.21 163.475 117.21C163.849 117.21 164.188 117.158 164.491 117.054C164.794 116.945 165.057 116.786 165.279 116.578C165.502 116.37 165.67 116.112 165.783 115.804L168.184 116.074C168.032 116.708 167.744 117.262 167.317 117.736C166.896 118.205 166.356 118.569 165.698 118.83C165.04 119.085 164.287 119.213 163.44 119.213ZM173.605 119.22C172.913 119.22 172.291 119.097 171.737 118.851C171.188 118.6 170.752 118.231 170.43 117.743C170.113 117.255 169.954 116.654 169.954 115.939C169.954 115.323 170.068 114.814 170.295 114.412C170.522 114.009 170.833 113.688 171.225 113.446C171.618 113.205 172.061 113.022 172.554 112.899C173.051 112.771 173.565 112.679 174.095 112.622C174.734 112.556 175.252 112.497 175.65 112.445C176.048 112.388 176.337 112.303 176.517 112.189C176.701 112.071 176.794 111.888 176.794 111.642V111.599C176.794 111.064 176.635 110.65 176.318 110.357C176.001 110.063 175.544 109.916 174.947 109.916C174.317 109.916 173.818 110.054 173.449 110.328C173.084 110.603 172.838 110.927 172.71 111.301L170.309 110.96C170.499 110.297 170.811 109.743 171.247 109.298C171.682 108.848 172.215 108.512 172.845 108.29C173.475 108.062 174.171 107.949 174.933 107.949C175.458 107.949 175.982 108.01 176.502 108.134C177.023 108.257 177.499 108.46 177.93 108.744C178.361 109.024 178.707 109.405 178.967 109.888C179.232 110.371 179.365 110.974 179.365 111.699V119H176.893V117.501H176.808C176.652 117.804 176.431 118.089 176.147 118.354C175.868 118.614 175.515 118.825 175.089 118.986C174.668 119.142 174.173 119.22 173.605 119.22ZM174.272 117.331C174.788 117.331 175.236 117.229 175.615 117.026C175.993 116.817 176.285 116.543 176.488 116.202C176.697 115.861 176.801 115.489 176.801 115.087V113.801C176.72 113.867 176.583 113.929 176.389 113.986C176.199 114.043 175.986 114.092 175.75 114.135C175.513 114.178 175.279 114.215 175.047 114.249C174.815 114.282 174.613 114.31 174.443 114.334C174.059 114.386 173.716 114.471 173.413 114.589C173.11 114.708 172.871 114.874 172.696 115.087C172.52 115.295 172.433 115.565 172.433 115.896C172.433 116.37 172.606 116.727 172.951 116.969C173.297 117.21 173.737 117.331 174.272 117.331ZM187.397 108.091V110.08H181.126V108.091H187.397ZM182.674 105.477H185.245V115.719C185.245 116.064 185.297 116.33 185.402 116.514C185.511 116.694 185.653 116.817 185.828 116.884C186.003 116.95 186.197 116.983 186.41 116.983C186.571 116.983 186.718 116.971 186.85 116.947C186.988 116.924 187.092 116.902 187.163 116.884L187.596 118.893C187.459 118.941 187.262 118.993 187.007 119.05C186.756 119.107 186.448 119.14 186.083 119.149C185.44 119.168 184.859 119.071 184.343 118.858C183.827 118.64 183.418 118.304 183.115 117.849C182.816 117.395 182.67 116.827 182.674 116.145V105.477ZM189.548 119V108.091H192.119V119H189.548ZM190.84 106.543C190.433 106.543 190.083 106.408 189.789 106.138C189.496 105.863 189.349 105.534 189.349 105.151C189.349 104.762 189.496 104.433 189.789 104.163C190.083 103.889 190.433 103.751 190.84 103.751C191.252 103.751 191.603 103.889 191.891 104.163C192.185 104.433 192.332 104.762 192.332 105.151C192.332 105.534 192.185 105.863 191.891 106.138C191.603 106.408 191.252 106.543 190.84 106.543ZM199.521 119.213C198.456 119.213 197.532 118.979 196.751 118.51C195.97 118.041 195.364 117.385 194.933 116.543C194.507 115.7 194.294 114.715 194.294 113.588C194.294 112.461 194.507 111.474 194.933 110.626C195.364 109.779 195.97 109.121 196.751 108.652C197.532 108.183 198.456 107.949 199.521 107.949C200.586 107.949 201.51 108.183 202.291 108.652C203.072 109.121 203.676 109.779 204.102 110.626C204.533 111.474 204.748 112.461 204.748 113.588C204.748 114.715 204.533 115.7 204.102 116.543C203.676 117.385 203.072 118.041 202.291 118.51C201.51 118.979 200.586 119.213 199.521 119.213ZM199.535 117.153C200.113 117.153 200.596 116.995 200.984 116.678C201.372 116.356 201.661 115.925 201.85 115.385C202.045 114.845 202.142 114.244 202.142 113.581C202.142 112.913 202.045 112.31 201.85 111.77C201.661 111.225 201.372 110.792 200.984 110.47C200.596 110.148 200.113 109.987 199.535 109.987C198.943 109.987 198.451 110.148 198.058 110.47C197.67 110.792 197.378 111.225 197.184 111.77C196.995 112.31 196.9 112.913 196.9 113.581C196.9 114.244 196.995 114.845 197.184 115.385C197.378 115.925 197.67 116.356 198.058 116.678C198.451 116.995 198.943 117.153 199.535 117.153ZM209.501 112.608V119H206.93V108.091H209.388V109.945H209.516C209.767 109.334 210.167 108.848 210.716 108.489C211.27 108.129 211.954 107.949 212.768 107.949C213.521 107.949 214.177 108.11 214.736 108.432C215.299 108.754 215.735 109.22 216.043 109.831C216.355 110.442 216.509 111.183 216.504 112.054V119H213.933V112.452C213.933 111.723 213.744 111.152 213.365 110.74C212.991 110.328 212.473 110.122 211.81 110.122C211.36 110.122 210.96 110.222 210.609 110.42C210.264 110.615 209.991 110.896 209.793 111.266C209.598 111.635 209.501 112.082 209.501 112.608Z" fill="#5DC792"/>
<path d="M396.455 119H391.526V104.455H396.555C397.999 104.455 399.24 104.746 400.276 105.328C401.318 105.906 402.118 106.737 402.677 107.821C403.236 108.905 403.515 110.203 403.515 111.713C403.515 113.228 403.233 114.53 402.67 115.619C402.111 116.708 401.304 117.544 400.248 118.126C399.197 118.709 397.933 119 396.455 119ZM394.161 116.72H396.328C397.341 116.72 398.186 116.536 398.863 116.166C399.54 115.792 400.049 115.236 400.39 114.497C400.731 113.754 400.901 112.826 400.901 111.713C400.901 110.6 400.731 109.677 400.39 108.943C400.049 108.205 399.545 107.653 398.877 107.288C398.214 106.919 397.391 106.734 396.406 106.734H394.161V116.72ZM405.905 119V108.091H408.476V119H405.905ZM407.198 106.543C406.79 106.543 406.44 106.408 406.146 106.138C405.853 105.863 405.706 105.534 405.706 105.151C405.706 104.762 405.853 104.433 406.146 104.163C406.44 103.889 406.79 103.751 407.198 103.751C407.61 103.751 407.96 103.889 408.249 104.163C408.542 104.433 408.689 104.762 408.689 105.151C408.689 105.534 408.542 105.863 408.249 106.138C407.96 106.408 407.61 106.543 407.198 106.543ZM419.742 110.974L417.398 111.23C417.332 110.993 417.216 110.771 417.05 110.562C416.889 110.354 416.671 110.186 416.397 110.058C416.122 109.93 415.786 109.866 415.388 109.866C414.853 109.866 414.403 109.982 414.039 110.214C413.679 110.446 413.501 110.747 413.506 111.116C413.501 111.434 413.617 111.692 413.854 111.891C414.096 112.089 414.493 112.253 415.047 112.381L416.908 112.778C417.94 113.001 418.707 113.354 419.209 113.837C419.716 114.32 419.972 114.952 419.976 115.733C419.972 116.42 419.77 117.026 419.373 117.551C418.98 118.072 418.433 118.479 417.732 118.773C417.031 119.066 416.226 119.213 415.317 119.213C413.982 119.213 412.907 118.934 412.093 118.375C411.278 117.812 410.793 117.028 410.637 116.024L413.144 115.783C413.258 116.275 413.499 116.647 413.868 116.898C414.238 117.149 414.718 117.274 415.31 117.274C415.921 117.274 416.411 117.149 416.78 116.898C417.154 116.647 417.341 116.337 417.341 115.967C417.341 115.655 417.221 115.397 416.979 115.193C416.742 114.99 416.373 114.833 415.871 114.724L414.01 114.334C412.964 114.116 412.19 113.749 411.688 113.233C411.186 112.712 410.938 112.054 410.942 111.259C410.938 110.586 411.12 110.004 411.489 109.511C411.863 109.014 412.382 108.631 413.045 108.361C413.712 108.086 414.482 107.949 415.353 107.949C416.631 107.949 417.637 108.221 418.371 108.766C419.11 109.31 419.567 110.046 419.742 110.974ZM426.855 119.213C425.766 119.213 424.831 118.974 424.05 118.496C423.273 118.018 422.674 117.357 422.253 116.514C421.836 115.667 421.628 114.691 421.628 113.588C421.628 112.48 421.841 111.502 422.267 110.655C422.693 109.803 423.294 109.14 424.071 108.666C424.852 108.188 425.775 107.949 426.841 107.949C427.726 107.949 428.51 108.112 429.192 108.439C429.878 108.761 430.425 109.218 430.832 109.81C431.239 110.397 431.471 111.083 431.528 111.869H429.071C428.971 111.344 428.735 110.906 428.361 110.555C427.991 110.2 427.497 110.023 426.876 110.023C426.351 110.023 425.889 110.165 425.491 110.449C425.094 110.728 424.783 111.131 424.561 111.656C424.343 112.182 424.234 112.812 424.234 113.545C424.234 114.289 424.343 114.928 424.561 115.463C424.779 115.993 425.084 116.403 425.477 116.692C425.875 116.976 426.341 117.118 426.876 117.118C427.255 117.118 427.594 117.047 427.892 116.905C428.195 116.758 428.448 116.547 428.652 116.273C428.855 115.998 428.995 115.664 429.071 115.271H431.528C431.467 116.043 431.239 116.727 430.846 117.324C430.453 117.916 429.918 118.38 429.241 118.716C428.564 119.047 427.769 119.213 426.855 119.213ZM438.398 119.213C437.333 119.213 436.409 118.979 435.628 118.51C434.847 118.041 434.241 117.385 433.81 116.543C433.384 115.7 433.171 114.715 433.171 113.588C433.171 112.461 433.384 111.474 433.81 110.626C434.241 109.779 434.847 109.121 435.628 108.652C436.409 108.183 437.333 107.949 438.398 107.949C439.463 107.949 440.387 108.183 441.168 108.652C441.949 109.121 442.553 109.779 442.979 110.626C443.41 111.474 443.625 112.461 443.625 113.588C443.625 114.715 443.41 115.7 442.979 116.543C442.553 117.385 441.949 118.041 441.168 118.51C440.387 118.979 439.463 119.213 438.398 119.213ZM438.412 117.153C438.99 117.153 439.473 116.995 439.861 116.678C440.249 116.356 440.538 115.925 440.727 115.385C440.922 114.845 441.019 114.244 441.019 113.581C441.019 112.913 440.922 112.31 440.727 111.77C440.538 111.225 440.249 110.792 439.861 110.47C439.473 110.148 438.99 109.987 438.412 109.987C437.82 109.987 437.328 110.148 436.935 110.47C436.547 110.792 436.255 111.225 436.061 111.77C435.872 112.31 435.777 112.913 435.777 113.581C435.777 114.244 435.872 114.845 436.061 115.385C436.255 115.925 436.547 116.356 436.935 116.678C437.328 116.995 437.82 117.153 438.412 117.153ZM455.181 108.091L451.296 119H448.455L444.57 108.091H447.311L449.818 116.195H449.932L452.446 108.091H455.181ZM461.418 119.213C460.324 119.213 459.38 118.986 458.584 118.531C457.794 118.072 457.185 117.423 456.759 116.585C456.333 115.742 456.12 114.75 456.12 113.609C456.12 112.487 456.333 111.502 456.759 110.655C457.19 109.803 457.791 109.14 458.563 108.666C459.335 108.188 460.242 107.949 461.283 107.949C461.956 107.949 462.59 108.058 463.187 108.276C463.788 108.489 464.318 108.82 464.778 109.27C465.242 109.72 465.606 110.293 465.871 110.989C466.136 111.68 466.269 112.504 466.269 113.46V114.249H457.327V112.516H463.805C463.8 112.023 463.693 111.585 463.485 111.202C463.277 110.813 462.985 110.508 462.611 110.286C462.242 110.063 461.811 109.952 461.319 109.952C460.793 109.952 460.331 110.08 459.934 110.335C459.536 110.586 459.226 110.918 459.003 111.33C458.786 111.737 458.674 112.184 458.67 112.672V114.185C458.67 114.819 458.786 115.364 459.018 115.818C459.25 116.268 459.574 116.614 459.991 116.855C460.407 117.092 460.895 117.21 461.454 117.21C461.828 117.21 462.166 117.158 462.469 117.054C462.772 116.945 463.035 116.786 463.258 116.578C463.48 116.37 463.648 116.112 463.762 115.804L466.162 116.074C466.011 116.708 465.722 117.262 465.296 117.736C464.875 118.205 464.335 118.569 463.677 118.83C463.019 119.085 462.266 119.213 461.418 119.213ZM468.444 119V108.091H470.937V109.909H471.051C471.249 109.279 471.59 108.794 472.073 108.453C472.561 108.107 473.117 107.935 473.742 107.935C473.884 107.935 474.043 107.942 474.218 107.956C474.398 107.965 474.547 107.982 474.666 108.006V110.371C474.557 110.333 474.384 110.3 474.147 110.271C473.915 110.238 473.69 110.222 473.472 110.222C473.004 110.222 472.582 110.323 472.208 110.527C471.839 110.726 471.548 111.003 471.335 111.358C471.122 111.713 471.015 112.123 471.015 112.587V119H468.444ZM478.304 123.091C477.953 123.091 477.629 123.063 477.331 123.006C477.037 122.954 476.803 122.892 476.628 122.821L477.224 120.818C477.598 120.927 477.932 120.979 478.226 120.974C478.519 120.97 478.777 120.877 479 120.697C479.227 120.522 479.419 120.229 479.575 119.817L479.795 119.227L475.839 108.091H478.567L481.081 116.33H481.194L483.716 108.091H486.45L482.082 120.321C481.879 120.899 481.609 121.393 481.273 121.805C480.936 122.222 480.524 122.539 480.037 122.757C479.554 122.98 478.976 123.091 478.304 123.091Z" fill="#5DC792"/>
<path d="M664.589 119V104.455H670.044C671.161 104.455 672.098 104.663 672.856 105.08C673.618 105.496 674.194 106.069 674.582 106.798C674.975 107.523 675.171 108.347 675.171 109.27C675.171 110.203 674.975 111.031 674.582 111.756C674.189 112.48 673.609 113.051 672.842 113.467C672.075 113.879 671.13 114.085 670.008 114.085H666.393V111.919H669.653C670.306 111.919 670.841 111.805 671.258 111.578C671.675 111.351 671.982 111.038 672.181 110.641C672.385 110.243 672.487 109.786 672.487 109.27C672.487 108.754 672.385 108.299 672.181 107.906C671.982 107.513 671.672 107.208 671.251 106.99C670.834 106.768 670.297 106.656 669.639 106.656H667.224V119H664.589ZM677.346 119V108.091H679.839V109.909H679.953C680.152 109.279 680.493 108.794 680.976 108.453C681.463 108.107 682.02 107.935 682.645 107.935C682.787 107.935 682.945 107.942 683.121 107.956C683.3 107.965 683.45 107.982 683.568 108.006V110.371C683.459 110.333 683.286 110.3 683.05 110.271C682.818 110.238 682.593 110.222 682.375 110.222C681.906 110.222 681.485 110.323 681.111 110.527C680.741 110.726 680.45 111.003 680.237 111.358C680.024 111.713 679.917 112.123 679.917 112.587V119H677.346ZM689.585 119.213C688.52 119.213 687.597 118.979 686.816 118.51C686.034 118.041 685.428 117.385 684.997 116.543C684.571 115.7 684.358 114.715 684.358 113.588C684.358 112.461 684.571 111.474 684.997 110.626C685.428 109.779 686.034 109.121 686.816 108.652C687.597 108.183 688.52 107.949 689.585 107.949C690.651 107.949 691.574 108.183 692.355 108.652C693.137 109.121 693.74 109.779 694.166 110.626C694.597 111.474 694.813 112.461 694.813 113.588C694.813 114.715 694.597 115.7 694.166 116.543C693.74 117.385 693.137 118.041 692.355 118.51C691.574 118.979 690.651 119.213 689.585 119.213ZM689.6 117.153C690.177 117.153 690.66 116.995 691.048 116.678C691.437 116.356 691.726 115.925 691.915 115.385C692.109 114.845 692.206 114.244 692.206 113.581C692.206 112.913 692.109 112.31 691.915 111.77C691.726 111.225 691.437 110.792 691.048 110.47C690.66 110.148 690.177 109.987 689.6 109.987C689.008 109.987 688.515 110.148 688.122 110.47C687.734 110.792 687.443 111.225 687.249 111.77C687.059 112.31 686.965 112.913 686.965 113.581C686.965 114.244 687.059 114.845 687.249 115.385C687.443 115.925 687.734 116.356 688.122 116.678C688.515 116.995 689.008 117.153 689.6 117.153ZM702.442 108.091V110.08H696.171V108.091H702.442ZM697.719 105.477H700.29V115.719C700.29 116.064 700.342 116.33 700.447 116.514C700.555 116.694 700.698 116.817 700.873 116.884C701.048 116.95 701.242 116.983 701.455 116.983C701.616 116.983 701.763 116.971 701.895 116.947C702.033 116.924 702.137 116.902 702.208 116.884L702.641 118.893C702.504 118.941 702.307 118.993 702.052 119.05C701.801 119.107 701.493 119.14 701.128 119.149C700.484 119.168 699.904 119.071 699.388 118.858C698.872 118.64 698.463 118.304 698.16 117.849C697.861 117.395 697.715 116.827 697.719 116.145V105.477ZM709.234 119.213C708.169 119.213 707.245 118.979 706.464 118.51C705.683 118.041 705.077 117.385 704.646 116.543C704.22 115.7 704.007 114.715 704.007 113.588C704.007 112.461 704.22 111.474 704.646 110.626C705.077 109.779 705.683 109.121 706.464 108.652C707.245 108.183 708.169 107.949 709.234 107.949C710.299 107.949 711.222 108.183 712.004 108.652C712.785 109.121 713.389 109.779 713.815 110.626C714.246 111.474 714.461 112.461 714.461 113.588C714.461 114.715 714.246 115.7 713.815 116.543C713.389 117.385 712.785 118.041 712.004 118.51C711.222 118.979 710.299 119.213 709.234 119.213ZM709.248 117.153C709.826 117.153 710.309 116.995 710.697 116.678C711.085 116.356 711.374 115.925 711.563 115.385C711.758 114.845 711.855 114.244 711.855 113.581C711.855 112.913 711.758 112.31 711.563 111.77C711.374 111.225 711.085 110.792 710.697 110.47C710.309 110.148 709.826 109.987 709.248 109.987C708.656 109.987 708.164 110.148 707.771 110.47C707.383 110.792 707.091 111.225 706.897 111.77C706.708 112.31 706.613 112.913 706.613 113.581C706.613 114.244 706.708 114.845 706.897 115.385C707.091 115.925 707.383 116.356 707.771 116.678C708.164 116.995 708.656 117.153 709.248 117.153ZM722.091 108.091V110.08H715.819V108.091H722.091ZM717.368 105.477H719.939V115.719C719.939 116.064 719.991 116.33 720.095 116.514C720.204 116.694 720.346 116.817 720.521 116.884C720.696 116.95 720.89 116.983 721.104 116.983C721.265 116.983 721.411 116.971 721.544 116.947C721.681 116.924 721.785 116.902 721.856 116.884L722.29 118.893C722.152 118.941 721.956 118.993 721.7 119.05C721.449 119.107 721.141 119.14 720.777 119.149C720.133 119.168 719.553 119.071 719.037 118.858C718.521 118.64 718.111 118.304 717.808 117.849C717.51 117.395 717.363 116.827 717.368 116.145V105.477ZM725.839 123.091C725.489 123.091 725.164 123.063 724.866 123.006C724.572 122.954 724.338 122.892 724.163 122.821L724.759 120.818C725.133 120.927 725.467 120.979 725.761 120.974C726.054 120.97 726.312 120.877 726.535 120.697C726.762 120.522 726.954 120.229 727.11 119.817L727.33 119.227L723.374 108.091H726.102L728.616 116.33H728.73L731.251 108.091H733.985L729.617 120.321C729.414 120.899 729.144 121.393 728.808 121.805C728.472 122.222 728.06 122.539 727.572 122.757C727.089 122.98 726.511 123.091 725.839 123.091ZM735.764 123.091V108.091H738.293V109.895H738.442C738.575 109.63 738.762 109.348 739.003 109.05C739.244 108.747 739.571 108.489 739.983 108.276C740.395 108.058 740.921 107.949 741.56 107.949C742.403 107.949 743.163 108.164 743.84 108.595C744.521 109.021 745.061 109.653 745.459 110.491C745.861 111.325 746.063 112.348 746.063 113.56C746.063 114.758 745.866 115.776 745.473 116.614C745.08 117.452 744.545 118.091 743.868 118.531C743.191 118.972 742.424 119.192 741.567 119.192C740.942 119.192 740.423 119.088 740.012 118.879C739.6 118.671 739.268 118.42 739.017 118.126C738.771 117.828 738.579 117.546 738.442 117.281H738.335V123.091H735.764ZM738.286 113.545C738.286 114.251 738.385 114.869 738.584 115.399C738.788 115.929 739.079 116.344 739.458 116.642C739.841 116.936 740.305 117.082 740.85 117.082C741.418 117.082 741.894 116.931 742.277 116.628C742.661 116.32 742.95 115.901 743.144 115.371C743.343 114.836 743.442 114.227 743.442 113.545C743.442 112.868 743.345 112.267 743.151 111.741C742.957 111.216 742.668 110.804 742.284 110.506C741.901 110.207 741.423 110.058 740.85 110.058C740.3 110.058 739.834 110.203 739.45 110.491C739.067 110.78 738.776 111.185 738.577 111.706C738.383 112.227 738.286 112.84 738.286 113.545ZM748.264 119V108.091H750.835V119H748.264ZM749.557 106.543C749.15 106.543 748.799 106.408 748.506 106.138C748.212 105.863 748.066 105.534 748.066 105.151C748.066 104.762 748.212 104.433 748.506 104.163C748.799 103.889 749.15 103.751 749.557 103.751C749.969 103.751 750.319 103.889 750.608 104.163C750.902 104.433 751.048 104.762 751.048 105.151C751.048 105.534 750.902 105.863 750.608 106.138C750.319 106.408 749.969 106.543 749.557 106.543ZM756.05 112.608V119H753.479V108.091H755.937V109.945H756.064C756.315 109.334 756.715 108.848 757.265 108.489C757.819 108.129 758.503 107.949 759.317 107.949C760.07 107.949 760.726 108.11 761.285 108.432C761.848 108.754 762.284 109.22 762.591 109.831C762.904 110.442 763.058 111.183 763.053 112.054V119H760.482V112.452C760.482 111.723 760.293 111.152 759.914 110.74C759.54 110.328 759.021 110.122 758.358 110.122C757.909 110.122 757.509 110.222 757.158 110.42C756.813 110.615 756.54 110.896 756.341 111.266C756.147 111.635 756.05 112.082 756.05 112.608ZM770.411 123.318C769.488 123.318 768.695 123.193 768.032 122.942C767.369 122.696 766.836 122.364 766.434 121.947C766.031 121.531 765.752 121.069 765.596 120.562L767.911 120.001C768.015 120.214 768.167 120.425 768.366 120.634C768.564 120.847 768.832 121.022 769.168 121.159C769.509 121.301 769.938 121.372 770.454 121.372C771.183 121.372 771.787 121.195 772.265 120.839C772.743 120.489 772.982 119.911 772.982 119.107V117.04H772.854C772.722 117.305 772.528 117.577 772.272 117.857C772.021 118.136 771.687 118.37 771.27 118.56C770.858 118.749 770.34 118.844 769.715 118.844C768.877 118.844 768.117 118.647 767.435 118.254C766.758 117.857 766.218 117.265 765.816 116.479C765.418 115.688 765.219 114.698 765.219 113.51C765.219 112.312 765.418 111.301 765.816 110.477C766.218 109.649 766.76 109.021 767.442 108.595C768.124 108.164 768.884 107.949 769.722 107.949C770.361 107.949 770.887 108.058 771.299 108.276C771.715 108.489 772.047 108.747 772.293 109.05C772.539 109.348 772.726 109.63 772.854 109.895H772.996V108.091H775.532V119.178C775.532 120.11 775.309 120.882 774.864 121.493C774.419 122.104 773.811 122.561 773.039 122.864C772.267 123.167 771.391 123.318 770.411 123.318ZM770.432 116.827C770.977 116.827 771.441 116.694 771.824 116.429C772.208 116.164 772.499 115.783 772.698 115.286C772.897 114.788 772.996 114.192 772.996 113.496C772.996 112.809 772.897 112.208 772.698 111.692C772.504 111.176 772.215 110.776 771.831 110.491C771.453 110.203 770.986 110.058 770.432 110.058C769.859 110.058 769.381 110.207 768.998 110.506C768.614 110.804 768.325 111.214 768.131 111.734C767.937 112.25 767.84 112.838 767.84 113.496C767.84 114.163 767.937 114.748 768.131 115.25C768.33 115.747 768.621 116.135 769.005 116.415C769.393 116.689 769.869 116.827 770.432 116.827Z" fill="#33B1B8"/>
<path d="M969.562 119V104.455H975.016C976.134 104.455 977.071 104.663 977.829 105.08C978.591 105.496 979.166 106.069 979.555 106.798C979.948 107.523 980.144 108.347 980.144 109.27C980.144 110.203 979.948 111.031 979.555 111.756C979.162 112.48 978.581 113.051 977.814 113.467C977.047 113.879 976.103 114.085 974.981 114.085H971.366V111.919H974.626C975.279 111.919 975.814 111.805 976.231 111.578C976.647 111.351 976.955 111.038 977.154 110.641C977.358 110.243 977.459 109.786 977.459 109.27C977.459 108.754 977.358 108.299 977.154 107.906C976.955 107.513 976.645 107.208 976.224 106.99C975.807 106.768 975.269 106.656 974.611 106.656H972.197V119H969.562ZM986.921 119.213C985.856 119.213 984.933 118.979 984.151 118.51C983.37 118.041 982.764 117.385 982.333 116.543C981.907 115.7 981.694 114.715 981.694 113.588C981.694 112.461 981.907 111.474 982.333 110.626C982.764 109.779 983.37 109.121 984.151 108.652C984.933 108.183 985.856 107.949 986.921 107.949C987.987 107.949 988.91 108.183 989.691 108.652C990.472 109.121 991.076 109.779 991.502 110.626C991.933 111.474 992.149 112.461 992.149 113.588C992.149 114.715 991.933 115.7 991.502 116.543C991.076 117.385 990.472 118.041 989.691 118.51C988.91 118.979 987.987 119.213 986.921 119.213ZM986.936 117.153C987.513 117.153 987.996 116.995 988.384 116.678C988.773 116.356 989.061 115.925 989.251 115.385C989.445 114.845 989.542 114.244 989.542 113.581C989.542 112.913 989.445 112.31 989.251 111.77C989.061 111.225 988.773 110.792 988.384 110.47C987.996 110.148 987.513 109.987 986.936 109.987C986.344 109.987 985.851 110.148 985.458 110.47C985.07 110.792 984.779 111.225 984.585 111.77C984.395 112.31 984.301 112.913 984.301 113.581C984.301 114.244 984.395 114.845 984.585 115.385C984.779 115.925 985.07 116.356 985.458 116.678C985.851 116.995 986.344 117.153 986.936 117.153ZM1006.89 109.362H1004.24C1004.16 108.927 1004.02 108.541 1003.82 108.205C1003.62 107.864 1003.36 107.575 1003.06 107.338C1002.76 107.101 1002.41 106.924 1002.02 106.805C1001.64 106.682 1001.22 106.621 1000.78 106.621C999.989 106.621 999.288 106.82 998.677 107.217C998.067 107.61 997.588 108.188 997.243 108.95C996.897 109.708 996.724 110.634 996.724 111.727C996.724 112.84 996.897 113.777 997.243 114.54C997.593 115.297 998.071 115.87 998.677 116.259C999.288 116.642 999.987 116.834 1000.77 116.834C1001.21 116.834 1001.62 116.777 1001.99 116.663C1002.38 116.545 1002.72 116.372 1003.02 116.145C1003.33 115.918 1003.59 115.638 1003.8 115.307C1004.01 114.975 1004.16 114.597 1004.24 114.17L1006.89 114.185C1006.8 114.876 1006.58 115.525 1006.25 116.131C1005.92 116.737 1005.49 117.272 1004.96 117.736C1004.43 118.195 1003.81 118.555 1003.1 118.815C1002.39 119.071 1001.6 119.199 1000.74 119.199C999.459 119.199 998.318 118.903 997.314 118.311C996.31 117.719 995.519 116.865 994.942 115.747C994.364 114.63 994.075 113.29 994.075 111.727C994.075 110.16 994.366 108.82 994.949 107.707C995.531 106.59 996.324 105.735 997.328 105.143C998.332 104.552 999.468 104.256 1000.74 104.256C1001.55 104.256 1002.3 104.369 1003 104.597C1003.69 104.824 1004.31 105.158 1004.86 105.598C1005.4 106.034 1005.85 106.569 1006.2 107.203C1006.55 107.833 1006.79 108.553 1006.89 109.362Z" fill="#33B1B8"/>
<path d="M1236.7 104.455H1239.92L1244.24 114.994H1244.41L1248.73 104.455H1251.96V119H1249.43V109.007H1249.29L1245.27 118.957H1243.38L1239.36 108.986H1239.23V119H1236.7V104.455ZM1256.77 104.455L1260.56 115.903H1260.71L1264.48 104.455H1267.38L1262.25 119H1259L1253.88 104.455H1256.77ZM1269.3 119V104.455H1274.75C1275.87 104.455 1276.81 104.663 1277.56 105.08C1278.33 105.496 1278.9 106.069 1279.29 106.798C1279.68 107.523 1279.88 108.347 1279.88 109.27C1279.88 110.203 1279.68 111.031 1279.29 111.756C1278.9 112.48 1278.32 113.051 1277.55 113.467C1276.78 113.879 1275.84 114.085 1274.72 114.085H1271.1V111.919H1274.36C1275.02 111.919 1275.55 111.805 1275.97 111.578C1276.38 111.351 1276.69 111.038 1276.89 110.641C1277.09 110.243 1277.2 109.786 1277.2 109.27C1277.2 108.754 1277.09 108.299 1276.89 107.906C1276.69 107.513 1276.38 107.208 1275.96 106.99C1275.54 106.768 1275.01 106.656 1274.35 106.656H1271.93V119H1269.3Z" fill="#33B1B8"/>
<path d="M1245.56 249V234.455H1251.01C1252.13 234.455 1253.07 234.663 1253.82 235.08C1254.59 235.496 1255.16 236.069 1255.55 236.798C1255.94 237.523 1256.14 238.347 1256.14 239.27C1256.14 240.203 1255.94 241.031 1255.55 241.756C1255.16 242.48 1254.58 243.051 1253.81 243.467C1253.04 243.879 1252.1 244.085 1250.97 244.085H1247.36V241.919H1250.62C1251.27 241.919 1251.81 241.805 1252.22 241.578C1252.64 241.351 1252.95 241.038 1253.15 240.641C1253.35 240.243 1253.45 239.786 1253.45 239.27C1253.45 238.754 1253.35 238.299 1253.15 237.906C1252.95 237.513 1252.64 237.208 1252.22 236.99C1251.8 236.768 1251.26 236.656 1250.61 236.656H1248.19V249H1245.56ZM1260.88 234.455V249H1258.31V234.455H1260.88ZM1266.67 249.22C1265.98 249.22 1265.35 249.097 1264.8 248.851C1264.25 248.6 1263.81 248.231 1263.49 247.743C1263.18 247.255 1263.02 246.654 1263.02 245.939C1263.02 245.323 1263.13 244.814 1263.36 244.412C1263.58 244.009 1263.9 243.688 1264.29 243.446C1264.68 243.205 1265.12 243.022 1265.62 242.899C1266.11 242.771 1266.63 242.679 1267.16 242.622C1267.8 242.556 1268.31 242.497 1268.71 242.445C1269.11 242.388 1269.4 242.303 1269.58 242.189C1269.76 242.071 1269.86 241.888 1269.86 241.642V241.599C1269.86 241.064 1269.7 240.65 1269.38 240.357C1269.06 240.063 1268.61 239.916 1268.01 239.916C1267.38 239.916 1266.88 240.054 1266.51 240.328C1266.15 240.603 1265.9 240.927 1265.77 241.301L1263.37 240.96C1263.56 240.297 1263.87 239.743 1264.31 239.298C1264.74 238.848 1265.28 238.512 1265.91 238.29C1266.54 238.062 1267.23 237.949 1268 237.949C1268.52 237.949 1269.04 238.01 1269.56 238.134C1270.09 238.257 1270.56 238.46 1270.99 238.744C1271.42 239.024 1271.77 239.405 1272.03 239.888C1272.29 240.371 1272.43 240.974 1272.43 241.699V249H1269.96V247.501H1269.87C1269.71 247.804 1269.49 248.089 1269.21 248.354C1268.93 248.614 1268.58 248.825 1268.15 248.986C1267.73 249.142 1267.24 249.22 1266.67 249.22ZM1267.33 247.331C1267.85 247.331 1268.3 247.229 1268.68 247.026C1269.06 246.817 1269.35 246.543 1269.55 246.202C1269.76 245.861 1269.86 245.489 1269.86 245.087V243.801C1269.78 243.867 1269.65 243.929 1269.45 243.986C1269.26 244.043 1269.05 244.092 1268.81 244.135C1268.58 244.178 1268.34 244.215 1268.11 244.249C1267.88 244.282 1267.68 244.31 1267.51 244.334C1267.12 244.386 1266.78 244.471 1266.48 244.589C1266.17 244.708 1265.93 244.874 1265.76 245.087C1265.58 245.295 1265.5 245.565 1265.5 245.896C1265.5 246.37 1265.67 246.727 1266.01 246.969C1266.36 247.21 1266.8 247.331 1267.33 247.331ZM1277.58 242.608V249H1275.01V238.091H1277.47V239.945H1277.6C1277.85 239.334 1278.25 238.848 1278.8 238.489C1279.35 238.129 1280.04 237.949 1280.85 237.949C1281.6 237.949 1282.26 238.11 1282.82 238.432C1283.38 238.754 1283.82 239.22 1284.12 239.831C1284.44 240.442 1284.59 241.183 1284.59 242.054V249H1282.02V242.452C1282.02 241.723 1281.83 241.152 1281.45 240.74C1281.07 240.328 1280.55 240.122 1279.89 240.122C1279.44 240.122 1279.04 240.222 1278.69 240.42C1278.35 240.615 1278.07 240.896 1277.87 241.266C1277.68 241.635 1277.58 242.082 1277.58 242.608Z" fill="#1476F2"/>
<path d="M961.765 249V234.455H967.333C968.384 234.455 969.258 234.62 969.954 234.952C970.654 235.278 971.178 235.726 971.523 236.294C971.874 236.862 972.049 237.506 972.049 238.226C972.049 238.818 971.935 239.324 971.708 239.746C971.481 240.162 971.175 240.501 970.792 240.761C970.408 241.022 969.98 241.209 969.506 241.322V241.464C970.022 241.493 970.517 241.652 970.991 241.94C971.469 242.224 971.859 242.627 972.162 243.148C972.465 243.669 972.617 244.298 972.617 245.037C972.617 245.79 972.435 246.467 972.07 247.068C971.706 247.665 971.156 248.136 970.422 248.482C969.689 248.827 968.765 249 967.653 249H961.765ZM964.4 246.798H967.233C968.19 246.798 968.879 246.616 969.3 246.251C969.726 245.882 969.939 245.409 969.939 244.831C969.939 244.4 969.833 244.012 969.62 243.666C969.407 243.316 969.104 243.041 968.711 242.842C968.318 242.639 967.849 242.537 967.305 242.537H964.4V246.798ZM964.4 240.641H967.006C967.461 240.641 967.87 240.558 968.235 240.392C968.599 240.222 968.886 239.982 969.094 239.675C969.307 239.362 969.414 238.993 969.414 238.567C969.414 238.003 969.215 237.539 968.817 237.175C968.424 236.81 967.84 236.628 967.063 236.628H964.4V240.641ZM981.749 244.412V238.091H984.32V249H981.827V247.061H981.713C981.467 247.672 981.062 248.171 980.499 248.56C979.94 248.948 979.251 249.142 978.432 249.142C977.717 249.142 977.085 248.983 976.536 248.666C975.991 248.344 975.565 247.878 975.257 247.267C974.95 246.652 974.796 245.908 974.796 245.037V238.091H977.367V244.639C977.367 245.33 977.556 245.88 977.935 246.287C978.314 246.694 978.811 246.898 979.426 246.898C979.805 246.898 980.172 246.805 980.527 246.621C980.882 246.436 981.173 246.161 981.401 245.797C981.633 245.428 981.749 244.966 981.749 244.412ZM986.964 249V238.091H989.535V249H986.964ZM988.256 236.543C987.849 236.543 987.499 236.408 987.205 236.138C986.912 235.863 986.765 235.534 986.765 235.151C986.765 234.762 986.912 234.433 987.205 234.163C987.499 233.889 987.849 233.751 988.256 233.751C988.668 233.751 989.019 233.889 989.307 234.163C989.601 234.433 989.748 234.762 989.748 235.151C989.748 235.534 989.601 235.863 989.307 236.138C989.019 236.408 988.668 236.543 988.256 236.543ZM994.749 234.455V249H992.178V234.455H994.749ZM1001.44 249.192C1000.58 249.192 999.818 248.972 999.14 248.531C998.463 248.091 997.928 247.452 997.535 246.614C997.142 245.776 996.946 244.758 996.946 243.56C996.946 242.348 997.145 241.325 997.542 240.491C997.945 239.653 998.487 239.021 999.169 238.595C999.851 238.164 1000.61 237.949 1001.45 237.949C1002.09 237.949 1002.61 238.058 1003.03 238.276C1003.44 238.489 1003.76 238.747 1004.01 239.05C1004.25 239.348 1004.43 239.63 1004.57 239.895H1004.67V234.455H1007.25V249H1004.72V247.281H1004.57C1004.43 247.546 1004.24 247.828 1003.99 248.126C1003.74 248.42 1003.41 248.671 1003 248.879C1002.59 249.088 1002.07 249.192 1001.44 249.192ZM1002.16 247.082C1002.7 247.082 1003.17 246.936 1003.55 246.642C1003.93 246.344 1004.23 245.929 1004.42 245.399C1004.62 244.869 1004.72 244.251 1004.72 243.545C1004.72 242.84 1004.62 242.227 1004.42 241.706C1004.23 241.185 1003.94 240.78 1003.56 240.491C1003.18 240.203 1002.71 240.058 1002.16 240.058C1001.59 240.058 1001.11 240.207 1000.72 240.506C1000.34 240.804 1000.05 241.216 999.858 241.741C999.664 242.267 999.567 242.868 999.567 243.545C999.567 244.227 999.664 244.836 999.858 245.371C1000.06 245.901 1000.35 246.32 1000.73 246.628C1001.12 246.931 1001.6 247.082 1002.16 247.082Z" fill="#1476F2"/>
<path d="M701.27 236.663V234.455H712.875V236.663H708.379V249H705.766V236.663H701.27ZM718.246 249.213C717.153 249.213 716.208 248.986 715.412 248.531C714.622 248.072 714.013 247.423 713.587 246.585C713.161 245.742 712.948 244.75 712.948 243.609C712.948 242.487 713.161 241.502 713.587 240.655C714.018 239.803 714.619 239.14 715.391 238.666C716.163 238.188 717.07 237.949 718.111 237.949C718.784 237.949 719.418 238.058 720.015 238.276C720.616 238.489 721.146 238.82 721.606 239.27C722.07 239.72 722.434 240.293 722.699 240.989C722.965 241.68 723.097 242.504 723.097 243.46V244.249H714.155V242.516H720.633C720.628 242.023 720.521 241.585 720.313 241.202C720.105 240.813 719.814 240.508 719.439 240.286C719.07 240.063 718.639 239.952 718.147 239.952C717.621 239.952 717.16 240.08 716.762 240.335C716.364 240.586 716.054 240.918 715.831 241.33C715.614 241.737 715.502 242.184 715.498 242.672V244.185C715.498 244.819 715.614 245.364 715.846 245.818C716.078 246.268 716.402 246.614 716.819 246.855C717.235 247.092 717.723 247.21 718.282 247.21C718.656 247.21 718.994 247.158 719.297 247.054C719.6 246.945 719.863 246.786 720.086 246.578C720.308 246.37 720.476 246.112 720.59 245.804L722.991 246.074C722.839 246.708 722.55 247.262 722.124 247.736C721.703 248.205 721.163 248.569 720.505 248.83C719.847 249.085 719.094 249.213 718.246 249.213ZM733.894 240.974L731.551 241.23C731.484 240.993 731.368 240.771 731.203 240.562C731.042 240.354 730.824 240.186 730.549 240.058C730.275 239.93 729.938 239.866 729.541 239.866C729.006 239.866 728.556 239.982 728.191 240.214C727.831 240.446 727.654 240.747 727.659 241.116C727.654 241.434 727.77 241.692 728.007 241.891C728.248 242.089 728.646 242.253 729.2 242.381L731.061 242.778C732.093 243.001 732.86 243.354 733.362 243.837C733.868 244.32 734.124 244.952 734.129 245.733C734.124 246.42 733.923 247.026 733.525 247.551C733.132 248.072 732.585 248.479 731.884 248.773C731.184 249.066 730.379 249.213 729.47 249.213C728.134 249.213 727.06 248.934 726.245 248.375C725.431 247.812 724.945 247.028 724.789 246.024L727.296 245.783C727.41 246.275 727.651 246.647 728.021 246.898C728.39 247.149 728.871 247.274 729.463 247.274C730.073 247.274 730.563 247.149 730.933 246.898C731.307 246.647 731.494 246.337 731.494 245.967C731.494 245.655 731.373 245.397 731.132 245.193C730.895 244.99 730.526 244.833 730.024 244.724L728.163 244.334C727.116 244.116 726.342 243.749 725.84 243.233C725.338 242.712 725.09 242.054 725.095 241.259C725.09 240.586 725.272 240.004 725.642 239.511C726.016 239.014 726.534 238.631 727.197 238.361C727.865 238.086 728.634 237.949 729.505 237.949C730.784 237.949 731.79 238.221 732.524 238.766C733.262 239.31 733.719 240.046 733.894 240.974ZM741.696 238.091V240.08H735.425V238.091H741.696ZM736.973 235.477H739.544V245.719C739.544 246.064 739.596 246.33 739.7 246.514C739.809 246.694 739.951 246.817 740.127 246.884C740.302 246.95 740.496 246.983 740.709 246.983C740.87 246.983 741.017 246.971 741.149 246.947C741.287 246.924 741.391 246.902 741.462 246.884L741.895 248.893C741.758 248.941 741.561 248.993 741.306 249.05C741.055 249.107 740.747 249.14 740.382 249.149C739.738 249.168 739.158 249.071 738.642 248.858C738.126 248.64 737.717 248.304 737.414 247.849C737.115 247.395 736.968 246.827 736.973 246.145V235.477Z" fill="#1476F2"/>
<path d="M408.506 249H403.577V234.455H408.606C410.05 234.455 411.29 234.746 412.327 235.328C413.369 235.906 414.169 236.737 414.728 237.821C415.287 238.905 415.566 240.203 415.566 241.713C415.566 243.228 415.284 244.53 414.721 245.619C414.162 246.708 413.355 247.544 412.299 248.126C411.248 248.709 409.983 249 408.506 249ZM406.212 246.72H408.378C409.392 246.72 410.237 246.536 410.914 246.166C411.591 245.792 412.1 245.236 412.441 244.497C412.782 243.754 412.952 242.826 412.952 241.713C412.952 240.6 412.782 239.677 412.441 238.943C412.1 238.205 411.596 237.653 410.928 237.288C410.265 236.919 409.441 236.734 408.456 236.734H406.212V246.72ZM422.785 249.213C421.692 249.213 420.747 248.986 419.952 248.531C419.161 248.072 418.552 247.423 418.126 246.585C417.7 245.742 417.487 244.75 417.487 243.609C417.487 242.487 417.7 241.502 418.126 240.655C418.557 239.803 419.158 239.14 419.93 238.666C420.702 238.188 421.609 237.949 422.65 237.949C423.323 237.949 423.957 238.058 424.554 238.276C425.155 238.489 425.685 238.82 426.145 239.27C426.609 239.72 426.973 240.293 427.238 240.989C427.504 241.68 427.636 242.504 427.636 243.46V244.249H418.694V242.516H425.172C425.167 242.023 425.06 241.585 424.852 241.202C424.644 240.813 424.353 240.508 423.979 240.286C423.609 240.063 423.178 239.952 422.686 239.952C422.16 239.952 421.699 240.08 421.301 240.335C420.903 240.586 420.593 240.918 420.371 241.33C420.153 241.737 420.041 242.184 420.037 242.672V244.185C420.037 244.819 420.153 245.364 420.385 245.818C420.617 246.268 420.941 246.614 421.358 246.855C421.774 247.092 422.262 247.21 422.821 247.21C423.195 247.21 423.533 247.158 423.836 247.054C424.14 246.945 424.402 246.786 424.625 246.578C424.847 246.37 425.015 246.112 425.129 245.804L427.53 246.074C427.378 246.708 427.089 247.262 426.663 247.736C426.242 248.205 425.702 248.569 425.044 248.83C424.386 249.085 423.633 249.213 422.785 249.213ZM432.382 234.455V249H429.811V234.455H432.382ZM435.026 249V238.091H437.597V249H435.026ZM436.319 236.543C435.912 236.543 435.561 236.408 435.268 236.138C434.974 235.863 434.827 235.534 434.827 235.151C434.827 234.762 434.974 234.433 435.268 234.163C435.561 233.889 435.912 233.751 436.319 233.751C436.731 233.751 437.081 233.889 437.37 234.163C437.663 234.433 437.81 234.762 437.81 235.151C437.81 235.534 437.663 235.863 437.37 236.138C437.081 236.408 436.731 236.543 436.319 236.543ZM449.985 238.091L446.1 249H443.259L439.374 238.091H442.116L444.623 246.195H444.737L447.251 238.091H449.985ZM456.223 249.213C455.129 249.213 454.184 248.986 453.389 248.531C452.598 248.072 451.99 247.423 451.564 246.585C451.138 245.742 450.925 244.75 450.925 243.609C450.925 242.487 451.138 241.502 451.564 240.655C451.995 239.803 452.596 239.14 453.368 238.666C454.14 238.188 455.046 237.949 456.088 237.949C456.76 237.949 457.395 238.058 457.991 238.276C458.593 238.489 459.123 238.82 459.582 239.27C460.046 239.72 460.411 240.293 460.676 240.989C460.941 241.68 461.074 242.504 461.074 243.46V244.249H452.132V242.516H458.609C458.604 242.023 458.498 241.585 458.29 241.202C458.081 240.813 457.79 240.508 457.416 240.286C457.047 240.063 456.616 239.952 456.123 239.952C455.598 239.952 455.136 240.08 454.738 240.335C454.341 240.586 454.031 240.918 453.808 241.33C453.59 241.737 453.479 242.184 453.474 242.672V244.185C453.474 244.819 453.59 245.364 453.822 245.818C454.054 246.268 454.379 246.614 454.795 246.855C455.212 247.092 455.7 247.21 456.258 247.21C456.632 247.21 456.971 247.158 457.274 247.054C457.577 246.945 457.84 246.786 458.062 246.578C458.285 246.37 458.453 246.112 458.567 245.804L460.967 246.074C460.816 246.708 460.527 247.262 460.101 247.736C459.679 248.205 459.14 248.569 458.481 248.83C457.823 249.085 457.07 249.213 456.223 249.213ZM463.249 249V238.091H465.742V239.909H465.855C466.054 239.279 466.395 238.794 466.878 238.453C467.366 238.107 467.922 237.935 468.547 237.935C468.689 237.935 468.848 237.942 469.023 237.956C469.203 237.965 469.352 237.982 469.47 238.006V240.371C469.361 240.333 469.189 240.3 468.952 240.271C468.72 240.238 468.495 240.222 468.277 240.222C467.808 240.222 467.387 240.323 467.013 240.527C466.644 240.726 466.352 241.003 466.139 241.358C465.926 241.713 465.82 242.123 465.82 242.587V249H463.249Z" fill="#1476F2"/>
<path d="M149.683 249V234.455H155.137C156.255 234.455 157.192 234.649 157.95 235.037C158.712 235.425 159.287 235.97 159.676 236.67C160.069 237.366 160.265 238.179 160.265 239.107C160.265 240.039 160.066 240.849 159.669 241.536C159.276 242.217 158.695 242.745 157.928 243.119C157.161 243.489 156.219 243.673 155.102 243.673H151.217V241.486H154.747C155.4 241.486 155.935 241.396 156.352 241.216C156.768 241.031 157.076 240.764 157.275 240.413C157.479 240.058 157.58 239.623 157.58 239.107C157.58 238.59 157.479 238.15 157.275 237.786C157.071 237.416 156.761 237.137 156.345 236.947C155.928 236.753 155.391 236.656 154.732 236.656H152.318V249H149.683ZM157.197 242.409L160.798 249H157.857L154.32 242.409H157.197ZM167.25 249.213C166.156 249.213 165.212 248.986 164.416 248.531C163.626 248.072 163.017 247.423 162.591 246.585C162.165 245.742 161.952 244.75 161.952 243.609C161.952 242.487 162.165 241.502 162.591 240.655C163.022 239.803 163.623 239.14 164.395 238.666C165.167 238.188 166.074 237.949 167.115 237.949C167.788 237.949 168.422 238.058 169.019 238.276C169.62 238.489 170.15 238.82 170.61 239.27C171.074 239.72 171.438 240.293 171.703 240.989C171.968 241.68 172.101 242.504 172.101 243.46V244.249H163.159V242.516H169.637C169.632 242.023 169.525 241.585 169.317 241.202C169.109 240.813 168.817 240.508 168.443 240.286C168.074 240.063 167.643 239.952 167.151 239.952C166.625 239.952 166.164 240.08 165.766 240.335C165.368 240.586 165.058 240.918 164.835 241.33C164.618 241.737 164.506 242.184 164.502 242.672V244.185C164.502 244.819 164.618 245.364 164.85 245.818C165.082 246.268 165.406 246.614 165.823 246.855C166.239 247.092 166.727 247.21 167.286 247.21C167.66 247.21 167.998 247.158 168.301 247.054C168.604 246.945 168.867 246.786 169.09 246.578C169.312 246.37 169.48 246.112 169.594 245.804L171.994 246.074C171.843 246.708 171.554 247.262 171.128 247.736C170.707 248.205 170.167 248.569 169.509 248.83C168.851 249.085 168.098 249.213 167.25 249.213ZM179.802 238.091V240.08H173.353V238.091H179.802ZM174.965 249V237.061C174.965 236.327 175.117 235.716 175.42 235.229C175.727 234.741 176.139 234.376 176.655 234.135C177.171 233.893 177.744 233.773 178.374 233.773C178.819 233.773 179.215 233.808 179.56 233.879C179.906 233.95 180.162 234.014 180.327 234.071L179.816 236.06C179.707 236.027 179.57 235.993 179.404 235.96C179.238 235.922 179.054 235.903 178.85 235.903C178.372 235.903 178.033 236.019 177.834 236.251C177.64 236.479 177.543 236.805 177.543 237.232V249H174.965ZM181.815 249V238.091H184.386V249H181.815ZM183.108 236.543C182.701 236.543 182.35 236.408 182.057 236.138C181.763 235.863 181.616 235.534 181.616 235.151C181.616 234.762 181.763 234.433 182.057 234.163C182.35 233.889 182.701 233.751 183.108 233.751C183.52 233.751 183.87 233.889 184.159 234.163C184.452 234.433 184.599 234.762 184.599 235.151C184.599 235.534 184.452 235.863 184.159 236.138C183.87 236.408 183.52 236.543 183.108 236.543ZM189.601 242.608V249H187.03V238.091H189.487V239.945H189.615C189.866 239.334 190.266 238.848 190.816 238.489C191.369 238.129 192.054 237.949 192.868 237.949C193.621 237.949 194.277 238.11 194.835 238.432C195.399 238.754 195.834 239.22 196.142 239.831C196.455 240.442 196.609 241.183 196.604 242.054V249H194.033V242.452C194.033 241.723 193.843 241.152 193.465 240.74C193.091 240.328 192.572 240.122 191.909 240.122C191.459 240.122 191.059 240.222 190.709 240.42C190.363 240.615 190.091 240.896 189.892 241.266C189.698 241.635 189.601 242.082 189.601 242.608ZM204.047 249.213C202.953 249.213 202.009 248.986 201.213 248.531C200.423 248.072 199.814 247.423 199.388 246.585C198.962 245.742 198.749 244.75 198.749 243.609C198.749 242.487 198.962 241.502 199.388 240.655C199.819 239.803 200.42 239.14 201.192 238.666C201.964 238.188 202.87 237.949 203.912 237.949C204.584 237.949 205.219 238.058 205.816 238.276C206.417 238.489 206.947 238.82 207.406 239.27C207.87 239.72 208.235 240.293 208.5 240.989C208.765 241.68 208.898 242.504 208.898 243.46V244.249H199.956V242.516H206.433C206.429 242.023 206.322 241.585 206.114 241.202C205.905 240.813 205.614 240.508 205.24 240.286C204.871 240.063 204.44 239.952 203.948 239.952C203.422 239.952 202.96 240.08 202.563 240.335C202.165 240.586 201.855 240.918 201.632 241.33C201.414 241.737 201.303 242.184 201.298 242.672V244.185C201.298 244.819 201.414 245.364 201.646 245.818C201.878 246.268 202.203 246.614 202.619 246.855C203.036 247.092 203.524 247.21 204.083 247.21C204.457 247.21 204.795 247.158 205.098 247.054C205.401 246.945 205.664 246.786 205.887 246.578C206.109 246.37 206.277 246.112 206.391 245.804L208.791 246.074C208.64 246.708 208.351 247.262 207.925 247.736C207.503 248.205 206.964 248.569 206.306 248.83C205.647 249.085 204.895 249.213 204.047 249.213Z" fill="#1476F2"/>
<path d="M138.687 401.455H141.911L146.229 411.994H146.4L150.718 401.455H153.942V416H151.414V406.007H151.279L147.259 415.957H145.37L141.35 405.986H141.215V416H138.687V401.455ZM159.837 416.22C159.146 416.22 158.523 416.097 157.969 415.851C157.42 415.6 156.984 415.231 156.662 414.743C156.345 414.255 156.187 413.654 156.187 412.939C156.187 412.323 156.3 411.814 156.528 411.412C156.755 411.009 157.065 410.688 157.458 410.446C157.851 410.205 158.294 410.022 158.786 409.899C159.283 409.771 159.797 409.679 160.327 409.622C160.966 409.556 161.485 409.497 161.883 409.445C162.28 409.388 162.569 409.303 162.749 409.189C162.934 409.071 163.026 408.888 163.026 408.642V408.599C163.026 408.064 162.867 407.65 162.55 407.357C162.233 407.063 161.776 406.916 161.18 406.916C160.55 406.916 160.05 407.054 159.681 407.328C159.316 407.603 159.07 407.927 158.942 408.301L156.542 407.96C156.731 407.297 157.044 406.743 157.479 406.298C157.915 405.848 158.448 405.512 159.077 405.29C159.707 405.062 160.403 404.949 161.165 404.949C161.691 404.949 162.214 405.01 162.735 405.134C163.256 405.257 163.732 405.46 164.162 405.744C164.593 406.024 164.939 406.405 165.199 406.888C165.465 407.371 165.597 407.974 165.597 408.699V416H163.126V414.501H163.04C162.884 414.804 162.664 415.089 162.38 415.354C162.1 415.614 161.748 415.825 161.322 415.986C160.9 416.142 160.405 416.22 159.837 416.22ZM160.505 414.331C161.021 414.331 161.468 414.229 161.847 414.026C162.226 413.817 162.517 413.543 162.721 413.202C162.929 412.861 163.033 412.489 163.033 412.087V410.801C162.953 410.867 162.815 410.929 162.621 410.986C162.432 411.043 162.219 411.092 161.982 411.135C161.745 411.178 161.511 411.215 161.279 411.249C161.047 411.282 160.846 411.31 160.675 411.334C160.292 411.386 159.948 411.471 159.645 411.589C159.342 411.708 159.103 411.874 158.928 412.087C158.753 412.295 158.665 412.565 158.665 412.896C158.665 413.37 158.838 413.727 159.184 413.969C159.529 414.21 159.97 414.331 160.505 414.331ZM168.182 416V405.091H170.753V416H168.182ZM169.475 403.543C169.068 403.543 168.717 403.408 168.424 403.138C168.13 402.863 167.983 402.534 167.983 402.151C167.983 401.762 168.13 401.433 168.424 401.163C168.717 400.889 169.068 400.751 169.475 400.751C169.887 400.751 170.237 400.889 170.526 401.163C170.82 401.433 170.966 401.762 170.966 402.151C170.966 402.534 170.82 402.863 170.526 403.138C170.237 403.408 169.887 403.543 169.475 403.543ZM175.968 409.608V416H173.397V405.091H175.855V406.945H175.982C176.233 406.334 176.633 405.848 177.183 405.489C177.737 405.129 178.421 404.949 179.235 404.949C179.988 404.949 180.644 405.11 181.203 405.432C181.766 405.754 182.202 406.22 182.509 406.831C182.822 407.442 182.976 408.183 182.971 409.054V416H180.4V409.452C180.4 408.723 180.211 408.152 179.832 407.74C179.458 407.328 178.939 407.122 178.276 407.122C177.827 407.122 177.427 407.222 177.076 407.42C176.731 407.615 176.458 407.896 176.259 408.266C176.065 408.635 175.968 409.082 175.968 409.608ZM191.032 405.091V407.08H184.761V405.091H191.032ZM186.309 402.477H188.88V412.719C188.88 413.064 188.932 413.33 189.036 413.514C189.145 413.694 189.287 413.817 189.463 413.884C189.638 413.95 189.832 413.983 190.045 413.983C190.206 413.983 190.353 413.971 190.485 413.947C190.623 413.924 190.727 413.902 190.798 413.884L191.231 415.893C191.094 415.941 190.897 415.993 190.642 416.05C190.391 416.107 190.083 416.14 189.718 416.149C189.074 416.168 188.494 416.071 187.978 415.858C187.462 415.64 187.052 415.304 186.749 414.849C186.451 414.395 186.304 413.827 186.309 413.145V402.477ZM196.322 416.22C195.63 416.22 195.008 416.097 194.454 415.851C193.904 415.6 193.469 415.231 193.147 414.743C192.83 414.255 192.671 413.654 192.671 412.939C192.671 412.323 192.785 411.814 193.012 411.412C193.239 411.009 193.549 410.688 193.942 410.446C194.335 410.205 194.778 410.022 195.27 409.899C195.768 409.771 196.281 409.679 196.812 409.622C197.451 409.556 197.969 409.497 198.367 409.445C198.765 409.388 199.054 409.303 199.233 409.189C199.418 409.071 199.51 408.888 199.51 408.642V408.599C199.51 408.064 199.352 407.65 199.035 407.357C198.717 407.063 198.26 406.916 197.664 406.916C197.034 406.916 196.535 407.054 196.165 407.328C195.801 407.603 195.555 407.927 195.427 408.301L193.026 407.96C193.215 407.297 193.528 406.743 193.964 406.298C194.399 405.848 194.932 405.512 195.562 405.29C196.191 405.062 196.887 404.949 197.65 404.949C198.175 404.949 198.698 405.01 199.219 405.134C199.74 405.257 200.216 405.46 200.647 405.744C201.078 406.024 201.423 406.405 201.684 406.888C201.949 407.371 202.081 407.974 202.081 408.699V416H199.61V414.501H199.525C199.368 414.804 199.148 415.089 198.864 415.354C198.585 415.614 198.232 415.825 197.806 415.986C197.385 416.142 196.89 416.22 196.322 416.22ZM196.989 414.331C197.505 414.331 197.953 414.229 198.331 414.026C198.71 413.817 199.001 413.543 199.205 413.202C199.413 412.861 199.518 412.489 199.518 412.087V410.801C199.437 410.867 199.3 410.929 199.106 410.986C198.916 411.043 198.703 411.092 198.466 411.135C198.23 411.178 197.995 411.215 197.763 411.249C197.531 411.282 197.33 411.31 197.16 411.334C196.776 411.386 196.433 411.471 196.13 411.589C195.827 411.708 195.588 411.874 195.412 412.087C195.237 412.295 195.15 412.565 195.15 412.896C195.15 413.37 195.323 413.727 195.668 413.969C196.014 414.21 196.454 414.331 196.989 414.331ZM204.667 416V405.091H207.238V416H204.667ZM205.959 403.543C205.552 403.543 205.202 403.408 204.908 403.138C204.615 402.863 204.468 402.534 204.468 402.151C204.468 401.762 204.615 401.433 204.908 401.163C205.202 400.889 205.552 400.751 205.959 400.751C206.371 400.751 206.722 400.889 207.01 401.163C207.304 401.433 207.451 401.762 207.451 402.151C207.451 402.534 207.304 402.863 207.01 403.138C206.722 403.408 206.371 403.543 205.959 403.543ZM212.453 409.608V416H209.882V405.091H212.339V406.945H212.467C212.718 406.334 213.118 405.848 213.667 405.489C214.221 405.129 214.905 404.949 215.72 404.949C216.472 404.949 217.128 405.11 217.687 405.432C218.25 405.754 218.686 406.22 218.994 406.831C219.306 407.442 219.46 408.183 219.455 409.054V416H216.884V409.452C216.884 408.723 216.695 408.152 216.316 407.74C215.942 407.328 215.424 407.122 214.761 407.122C214.311 407.122 213.911 407.222 213.561 407.42C213.215 407.615 212.943 407.896 212.744 408.266C212.55 408.635 212.453 409.082 212.453 409.608Z" fill="#4B3DDB"/>
<path d="M407.563 408.727C407.563 410.295 407.269 411.637 406.682 412.754C406.1 413.867 405.304 414.719 404.296 415.311C403.292 415.903 402.153 416.199 400.879 416.199C399.606 416.199 398.465 415.903 397.456 415.311C396.452 414.714 395.657 413.86 395.07 412.747C394.487 411.63 394.196 410.29 394.196 408.727C394.196 407.16 394.487 405.82 395.07 404.707C395.657 403.59 396.452 402.735 397.456 402.143C398.465 401.552 399.606 401.256 400.879 401.256C402.153 401.256 403.292 401.552 404.296 402.143C405.304 402.735 406.1 403.59 406.682 404.707C407.269 405.82 407.563 407.16 407.563 408.727ZM404.914 408.727C404.914 407.624 404.741 406.694 404.395 405.936C404.054 405.174 403.581 404.598 402.975 404.21C402.369 403.817 401.67 403.621 400.879 403.621C400.089 403.621 399.39 403.817 398.784 404.21C398.178 404.598 397.702 405.174 397.357 405.936C397.016 406.694 396.845 407.624 396.845 408.727C396.845 409.83 397.016 410.763 397.357 411.526C397.702 412.283 398.178 412.858 398.784 413.251C399.39 413.64 400.089 413.834 400.879 413.834C401.67 413.834 402.369 413.64 402.975 413.251C403.581 412.858 404.054 412.283 404.395 411.526C404.741 410.763 404.914 409.83 404.914 408.727ZM409.94 420.091V405.091H412.469V406.895H412.618C412.75 406.63 412.937 406.348 413.179 406.05C413.42 405.747 413.747 405.489 414.159 405.276C414.571 405.058 415.096 404.949 415.736 404.949C416.578 404.949 417.338 405.164 418.015 405.595C418.697 406.021 419.237 406.653 419.635 407.491C420.037 408.325 420.238 409.348 420.238 410.56C420.238 411.758 420.042 412.776 419.649 413.614C419.256 414.452 418.721 415.091 418.044 415.531C417.367 415.972 416.6 416.192 415.743 416.192C415.118 416.192 414.599 416.088 414.187 415.879C413.775 415.671 413.444 415.42 413.193 415.126C412.947 414.828 412.755 414.546 412.618 414.281H412.511V420.091H409.94ZM412.461 410.545C412.461 411.251 412.561 411.869 412.76 412.399C412.963 412.929 413.255 413.344 413.633 413.642C414.017 413.936 414.481 414.082 415.025 414.082C415.594 414.082 416.069 413.931 416.453 413.628C416.836 413.32 417.125 412.901 417.319 412.371C417.518 411.836 417.618 411.227 417.618 410.545C417.618 409.868 417.521 409.267 417.327 408.741C417.132 408.216 416.844 407.804 416.46 407.506C416.077 407.207 415.598 407.058 415.025 407.058C414.476 407.058 414.01 407.203 413.626 407.491C413.243 407.78 412.952 408.185 412.753 408.706C412.559 409.227 412.461 409.84 412.461 410.545ZM427.888 405.091V407.08H421.616V405.091H427.888ZM423.165 402.477H425.736V412.719C425.736 413.064 425.788 413.33 425.892 413.514C426.001 413.694 426.143 413.817 426.318 413.884C426.493 413.95 426.687 413.983 426.9 413.983C427.061 413.983 427.208 413.971 427.341 413.947C427.478 413.924 427.582 413.902 427.653 413.884L428.086 415.893C427.949 415.941 427.753 415.993 427.497 416.05C427.246 416.107 426.938 416.14 426.574 416.149C425.93 416.168 425.35 416.071 424.834 415.858C424.318 415.64 423.908 415.304 423.605 414.849C423.307 414.395 423.16 413.827 423.165 413.145V402.477ZM430.038 416V405.091H432.609V416H430.038ZM431.33 403.543C430.923 403.543 430.573 403.408 430.279 403.138C429.986 402.863 429.839 402.534 429.839 402.151C429.839 401.762 429.986 401.433 430.279 401.163C430.573 400.889 430.923 400.751 431.33 400.751C431.742 400.751 432.093 400.889 432.382 401.163C432.675 401.433 432.822 401.762 432.822 402.151C432.822 402.534 432.675 402.863 432.382 403.138C432.093 403.408 431.742 403.543 431.33 403.543ZM435.253 416V405.091H437.71V406.945H437.838C438.065 406.32 438.442 405.832 438.967 405.482C439.493 405.126 440.12 404.949 440.849 404.949C441.588 404.949 442.211 405.129 442.717 405.489C443.229 405.844 443.588 406.329 443.797 406.945H443.91C444.152 406.339 444.559 405.856 445.132 405.496C445.71 405.131 446.394 404.949 447.184 404.949C448.188 404.949 449.007 405.266 449.642 405.901C450.276 406.535 450.594 407.461 450.594 408.678V416H448.015V409.075C448.015 408.398 447.836 407.903 447.476 407.591C447.116 407.274 446.675 407.115 446.155 407.115C445.534 407.115 445.049 407.309 444.699 407.697C444.353 408.081 444.18 408.58 444.18 409.196V416H441.659V408.969C441.659 408.405 441.488 407.955 441.148 407.619C440.811 407.283 440.371 407.115 439.827 407.115C439.457 407.115 439.121 407.21 438.818 407.399C438.515 407.584 438.273 407.847 438.094 408.188C437.914 408.524 437.824 408.917 437.824 409.366V416H435.253ZM453.202 416V405.091H455.773V416H453.202ZM454.494 403.543C454.087 403.543 453.737 403.408 453.443 403.138C453.15 402.863 453.003 402.534 453.003 402.151C453.003 401.762 453.15 401.433 453.443 401.163C453.737 400.889 454.087 400.751 454.494 400.751C454.906 400.751 455.257 400.889 455.546 401.163C455.839 401.433 455.986 401.762 455.986 402.151C455.986 402.534 455.839 402.863 455.546 403.138C455.257 403.408 454.906 403.543 454.494 403.543ZM458.275 416V414.366L463.9 407.314V407.222H458.459V405.091H467.046V406.845L461.691 413.777V413.869H467.231V416H458.275ZM474.164 416.213C473.07 416.213 472.126 415.986 471.33 415.531C470.54 415.072 469.931 414.423 469.505 413.585C469.079 412.742 468.866 411.75 468.866 410.609C468.866 409.487 469.079 408.502 469.505 407.655C469.936 406.803 470.537 406.14 471.309 405.666C472.081 405.188 472.988 404.949 474.029 404.949C474.702 404.949 475.336 405.058 475.933 405.276C476.534 405.489 477.064 405.82 477.524 406.27C477.988 406.72 478.352 407.293 478.617 407.989C478.883 408.68 479.015 409.504 479.015 410.46V411.249H470.073V409.516H476.551C476.546 409.023 476.439 408.585 476.231 408.202C476.023 407.813 475.731 407.508 475.357 407.286C474.988 407.063 474.557 406.952 474.065 406.952C473.539 406.952 473.078 407.08 472.68 407.335C472.282 407.586 471.972 407.918 471.749 408.33C471.532 408.737 471.42 409.184 471.416 409.672V411.185C471.416 411.819 471.532 412.364 471.764 412.818C471.996 413.268 472.32 413.614 472.737 413.855C473.153 414.092 473.641 414.21 474.2 414.21C474.574 414.21 474.912 414.158 475.215 414.054C475.518 413.945 475.781 413.786 476.004 413.578C476.226 413.37 476.394 413.112 476.508 412.804L478.909 413.074C478.757 413.708 478.468 414.262 478.042 414.736C477.621 415.205 477.081 415.569 476.423 415.83C475.765 416.085 475.012 416.213 474.164 416.213Z" fill="#4D40DC"/>
<path d="M689.621 405.453C689.554 404.833 689.275 404.35 688.783 404.004C688.295 403.659 687.661 403.486 686.879 403.486C686.33 403.486 685.859 403.569 685.466 403.734C685.073 403.9 684.772 404.125 684.564 404.409C684.356 404.693 684.249 405.018 684.244 405.382C684.244 405.685 684.313 405.948 684.45 406.17C684.592 406.393 684.784 406.582 685.026 406.739C685.267 406.89 685.535 407.018 685.828 407.122C686.122 407.226 686.418 407.314 686.716 407.385L688.08 407.726C688.629 407.854 689.157 408.027 689.663 408.244C690.175 408.462 690.632 408.737 691.034 409.068C691.441 409.4 691.763 409.8 692 410.268C692.237 410.737 692.355 411.286 692.355 411.916C692.355 412.768 692.137 413.519 691.702 414.168C691.266 414.812 690.636 415.316 689.812 415.68C688.993 416.04 688.001 416.22 686.837 416.22C685.705 416.22 684.723 416.045 683.889 415.695C683.061 415.344 682.412 414.833 681.943 414.161C681.479 413.488 681.228 412.669 681.19 411.703H683.783C683.821 412.21 683.977 412.631 684.251 412.967C684.526 413.304 684.884 413.554 685.324 413.72C685.769 413.886 686.266 413.969 686.815 413.969C687.388 413.969 687.89 413.884 688.321 413.713C688.757 413.538 689.098 413.296 689.344 412.989C689.59 412.676 689.715 412.312 689.72 411.895C689.715 411.516 689.604 411.204 689.386 410.957C689.169 410.706 688.863 410.498 688.47 410.332C688.082 410.162 687.627 410.01 687.107 409.878L685.452 409.452C684.254 409.144 683.307 408.678 682.611 408.053C681.92 407.423 681.574 406.587 681.574 405.545C681.574 404.688 681.806 403.938 682.27 403.294C682.739 402.65 683.375 402.151 684.18 401.795C684.985 401.436 685.897 401.256 686.915 401.256C687.947 401.256 688.851 401.436 689.628 401.795C690.409 402.151 691.022 402.645 691.467 403.28C691.912 403.91 692.142 404.634 692.156 405.453H689.621ZM701.544 411.412V405.091H704.115V416H701.622V414.061H701.508C701.262 414.672 700.857 415.171 700.294 415.56C699.735 415.948 699.046 416.142 698.227 416.142C697.512 416.142 696.88 415.983 696.331 415.666C695.786 415.344 695.36 414.878 695.052 414.267C694.744 413.652 694.591 412.908 694.591 412.037V405.091H697.162V411.639C697.162 412.33 697.351 412.88 697.73 413.287C698.109 413.694 698.606 413.898 699.221 413.898C699.6 413.898 699.967 413.805 700.322 413.621C700.677 413.436 700.968 413.161 701.196 412.797C701.428 412.428 701.544 411.966 701.544 411.412ZM706.759 420.091V405.091H709.287V406.895H709.436C709.569 406.63 709.756 406.348 709.997 406.05C710.239 405.747 710.565 405.489 710.977 405.276C711.389 405.058 711.915 404.949 712.554 404.949C713.397 404.949 714.157 405.164 714.834 405.595C715.516 406.021 716.055 406.653 716.453 407.491C716.856 408.325 717.057 409.348 717.057 410.56C717.057 411.758 716.86 412.776 716.467 413.614C716.074 414.452 715.539 415.091 714.862 415.531C714.185 415.972 713.418 416.192 712.561 416.192C711.936 416.192 711.418 416.088 711.006 415.879C710.594 415.671 710.262 415.42 710.011 415.126C709.765 414.828 709.573 414.546 709.436 414.281H709.33V420.091H706.759ZM709.28 410.545C709.28 411.251 709.379 411.869 709.578 412.399C709.782 412.929 710.073 413.344 710.452 413.642C710.835 413.936 711.299 414.082 711.844 414.082C712.412 414.082 712.888 413.931 713.271 413.628C713.655 413.32 713.944 412.901 714.138 412.371C714.337 411.836 714.436 411.227 714.436 410.545C714.436 409.868 714.339 409.267 714.145 408.741C713.951 408.216 713.662 407.804 713.278 407.506C712.895 407.207 712.417 407.058 711.844 407.058C711.295 407.058 710.828 407.203 710.445 407.491C710.061 407.78 709.77 408.185 709.571 408.706C709.377 409.227 709.28 409.84 709.28 410.545ZM719.259 420.091V405.091H721.787V406.895H721.936C722.069 406.63 722.256 406.348 722.497 406.05C722.739 405.747 723.065 405.489 723.477 405.276C723.889 405.058 724.415 404.949 725.054 404.949C725.897 404.949 726.657 405.164 727.334 405.595C728.016 406.021 728.555 406.653 728.953 407.491C729.356 408.325 729.557 409.348 729.557 410.56C729.557 411.758 729.36 412.776 728.967 413.614C728.574 414.452 728.039 415.091 727.362 415.531C726.685 415.972 725.918 416.192 725.061 416.192C724.436 416.192 723.918 416.088 723.506 415.879C723.094 415.671 722.762 415.42 722.511 415.126C722.265 414.828 722.073 414.546 721.936 414.281H721.83V420.091H719.259ZM721.78 410.545C721.78 411.251 721.879 411.869 722.078 412.399C722.282 412.929 722.573 413.344 722.952 413.642C723.335 413.936 723.799 414.082 724.344 414.082C724.912 414.082 725.388 413.931 725.771 413.628C726.155 413.32 726.444 412.901 726.638 412.371C726.837 411.836 726.936 411.227 726.936 410.545C726.936 409.868 726.839 409.267 726.645 408.741C726.451 408.216 726.162 407.804 725.778 407.506C725.395 407.207 724.917 407.058 724.344 407.058C723.795 407.058 723.328 407.203 722.945 407.491C722.561 407.78 722.27 408.185 722.071 408.706C721.877 409.227 721.78 409.84 721.78 410.545ZM736.517 416.213C735.452 416.213 734.528 415.979 733.747 415.51C732.966 415.041 732.36 414.385 731.929 413.543C731.503 412.7 731.29 411.715 731.29 410.588C731.29 409.461 731.503 408.474 731.929 407.626C732.36 406.779 732.966 406.121 733.747 405.652C734.528 405.183 735.452 404.949 736.517 404.949C737.582 404.949 738.506 405.183 739.287 405.652C740.068 406.121 740.672 406.779 741.098 407.626C741.529 408.474 741.744 409.461 741.744 410.588C741.744 411.715 741.529 412.7 741.098 413.543C740.672 414.385 740.068 415.041 739.287 415.51C738.506 415.979 737.582 416.213 736.517 416.213ZM736.531 414.153C737.109 414.153 737.592 413.995 737.98 413.678C738.368 413.356 738.657 412.925 738.847 412.385C739.041 411.845 739.138 411.244 739.138 410.581C739.138 409.913 739.041 409.31 738.847 408.77C738.657 408.225 738.368 407.792 737.98 407.47C737.592 407.148 737.109 406.987 736.531 406.987C735.939 406.987 735.447 407.148 735.054 407.47C734.666 407.792 734.375 408.225 734.18 408.77C733.991 409.31 733.896 409.913 733.896 410.581C733.896 411.244 733.991 411.845 734.18 412.385C734.375 412.925 734.666 413.356 735.054 413.678C735.447 413.995 735.939 414.153 736.531 414.153ZM743.926 416V405.091H746.419V406.909H746.533C746.732 406.279 747.073 405.794 747.556 405.453C748.043 405.107 748.6 404.935 749.225 404.935C749.367 404.935 749.525 404.942 749.701 404.956C749.881 404.965 750.03 404.982 750.148 405.006V407.371C750.039 407.333 749.866 407.3 749.63 407.271C749.398 407.238 749.173 407.222 748.955 407.222C748.486 407.222 748.065 407.323 747.691 407.527C747.321 407.726 747.03 408.003 746.817 408.358C746.604 408.713 746.498 409.123 746.498 409.587V416H743.926ZM757.89 405.091V407.08H751.618V405.091H757.89ZM753.167 402.477H755.738V412.719C755.738 413.064 755.79 413.33 755.894 413.514C756.003 413.694 756.145 413.817 756.32 413.884C756.495 413.95 756.689 413.983 756.902 413.983C757.063 413.983 757.21 413.971 757.343 413.947C757.48 413.924 757.584 413.902 757.655 413.884L758.088 415.893C757.951 415.941 757.755 415.993 757.499 416.05C757.248 416.107 756.94 416.14 756.576 416.149C755.932 416.168 755.352 416.071 754.836 415.858C754.319 415.64 753.91 415.304 753.607 414.849C753.309 414.395 753.162 413.827 753.167 413.145V402.477Z" fill="#4B3DDB"/>
<path d="M940.491 416V401.455H943.126V407.612H949.866V401.455H952.508V416H949.866V409.821H943.126V416H940.491ZM958.4 416.22C957.708 416.22 957.086 416.097 956.532 415.851C955.983 415.6 955.547 415.231 955.225 414.743C954.908 414.255 954.749 413.654 954.749 412.939C954.749 412.323 954.863 411.814 955.09 411.412C955.317 411.009 955.627 410.688 956.02 410.446C956.413 410.205 956.856 410.022 957.349 409.899C957.846 409.771 958.359 409.679 958.89 409.622C959.529 409.556 960.047 409.497 960.445 409.445C960.843 409.388 961.132 409.303 961.312 409.189C961.496 409.071 961.589 408.888 961.589 408.642V408.599C961.589 408.064 961.43 407.65 961.113 407.357C960.796 407.063 960.339 406.916 959.742 406.916C959.112 406.916 958.613 407.054 958.243 407.328C957.879 407.603 957.633 407.927 957.505 408.301L955.104 407.96C955.294 407.297 955.606 406.743 956.042 406.298C956.477 405.848 957.01 405.512 957.64 405.29C958.269 405.062 958.965 404.949 959.728 404.949C960.253 404.949 960.777 405.01 961.297 405.134C961.818 405.257 962.294 405.46 962.725 405.744C963.156 406.024 963.501 406.405 963.762 406.888C964.027 407.371 964.16 407.974 964.16 408.699V416H961.688V414.501H961.603C961.447 414.804 961.226 415.089 960.942 415.354C960.663 415.614 960.31 415.825 959.884 415.986C959.463 416.142 958.968 416.22 958.4 416.22ZM959.067 414.331C959.583 414.331 960.031 414.229 960.41 414.026C960.788 413.817 961.08 413.543 961.283 413.202C961.492 412.861 961.596 412.489 961.596 412.087V410.801C961.515 410.867 961.378 410.929 961.184 410.986C960.994 411.043 960.781 411.092 960.545 411.135C960.308 411.178 960.073 411.215 959.841 411.249C959.609 411.282 959.408 411.31 959.238 411.334C958.854 411.386 958.511 411.471 958.208 411.589C957.905 411.708 957.666 411.874 957.491 412.087C957.315 412.295 957.228 412.565 957.228 412.896C957.228 413.37 957.401 413.727 957.746 413.969C958.092 414.21 958.532 414.331 959.067 414.331ZM969.316 409.608V416H966.745V405.091H969.202V406.945H969.33C969.581 406.334 969.981 405.848 970.53 405.489C971.084 405.129 971.769 404.949 972.583 404.949C973.336 404.949 973.992 405.11 974.55 405.432C975.114 405.754 975.549 406.22 975.857 406.831C976.17 407.442 976.323 408.183 976.319 409.054V416H973.748V409.452C973.748 408.723 973.558 408.152 973.18 407.74C972.805 407.328 972.287 407.122 971.624 407.122C971.174 407.122 970.774 407.222 970.424 407.42C970.078 407.615 969.806 407.896 969.607 408.266C969.413 408.635 969.316 409.082 969.316 409.608ZM982.981 416.192C982.124 416.192 981.357 415.972 980.68 415.531C980.002 415.091 979.467 414.452 979.074 413.614C978.681 412.776 978.485 411.758 978.485 410.56C978.485 409.348 978.684 408.325 979.081 407.491C979.484 406.653 980.026 406.021 980.708 405.595C981.39 405.164 982.15 404.949 982.988 404.949C983.627 404.949 984.153 405.058 984.564 405.276C984.976 405.489 985.303 405.747 985.545 406.05C985.786 406.348 985.973 406.63 986.106 406.895H986.212V401.455H988.79V416H986.262V414.281H986.106C985.973 414.546 985.781 414.828 985.53 415.126C985.279 415.42 984.948 415.671 984.536 415.879C984.124 416.088 983.606 416.192 982.981 416.192ZM983.698 414.082C984.242 414.082 984.706 413.936 985.09 413.642C985.474 413.344 985.765 412.929 985.964 412.399C986.162 411.869 986.262 411.251 986.262 410.545C986.262 409.84 986.162 409.227 985.964 408.706C985.769 408.185 985.481 407.78 985.097 407.491C984.718 407.203 984.252 407.058 983.698 407.058C983.125 407.058 982.647 407.207 982.263 407.506C981.88 407.804 981.591 408.216 981.397 408.741C981.203 409.267 981.106 409.868 981.106 410.545C981.106 411.227 981.203 411.836 981.397 412.371C981.596 412.901 981.887 413.32 982.27 413.628C982.659 413.931 983.135 414.082 983.698 414.082ZM996.289 416.213C995.223 416.213 994.3 415.979 993.519 415.51C992.737 415.041 992.131 414.385 991.7 413.543C991.274 412.7 991.061 411.715 991.061 410.588C991.061 409.461 991.274 408.474 991.7 407.626C992.131 406.779 992.737 406.121 993.519 405.652C994.3 405.183 995.223 404.949 996.289 404.949C997.354 404.949 998.277 405.183 999.058 405.652C999.84 406.121 1000.44 406.779 1000.87 407.626C1001.3 408.474 1001.52 409.461 1001.52 410.588C1001.52 411.715 1001.3 412.7 1000.87 413.543C1000.44 414.385 999.84 415.041 999.058 415.51C998.277 415.979 997.354 416.213 996.289 416.213ZM996.303 414.153C996.88 414.153 997.363 413.995 997.752 413.678C998.14 413.356 998.429 412.925 998.618 412.385C998.812 411.845 998.909 411.244 998.909 410.581C998.909 409.913 998.812 409.31 998.618 408.77C998.429 408.225 998.14 407.792 997.752 407.47C997.363 407.148 996.88 406.987 996.303 406.987C995.711 406.987 995.218 407.148 994.825 407.47C994.437 407.792 994.146 408.225 993.952 408.77C993.762 409.31 993.668 409.913 993.668 410.581C993.668 411.244 993.762 411.845 993.952 412.385C994.146 412.925 994.437 413.356 994.825 413.678C995.218 413.995 995.711 414.153 996.303 414.153ZM1013.07 405.091L1009.19 416H1006.35L1002.46 405.091H1005.2L1007.71 413.195H1007.82L1010.34 405.091H1013.07ZM1019.31 416.213C1018.22 416.213 1017.27 415.986 1016.47 415.531C1015.68 415.072 1015.08 414.423 1014.65 413.585C1014.22 412.742 1014.01 411.75 1014.01 410.609C1014.01 409.487 1014.22 408.502 1014.65 407.655C1015.08 406.803 1015.68 406.14 1016.45 405.666C1017.23 405.188 1018.13 404.949 1019.17 404.949C1019.85 404.949 1020.48 405.058 1021.08 405.276C1021.68 405.489 1022.21 405.82 1022.67 406.27C1023.13 406.72 1023.5 407.293 1023.76 407.989C1024.03 408.68 1024.16 409.504 1024.16 410.46V411.249H1015.22V409.516H1021.7C1021.69 409.023 1021.58 408.585 1021.38 408.202C1021.17 407.813 1020.88 407.508 1020.5 407.286C1020.13 407.063 1019.7 406.952 1019.21 406.952C1018.68 406.952 1018.22 407.08 1017.82 407.335C1017.43 407.586 1017.12 407.918 1016.89 408.33C1016.68 408.737 1016.56 409.184 1016.56 409.672V411.185C1016.56 411.819 1016.68 412.364 1016.91 412.818C1017.14 413.268 1017.46 413.614 1017.88 413.855C1018.3 414.092 1018.79 414.21 1019.34 414.21C1019.72 414.21 1020.06 414.158 1020.36 414.054C1020.66 413.945 1020.93 413.786 1021.15 413.578C1021.37 413.37 1021.54 413.112 1021.65 412.804L1024.05 413.074C1023.9 413.708 1023.61 414.262 1023.19 414.736C1022.77 415.205 1022.23 415.569 1021.57 415.83C1020.91 416.085 1020.16 416.213 1019.31 416.213ZM1026.33 416V405.091H1028.83V406.909H1028.94C1029.14 406.279 1029.48 405.794 1029.96 405.453C1030.45 405.107 1031.01 404.935 1031.63 404.935C1031.78 404.935 1031.93 404.942 1032.11 404.956C1032.29 404.965 1032.44 404.982 1032.56 405.006V407.371C1032.45 407.333 1032.27 407.3 1032.04 407.271C1031.81 407.238 1031.58 407.222 1031.36 407.222C1030.89 407.222 1030.47 407.323 1030.1 407.527C1029.73 407.726 1029.44 408.003 1029.23 408.358C1029.01 408.713 1028.91 409.123 1028.91 409.587V416H1026.33Z" fill="#BB8DD7"/>
<path d="M1236.45 408.453C1236.39 407.833 1236.11 407.35 1235.61 407.004C1235.13 406.659 1234.49 406.486 1233.71 406.486C1233.16 406.486 1232.69 406.569 1232.3 406.734C1231.9 406.9 1231.6 407.125 1231.4 407.409C1231.19 407.693 1231.08 408.018 1231.08 408.382C1231.08 408.685 1231.15 408.948 1231.28 409.17C1231.42 409.393 1231.62 409.582 1231.86 409.739C1232.1 409.89 1232.37 410.018 1232.66 410.122C1232.95 410.226 1233.25 410.314 1233.55 410.385L1234.91 410.726C1235.46 410.854 1235.99 411.027 1236.5 411.244C1237.01 411.462 1237.46 411.737 1237.87 412.068C1238.27 412.4 1238.6 412.8 1238.83 413.268C1239.07 413.737 1239.19 414.286 1239.19 414.916C1239.19 415.768 1238.97 416.519 1238.53 417.168C1238.1 417.812 1237.47 418.316 1236.64 418.68C1235.83 419.04 1234.83 419.22 1233.67 419.22C1232.54 419.22 1231.55 419.045 1230.72 418.695C1229.89 418.344 1229.24 417.833 1228.78 417.161C1228.31 416.488 1228.06 415.669 1228.02 414.703H1230.61C1230.65 415.21 1230.81 415.631 1231.08 415.967C1231.36 416.304 1231.72 416.554 1232.16 416.72C1232.6 416.886 1233.1 416.969 1233.65 416.969C1234.22 416.969 1234.72 416.884 1235.15 416.713C1235.59 416.538 1235.93 416.296 1236.18 415.989C1236.42 415.676 1236.55 415.312 1236.55 414.895C1236.55 414.516 1236.44 414.204 1236.22 413.957C1236 413.706 1235.7 413.498 1235.3 413.332C1234.91 413.162 1234.46 413.01 1233.94 412.878L1232.28 412.452C1231.09 412.144 1230.14 411.678 1229.44 411.053C1228.75 410.423 1228.41 409.587 1228.41 408.545C1228.41 407.688 1228.64 406.938 1229.1 406.294C1229.57 405.65 1230.21 405.151 1231.01 404.795C1231.82 404.436 1232.73 404.256 1233.75 404.256C1234.78 404.256 1235.68 404.436 1236.46 404.795C1237.24 405.151 1237.85 405.645 1238.3 406.28C1238.74 406.91 1238.97 407.634 1238.99 408.453H1236.45ZM1248.38 414.412V408.091H1250.95V419H1248.45V417.061H1248.34C1248.09 417.672 1247.69 418.171 1247.13 418.56C1246.57 418.948 1245.88 419.142 1245.06 419.142C1244.34 419.142 1243.71 418.983 1243.16 418.666C1242.62 418.344 1242.19 417.878 1241.88 417.267C1241.58 416.652 1241.42 415.908 1241.42 415.037V408.091H1243.99V414.639C1243.99 415.33 1244.18 415.88 1244.56 416.287C1244.94 416.694 1245.44 416.898 1246.05 416.898C1246.43 416.898 1246.8 416.805 1247.15 416.621C1247.51 416.436 1247.8 416.161 1248.03 415.797C1248.26 415.428 1248.38 414.966 1248.38 414.412ZM1256.16 412.608V419H1253.59V408.091H1256.05V409.945H1256.18C1256.43 409.334 1256.83 408.848 1257.38 408.489C1257.93 408.129 1258.61 407.949 1259.43 407.949C1260.18 407.949 1260.84 408.11 1261.4 408.432C1261.96 408.754 1262.4 409.22 1262.7 409.831C1263.02 410.442 1263.17 411.183 1263.16 412.054V419H1260.59V412.452C1260.59 411.723 1260.4 411.152 1260.03 410.74C1259.65 410.328 1259.13 410.122 1258.47 410.122C1258.02 410.122 1257.62 410.222 1257.27 410.42C1256.92 410.615 1256.65 410.896 1256.45 411.266C1256.26 411.635 1256.16 412.082 1256.16 412.608ZM1274.4 410.974L1272.06 411.23C1271.99 410.993 1271.87 410.771 1271.71 410.562C1271.55 410.354 1271.33 410.186 1271.06 410.058C1270.78 409.93 1270.44 409.866 1270.05 409.866C1269.51 409.866 1269.06 409.982 1268.7 410.214C1268.34 410.446 1268.16 410.747 1268.16 411.116C1268.16 411.434 1268.28 411.692 1268.51 411.891C1268.75 412.089 1269.15 412.253 1269.71 412.381L1271.57 412.778C1272.6 413.001 1273.37 413.354 1273.87 413.837C1274.37 414.32 1274.63 414.952 1274.63 415.733C1274.63 416.42 1274.43 417.026 1274.03 417.551C1273.64 418.072 1273.09 418.479 1272.39 418.773C1271.69 419.066 1270.88 419.213 1269.98 419.213C1268.64 419.213 1267.57 418.934 1266.75 418.375C1265.94 417.812 1265.45 417.028 1265.3 416.024L1267.8 415.783C1267.92 416.275 1268.16 416.647 1268.53 416.898C1268.9 417.149 1269.38 417.274 1269.97 417.274C1270.58 417.274 1271.07 417.149 1271.44 416.898C1271.81 416.647 1272 416.337 1272 415.967C1272 415.655 1271.88 415.397 1271.64 415.193C1271.4 414.99 1271.03 414.833 1270.53 414.724L1268.67 414.334C1267.62 414.116 1266.85 413.749 1266.35 413.233C1265.84 412.712 1265.6 412.054 1265.6 411.259C1265.6 410.586 1265.78 410.004 1266.15 409.511C1266.52 409.014 1267.04 408.631 1267.7 408.361C1268.37 408.086 1269.14 407.949 1270.01 407.949C1271.29 407.949 1272.3 408.221 1273.03 408.766C1273.77 409.31 1274.23 410.046 1274.4 410.974ZM1281.58 419.213C1280.49 419.213 1279.55 418.986 1278.75 418.531C1277.96 418.072 1277.35 417.423 1276.93 416.585C1276.5 415.742 1276.29 414.75 1276.29 413.609C1276.29 412.487 1276.5 411.502 1276.93 410.655C1277.36 409.803 1277.96 409.14 1278.73 408.666C1279.5 408.188 1280.41 407.949 1281.45 407.949C1282.12 407.949 1282.76 408.058 1283.35 408.276C1283.95 408.489 1284.48 408.82 1284.94 409.27C1285.41 409.72 1285.77 410.293 1286.04 410.989C1286.3 411.68 1286.44 412.504 1286.44 413.46V414.249H1277.49V412.516H1283.97C1283.97 412.023 1283.86 411.585 1283.65 411.202C1283.44 410.813 1283.15 410.508 1282.78 410.286C1282.41 410.063 1281.98 409.952 1281.48 409.952C1280.96 409.952 1280.5 410.08 1280.1 410.335C1279.7 410.586 1279.39 410.918 1279.17 411.33C1278.95 411.737 1278.84 412.184 1278.84 412.672V414.185C1278.84 414.819 1278.95 415.364 1279.18 415.818C1279.42 416.268 1279.74 416.614 1280.16 416.855C1280.57 417.092 1281.06 417.21 1281.62 417.21C1281.99 417.21 1282.33 417.158 1282.64 417.054C1282.94 416.945 1283.2 416.786 1283.42 416.578C1283.65 416.37 1283.81 416.112 1283.93 415.804L1286.33 416.074C1286.18 416.708 1285.89 417.262 1285.46 417.736C1285.04 418.205 1284.5 418.569 1283.84 418.83C1283.18 419.085 1282.43 419.213 1281.58 419.213ZM1294.06 408.091V410.08H1287.79V408.091H1294.06ZM1289.33 405.477H1291.91V415.719C1291.91 416.064 1291.96 416.33 1292.06 416.514C1292.17 416.694 1292.31 416.817 1292.49 416.884C1292.66 416.95 1292.86 416.983 1293.07 416.983C1293.23 416.983 1293.38 416.971 1293.51 416.947C1293.65 416.924 1293.75 416.902 1293.82 416.884L1294.26 418.893C1294.12 418.941 1293.92 418.993 1293.67 419.05C1293.42 419.107 1293.11 419.14 1292.74 419.149C1292.1 419.168 1291.52 419.071 1291 418.858C1290.49 418.64 1290.08 418.304 1289.77 417.849C1289.48 417.395 1289.33 416.827 1289.33 416.145V405.477Z" fill="#9E5DC7"/>
<path d="M94.5 318C94.5 297.842 110.842 281.5 131 281.5H179H395H723H1038.5H1196.25H1275.12H1315C1335.16 281.5 1351.5 297.842 1351.5 318V453C1351.5 473.158 1335.16 489.5 1315 489.5H207.536C196.338 489.5 186.787 481.393 184.967 470.344C182.749 456.879 171.11 447 157.464 447H132.75C118.611 447 105.744 438.835 99.7237 426.042L97.9741 422.324C95.6863 417.462 94.5 412.155 94.5 406.782V318Z" stroke="#998E8E" stroke-width="5"/>
<path d="M181 281V281C181 303.644 199.356 322 222 322H1221C1243.64 322 1262 303.644 1262 281V281" stroke="#998E8E" stroke-width="5"/>
<path d="M177 449.5H1262" stroke="#998E8E" stroke-width="5"/>
<path d="M181 150H1305C1332.06 150 1354 171.938 1354 199V233C1354 260.062 1332.06 282 1305 282H1264.5" stroke="#998E8E" stroke-width="5"/>
<circle cx="178.5" cy="149.5" r="22.5" fill="white"/>
<g filter="url(#filter0_d_151_266)">
<path d="M196 149.5C196 159.165 188.165 167 178.5 167C168.835 167 161 159.165 161 149.5C161 139.835 168.835 132 178.5 132C188.165 132 196 139.835 196 149.5ZM169.018 149.5C169.018 154.737 173.263 158.982 178.5 158.982C183.737 158.982 187.982 154.737 187.982 149.5C187.982 144.263 183.737 140.018 178.5 140.018C173.263 140.018 169.018 144.263 169.018 149.5Z" fill="#5DC792"/>
</g>
<circle cx="178.5" cy="279.5" r="22.5" fill="white"/>
<g filter="url(#filter1_d_151_266)">
<path d="M196 279.5C196 289.165 188.165 297 178.5 297C168.835 297 161 289.165 161 279.5C161 269.835 168.835 262 178.5 262C188.165 262 196 269.835 196 279.5ZM169.018 279.5C169.018 284.737 173.263 288.982 178.5 288.982C183.737 288.982 187.982 284.737 187.982 279.5C187.982 274.263 183.737 270.018 178.5 270.018C173.263 270.018 169.018 274.263 169.018 279.5Z" fill="#1476F2"/>
</g>
<circle cx="178.5" cy="446.5" r="22.5" fill="white"/>
<g filter="url(#filter2_d_151_266)">
<path d="M196 446.5C196 456.165 188.165 464 178.5 464C168.835 464 161 456.165 161 446.5C161 436.835 168.835 429 178.5 429C188.165 429 196 436.835 196 446.5ZM169.018 446.5C169.018 451.737 173.263 455.982 178.5 455.982C183.737 455.982 187.982 451.737 187.982 446.5C187.982 441.263 183.737 437.018 178.5 437.018C173.263 437.018 169.018 441.263 169.018 446.5Z" fill="#4B3DDB"/>
</g>
<circle cx="438.5" cy="149.5" r="22.5" fill="white"/>
<g filter="url(#filter3_d_151_266)">
<path d="M456 149.5C456 159.165 448.165 167 438.5 167C428.835 167 421 159.165 421 149.5C421 139.835 428.835 132 438.5 132C448.165 132 456 139.835 456 149.5ZM429.018 149.5C429.018 154.737 433.263 158.982 438.5 158.982C443.737 158.982 447.982 154.737 447.982 149.5C447.982 144.263 443.737 140.018 438.5 140.018C433.263 140.018 429.018 144.263 429.018 149.5Z" fill="#5DC792"/>
</g>
<circle cx="438.5" cy="279.5" r="22.5" fill="white"/>
<g filter="url(#filter4_d_151_266)">
<path d="M456 279.5C456 289.165 448.165 297 438.5 297C428.835 297 421 289.165 421 279.5C421 269.835 428.835 262 438.5 262C448.165 262 456 269.835 456 279.5ZM429.018 279.5C429.018 284.737 433.263 288.982 438.5 288.982C443.737 288.982 447.982 284.737 447.982 279.5C447.982 274.263 443.737 270.018 438.5 270.018C433.263 270.018 429.018 274.263 429.018 279.5Z" fill="#1476F2"/>
</g>
<circle cx="438.5" cy="446.5" r="22.5" fill="white"/>
<g filter="url(#filter5_d_151_266)">
<path d="M456 446.5C456 456.165 448.165 464 438.5 464C428.835 464 421 456.165 421 446.5C421 436.835 428.835 429 438.5 429C448.165 429 456 436.835 456 446.5ZM429.018 446.5C429.018 451.737 433.263 455.982 438.5 455.982C443.737 455.982 447.982 451.737 447.982 446.5C447.982 441.263 443.737 437.018 438.5 437.018C433.263 437.018 429.018 441.263 429.018 446.5Z" fill="#4D40DC"/>
</g>
<circle cx="721.5" cy="149.5" r="22.5" fill="white"/>
<g filter="url(#filter6_d_151_266)">
<path d="M739 149.5C739 159.165 731.165 167 721.5 167C711.835 167 704 159.165 704 149.5C704 139.835 711.835 132 721.5 132C731.165 132 739 139.835 739 149.5ZM712.018 149.5C712.018 154.737 716.263 158.982 721.5 158.982C726.737 158.982 730.982 154.737 730.982 149.5C730.982 144.263 726.737 140.018 721.5 140.018C716.263 140.018 712.018 144.263 712.018 149.5Z" fill="#33B1B8"/>
</g>
<circle cx="721.5" cy="279.5" r="22.5" fill="white"/>
<g filter="url(#filter7_d_151_266)">
<path d="M739 279.5C739 289.165 731.165 297 721.5 297C711.835 297 704 289.165 704 279.5C704 269.835 711.835 262 721.5 262C731.165 262 739 269.835 739 279.5ZM712.018 279.5C712.018 284.737 716.263 288.982 721.5 288.982C726.737 288.982 730.982 284.737 730.982 279.5C730.982 274.263 726.737 270.018 721.5 270.018C716.263 270.018 712.018 274.263 712.018 279.5Z" fill="#1476F2"/>
</g>
<circle cx="721.5" cy="446.5" r="22.5" fill="white"/>
<g filter="url(#filter8_d_151_266)">
<path d="M739 446.5C739 456.165 731.165 464 721.5 464C711.835 464 704 456.165 704 446.5C704 436.835 711.835 429 721.5 429C731.165 429 739 436.835 739 446.5ZM712.018 446.5C712.018 451.737 716.263 455.982 721.5 455.982C726.737 455.982 730.982 451.737 730.982 446.5C730.982 441.263 726.737 437.018 721.5 437.018C716.263 437.018 712.018 441.263 712.018 446.5Z" fill="#4B3DDB"/>
</g>
<circle cx="985.5" cy="149.5" r="22.5" fill="white"/>
<g filter="url(#filter9_d_151_266)">
<path d="M1003 149.5C1003 159.165 995.165 167 985.5 167C975.835 167 968 159.165 968 149.5C968 139.835 975.835 132 985.5 132C995.165 132 1003 139.835 1003 149.5ZM976.018 149.5C976.018 154.737 980.263 158.982 985.5 158.982C990.737 158.982 994.982 154.737 994.982 149.5C994.982 144.263 990.737 140.018 985.5 140.018C980.263 140.018 976.018 144.263 976.018 149.5Z" fill="#33B1B8"/>
</g>
<circle cx="985.5" cy="279.5" r="22.5" fill="white"/>
<g filter="url(#filter10_d_151_266)">
<path d="M1003 279.5C1003 289.165 995.165 297 985.5 297C975.835 297 968 289.165 968 279.5C968 269.835 975.835 262 985.5 262C995.165 262 1003 269.835 1003 279.5ZM976.018 279.5C976.018 284.737 980.263 288.982 985.5 288.982C990.737 288.982 994.982 284.737 994.982 279.5C994.982 274.263 990.737 270.018 985.5 270.018C980.263 270.018 976.018 274.263 976.018 279.5Z" fill="#1476F2"/>
</g>
<circle cx="985.5" cy="446.5" r="22.5" fill="white"/>
<g filter="url(#filter11_d_151_266)">
<path d="M1003 446.5C1003 456.165 995.165 464 985.5 464C975.835 464 968 456.165 968 446.5C968 436.835 975.835 429 985.5 429C995.165 429 1003 436.835 1003 446.5ZM976.018 446.5C976.018 451.737 980.263 455.982 985.5 455.982C990.737 455.982 994.982 451.737 994.982 446.5C994.982 441.263 990.737 437.018 985.5 437.018C980.263 437.018 976.018 441.263 976.018 446.5Z" fill="#BB8DD7"/>
</g>
<circle cx="1264.5" cy="149.5" r="22.5" fill="white"/>
<g filter="url(#filter12_d_151_266)">
<path d="M1282 149.5C1282 159.165 1274.16 167 1264.5 167C1254.84 167 1247 159.165 1247 149.5C1247 139.835 1254.84 132 1264.5 132C1274.16 132 1282 139.835 1282 149.5ZM1255.02 149.5C1255.02 154.737 1259.26 158.982 1264.5 158.982C1269.74 158.982 1273.98 154.737 1273.98 149.5C1273.98 144.263 1269.74 140.018 1264.5 140.018C1259.26 140.018 1255.02 144.263 1255.02 149.5Z" fill="#33B1B8"/>
</g>
<circle cx="1264.5" cy="279.5" r="22.5" fill="white"/>
<g filter="url(#filter13_d_151_266)">
<path d="M1282 279.5C1282 289.165 1274.16 297 1264.5 297C1254.84 297 1247 289.165 1247 279.5C1247 269.835 1254.84 262 1264.5 262C1274.16 262 1282 269.835 1282 279.5ZM1255.02 279.5C1255.02 284.737 1259.26 288.982 1264.5 288.982C1269.74 288.982 1273.98 284.737 1273.98 279.5C1273.98 274.263 1269.74 270.018 1264.5 270.018C1259.26 270.018 1255.02 274.263 1255.02 279.5Z" fill="#1476F2"/>
</g>
<circle cx="1264.5" cy="446.5" r="22.5" fill="white"/>
<g filter="url(#filter14_d_151_266)">
<path d="M1282 446.5C1282 456.165 1274.16 464 1264.5 464C1254.84 464 1247 456.165 1247 446.5C1247 436.835 1254.84 429 1264.5 429C1274.16 429 1282 436.835 1282 446.5ZM1255.02 446.5C1255.02 451.737 1259.26 455.982 1264.5 455.982C1269.74 455.982 1273.98 451.737 1273.98 446.5C1273.98 441.263 1269.74 437.018 1264.5 437.018C1259.26 437.018 1255.02 441.263 1255.02 446.5Z" fill="#9E5DC7"/>
</g>
<defs>
<filter id="filter0_d_151_266" x="157" y="128" width="43" height="43" filterUnits="userSpaceOnUse" color-interpolation-filters="sRGB">
<feFlood flood-opacity="0" result="BackgroundImageFix"/>
<feColorMatrix in="SourceAlpha" type="matrix" values="0 0 0 0 0 0 0 0 0 0 0 0 0 0 0 0 0 0 127 0" result="hardAlpha"/>
<feOffset/>
<feGaussianBlur stdDeviation="2"/>
<feComposite in2="hardAlpha" operator="out"/>
<feColorMatrix type="matrix" values="0 0 0 0 0 0 0 0 0 0 0 0 0 0 0 0 0 0 0.25 0"/>
<feBlend mode="normal" in2="BackgroundImageFix" result="effect1_dropShadow_151_266"/>
<feBlend mode="normal" in="SourceGraphic" in2="effect1_dropShadow_151_266" result="shape"/>
</filter>
<filter id="filter1_d_151_266" x="157" y="258" width="43" height="43" filterUnits="userSpaceOnUse" color-interpolation-filters="sRGB">
<feFlood flood-opacity="0" result="BackgroundImageFix"/>
<feColorMatrix in="SourceAlpha" type="matrix" values="0 0 0 0 0 0 0 0 0 0 0 0 0 0 0 0 0 0 127 0" result="hardAlpha"/>
<feOffset/>
<feGaussianBlur stdDeviation="2"/>
<feComposite in2="hardAlpha" operator="out"/>
<feColorMatrix type="matrix" values="0 0 0 0 0 0 0 0 0 0 0 0 0 0 0 0 0 0 0.25 0"/>
<feBlend mode="normal" in2="BackgroundImageFix" result="effect1_dropShadow_151_266"/>
<feBlend mode="normal" in="SourceGraphic" in2="effect1_dropShadow_151_266" result="shape"/>
</filter>
<filter id="filter2_d_151_266" x="157" y="425" width="43" height="43" filterUnits="userSpaceOnUse" color-interpolation-filters="sRGB">
<feFlood flood-opacity="0" result="BackgroundImageFix"/>
<feColorMatrix in="SourceAlpha" type="matrix" values="0 0 0 0 0 0 0 0 0 0 0 0 0 0 0 0 0 0 127 0" result="hardAlpha"/>
<feOffset/>
<feGaussianBlur stdDeviation="2"/>
<feComposite in2="hardAlpha" operator="out"/>
<feColorMatrix type="matrix" values="0 0 0 0 0 0 0 0 0 0 0 0 0 0 0 0 0 0 0.25 0"/>
<feBlend mode="normal" in2="BackgroundImageFix" result="effect1_dropShadow_151_266"/>
<feBlend mode="normal" in="SourceGraphic" in2="effect1_dropShadow_151_266" result="shape"/>
</filter>
<filter id="filter3_d_151_266" x="417" y="128" width="43" height="43" filterUnits="userSpaceOnUse" color-interpolation-filters="sRGB">
<feFlood flood-opacity="0" result="BackgroundImageFix"/>
<feColorMatrix in="SourceAlpha" type="matrix" values="0 0 0 0 0 0 0 0 0 0 0 0 0 0 0 0 0 0 127 0" result="hardAlpha"/>
<feOffset/>
<feGaussianBlur stdDeviation="2"/>
<feComposite in2="hardAlpha" operator="out"/>
<feColorMatrix type="matrix" values="0 0 0 0 0 0 0 0 0 0 0 0 0 0 0 0 0 0 0.25 0"/>
<feBlend mode="normal" in2="BackgroundImageFix" result="effect1_dropShadow_151_266"/>
<feBlend mode="normal" in="SourceGraphic" in2="effect1_dropShadow_151_266" result="shape"/>
</filter>
<filter id="filter4_d_151_266" x="417" y="258" width="43" height="43" filterUnits="userSpaceOnUse" color-interpolation-filters="sRGB">
<feFlood flood-opacity="0" result="BackgroundImageFix"/>
<feColorMatrix in="SourceAlpha" type="matrix" values="0 0 0 0 0 0 0 0 0 0 0 0 0 0 0 0 0 0 127 0" result="hardAlpha"/>
<feOffset/>
<feGaussianBlur stdDeviation="2"/>
<feComposite in2="hardAlpha" operator="out"/>
<feColorMatrix type="matrix" values="0 0 0 0 0 0 0 0 0 0 0 0 0 0 0 0 0 0 0.25 0"/>
<feBlend mode="normal" in2="BackgroundImageFix" result="effect1_dropShadow_151_266"/>
<feBlend mode="normal" in="SourceGraphic" in2="effect1_dropShadow_151_266" result="shape"/>
</filter>
<filter id="filter5_d_151_266" x="417" y="425" width="43" height="43" filterUnits="userSpaceOnUse" color-interpolation-filters="sRGB">
<feFlood flood-opacity="0" result="BackgroundImageFix"/>
<feColorMatrix in="SourceAlpha" type="matrix" values="0 0 0 0 0 0 0 0 0 0 0 0 0 0 0 0 0 0 127 0" result="hardAlpha"/>
<feOffset/>
<feGaussianBlur stdDeviation="2"/>
<feComposite in2="hardAlpha" operator="out"/>
<feColorMatrix type="matrix" values="0 0 0 0 0 0 0 0 0 0 0 0 0 0 0 0 0 0 0.25 0"/>
<feBlend mode="normal" in2="BackgroundImageFix" result="effect1_dropShadow_151_266"/>
<feBlend mode="normal" in="SourceGraphic" in2="effect1_dropShadow_151_266" result="shape"/>
</filter>
<filter id="filter6_d_151_266" x="700" y="128" width="43" height="43" filterUnits="userSpaceOnUse" color-interpolation-filters="sRGB">
<feFlood flood-opacity="0" result="BackgroundImageFix"/>
<feColorMatrix in="SourceAlpha" type="matrix" values="0 0 0 0 0 0 0 0 0 0 0 0 0 0 0 0 0 0 127 0" result="hardAlpha"/>
<feOffset/>
<feGaussianBlur stdDeviation="2"/>
<feComposite in2="hardAlpha" operator="out"/>
<feColorMatrix type="matrix" values="0 0 0 0 0 0 0 0 0 0 0 0 0 0 0 0 0 0 0.25 0"/>
<feBlend mode="normal" in2="BackgroundImageFix" result="effect1_dropShadow_151_266"/>
<feBlend mode="normal" in="SourceGraphic" in2="effect1_dropShadow_151_266" result="shape"/>
</filter>
<filter id="filter7_d_151_266" x="700" y="258" width="43" height="43" filterUnits="userSpaceOnUse" color-interpolation-filters="sRGB">
<feFlood flood-opacity="0" result="BackgroundImageFix"/>
<feColorMatrix in="SourceAlpha" type="matrix" values="0 0 0 0 0 0 0 0 0 0 0 0 0 0 0 0 0 0 127 0" result="hardAlpha"/>
<feOffset/>
<feGaussianBlur stdDeviation="2"/>
<feComposite in2="hardAlpha" operator="out"/>
<feColorMatrix type="matrix" values="0 0 0 0 0 0 0 0 0 0 0 0 0 0 0 0 0 0 0.25 0"/>
<feBlend mode="normal" in2="BackgroundImageFix" result="effect1_dropShadow_151_266"/>
<feBlend mode="normal" in="SourceGraphic" in2="effect1_dropShadow_151_266" result="shape"/>
</filter>
<filter id="filter8_d_151_266" x="700" y="425" width="43" height="43" filterUnits="userSpaceOnUse" color-interpolation-filters="sRGB">
<feFlood flood-opacity="0" result="BackgroundImageFix"/>
<feColorMatrix in="SourceAlpha" type="matrix" values="0 0 0 0 0 0 0 0 0 0 0 0 0 0 0 0 0 0 127 0" result="hardAlpha"/>
<feOffset/>
<feGaussianBlur stdDeviation="2"/>
<feComposite in2="hardAlpha" operator="out"/>
<feColorMatrix type="matrix" values="0 0 0 0 0 0 0 0 0 0 0 0 0 0 0 0 0 0 0.25 0"/>
<feBlend mode="normal" in2="BackgroundImageFix" result="effect1_dropShadow_151_266"/>
<feBlend mode="normal" in="SourceGraphic" in2="effect1_dropShadow_151_266" result="shape"/>
</filter>
<filter id="filter9_d_151_266" x="964" y="128" width="43" height="43" filterUnits="userSpaceOnUse" color-interpolation-filters="sRGB">
<feFlood flood-opacity="0" result="BackgroundImageFix"/>
<feColorMatrix in="SourceAlpha" type="matrix" values="0 0 0 0 0 0 0 0 0 0 0 0 0 0 0 0 0 0 127 0" result="hardAlpha"/>
<feOffset/>
<feGaussianBlur stdDeviation="2"/>
<feComposite in2="hardAlpha" operator="out"/>
<feColorMatrix type="matrix" values="0 0 0 0 0 0 0 0 0 0 0 0 0 0 0 0 0 0 0.25 0"/>
<feBlend mode="normal" in2="BackgroundImageFix" result="effect1_dropShadow_151_266"/>
<feBlend mode="normal" in="SourceGraphic" in2="effect1_dropShadow_151_266" result="shape"/>
</filter>
<filter id="filter10_d_151_266" x="964" y="258" width="43" height="43" filterUnits="userSpaceOnUse" color-interpolation-filters="sRGB">
<feFlood flood-opacity="0" result="BackgroundImageFix"/>
<feColorMatrix in="SourceAlpha" type="matrix" values="0 0 0 0 0 0 0 0 0 0 0 0 0 0 0 0 0 0 127 0" result="hardAlpha"/>
<feOffset/>
<feGaussianBlur stdDeviation="2"/>
<feComposite in2="hardAlpha" operator="out"/>
<feColorMatrix type="matrix" values="0 0 0 0 0 0 0 0 0 0 0 0 0 0 0 0 0 0 0.25 0"/>
<feBlend mode="normal" in2="BackgroundImageFix" result="effect1_dropShadow_151_266"/>
<feBlend mode="normal" in="SourceGraphic" in2="effect1_dropShadow_151_266" result="shape"/>
</filter>
<filter id="filter11_d_151_266" x="964" y="425" width="43" height="43" filterUnits="userSpaceOnUse" color-interpolation-filters="sRGB">
<feFlood flood-opacity="0" result="BackgroundImageFix"/>
<feColorMatrix in="SourceAlpha" type="matrix" values="0 0 0 0 0 0 0 0 0 0 0 0 0 0 0 0 0 0 127 0" result="hardAlpha"/>
<feOffset/>
<feGaussianBlur stdDeviation="2"/>
<feComposite in2="hardAlpha" operator="out"/>
<feColorMatrix type="matrix" values="0 0 0 0 0 0 0 0 0 0 0 0 0 0 0 0 0 0 0.25 0"/>
<feBlend mode="normal" in2="BackgroundImageFix" result="effect1_dropShadow_151_266"/>
<feBlend mode="normal" in="SourceGraphic" in2="effect1_dropShadow_151_266" result="shape"/>
</filter>
<filter id="filter12_d_151_266" x="1243" y="128" width="43" height="43" filterUnits="userSpaceOnUse" color-interpolation-filters="sRGB">
<feFlood flood-opacity="0" result="BackgroundImageFix"/>
<feColorMatrix in="SourceAlpha" type="matrix" values="0 0 0 0 0 0 0 0 0 0 0 0 0 0 0 0 0 0 127 0" result="hardAlpha"/>
<feOffset/>
<feGaussianBlur stdDeviation="2"/>
<feComposite in2="hardAlpha" operator="out"/>
<feColorMatrix type="matrix" values="0 0 0 0 0 0 0 0 0 0 0 0 0 0 0 0 0 0 0.25 0"/>
<feBlend mode="normal" in2="BackgroundImageFix" result="effect1_dropShadow_151_266"/>
<feBlend mode="normal" in="SourceGraphic" in2="effect1_dropShadow_151_266" result="shape"/>
</filter>
<filter id="filter13_d_151_266" x="1243" y="258" width="43" height="43" filterUnits="userSpaceOnUse" color-interpolation-filters="sRGB">
<feFlood flood-opacity="0" result="BackgroundImageFix"/>
<feColorMatrix in="SourceAlpha" type="matrix" values="0 0 0 0 0 0 0 0 0 0 0 0 0 0 0 0 0 0 127 0" result="hardAlpha"/>
<feOffset/>
<feGaussianBlur stdDeviation="2"/>
<feComposite in2="hardAlpha" operator="out"/>
<feColorMatrix type="matrix" values="0 0 0 0 0 0 0 0 0 0 0 0 0 0 0 0 0 0 0.25 0"/>
<feBlend mode="normal" in2="BackgroundImageFix" result="effect1_dropShadow_151_266"/>
<feBlend mode="normal" in="SourceGraphic" in2="effect1_dropShadow_151_266" result="shape"/>
</filter>
<filter id="filter14_d_151_266" x="1243" y="425" width="43" height="43" filterUnits="userSpaceOnUse" color-interpolation-filters="sRGB">
<feFlood flood-opacity="0" result="BackgroundImageFix"/>
<feColorMatrix in="SourceAlpha" type="matrix" values="0 0 0 0 0 0 0 0 0 0 0 0 0 0 0 0 0 0 127 0" result="hardAlpha"/>
<feOffset/>
<feGaussianBlur stdDeviation="2"/>
<feComposite in2="hardAlpha" operator="out"/>
<feColorMatrix type="matrix" values="0 0 0 0 0 0 0 0 0 0 0 0 0 0 0 0 0 0 0.25 0"/>
<feBlend mode="normal" in2="BackgroundImageFix" result="effect1_dropShadow_151_266"/>
<feBlend mode="normal" in="SourceGraphic" in2="effect1_dropShadow_151_266" result="shape"/>
</filter>
</defs>
</svg>
