<svg width="66" height="66" viewBox="0 0 66 66" fill="none" xmlns="http://www.w3.org/2000/svg">
<path d="M40.6938 15.1875H25.3063C24.3117 15.1875 23.3579 15.5826 22.6546 16.2858C21.9514 16.9891 21.5563 17.9429 21.5563 18.9375V47.0625C21.5563 48.0571 21.9514 49.0109 22.6546 49.7141C23.3579 50.4174 24.3117 50.8125 25.3063 50.8125H40.6938C41.6883 50.8125 42.6422 50.4174 43.3454 49.7141C44.0487 49.0109 44.4438 48.0571 44.4438 47.0625V18.9375C44.4438 17.9429 44.0487 16.9891 43.3454 16.2858C42.6422 15.5826 41.6883 15.1875 40.6938 15.1875ZM37.2813 16.4375L36.7625 18.3688H29.2375L28.7188 16.4375H37.2813ZM43.1938 47.0625C43.1938 47.7255 42.9304 48.3614 42.4615 48.8303C41.9927 49.2991 41.3568 49.5625 40.6938 49.5625H25.3063C24.6432 49.5625 24.0073 49.2991 23.5385 48.8303C23.0697 48.3614 22.8063 47.7255 22.8063 47.0625V45.7188H43.1938V47.0625ZM43.1938 44.475L43.1875 44.4688H22.8125L22.8063 44.475V18.9375C22.8063 18.2745 23.0697 17.6386 23.5385 17.1697C24.0073 16.7009 24.6432 16.4375 25.3063 16.4375H27.425L28.0313 18.6937C28.102 18.9594 28.2587 19.1943 28.4769 19.3616C28.6951 19.5289 28.9626 19.6193 29.2375 19.6188H36.7625C37.0375 19.6193 37.3049 19.5289 37.5231 19.3616C37.7413 19.1943 37.898 18.9594 37.9688 18.6937L38.575 16.4375H40.6938C41.3568 16.4375 41.9927 16.7009 42.4615 17.1697C42.9304 17.6386 43.1938 18.2745 43.1938 18.9375V44.475Z" fill="#2D7EFF"/>
<path d="M34.4488 47.0163H31.7269C31.5612 47.0163 31.4022 47.0821 31.285 47.1993C31.1678 47.3165 31.1019 47.4755 31.1019 47.6413C31.1019 47.807 31.1678 47.966 31.285 48.0832C31.4022 48.2004 31.5612 48.2663 31.7269 48.2663H34.4488C34.6146 48.2663 34.7735 48.2004 34.8907 48.0832C35.008 47.966 35.0738 47.807 35.0738 47.6413C35.0738 47.4755 35.008 47.3165 34.8907 47.1993C34.7735 47.0821 34.6146 47.0163 34.4488 47.0163Z" fill="#2D7EFF"/>
<path d="M40.8563 39.175V27.5938C40.8563 27.5875 40.85 27.575 40.85 27.5687C40.8497 27.4963 40.837 27.4244 40.8125 27.3562L40.8063 27.35L39.4188 23.975C39.3567 23.8273 39.2582 23.6977 39.1325 23.5982C39.0068 23.4988 38.8581 23.4327 38.7 23.4062V21.8437C38.7 21.678 38.6342 21.519 38.517 21.4018C38.3997 21.2846 38.2408 21.2188 38.075 21.2188H33.0438C32.878 21.2188 32.719 21.2846 32.6018 21.4018C32.4846 21.519 32.4188 21.678 32.4188 21.8437V23.375H27.6063C27.4086 23.369 27.2136 23.4223 27.0465 23.5282C26.8794 23.634 26.7478 23.7875 26.6688 23.9687L25.2813 27.35V27.3562C25.2518 27.4232 25.2369 27.4956 25.2375 27.5687C25.2375 27.575 25.2313 27.5875 25.2313 27.5938V39.1437C25.0253 39.2018 24.8438 39.3252 24.7141 39.4955C24.5845 39.6657 24.5137 39.8735 24.5125 40.0875V41.8875C24.5129 42.0168 24.5388 42.1447 24.5886 42.264C24.6385 42.3832 24.7113 42.4915 24.803 42.5826C24.8947 42.6738 25.0035 42.7459 25.1231 42.795C25.2427 42.8441 25.3707 42.8692 25.5 42.8687H40.5C40.6293 42.8692 40.7574 42.8441 40.877 42.795C40.9965 42.7459 41.1053 42.6738 41.197 42.5826C41.2887 42.4915 41.3615 42.3832 41.4114 42.264C41.4612 42.1447 41.4871 42.0168 41.4875 41.8875V40.0875C41.4861 39.8896 41.4252 39.6967 41.3126 39.5339C41.2 39.3711 41.041 39.2461 40.8563 39.175ZM39.6063 28.2188V29.1312C39.6063 29.2248 39.588 29.3175 39.5522 29.404C39.5164 29.4905 39.4639 29.5691 39.3978 29.6352C39.3316 29.7014 39.253 29.7539 39.1665 29.7897C39.08 29.8255 38.9874 29.8438 38.8938 29.8438H38.7C38.606 29.8444 38.5127 29.8265 38.4256 29.791C38.3385 29.7555 38.2593 29.7031 38.1925 29.6369C38.1257 29.5707 38.0727 29.4919 38.0364 29.4052C38.0002 29.3184 37.9814 29.2253 37.9813 29.1312V28.2188H39.6063ZM38.3375 24.625L39.3 26.9688H37.8188L37.1188 24.625H38.3375ZM33.6688 22.4687H37.45V23.375H33.6688V22.4687ZM35.1063 28.2188H36.7313V29.1312C36.7313 29.2248 36.713 29.3175 36.6772 29.404C36.6414 29.4905 36.5889 29.5691 36.5228 29.6352C36.4566 29.7014 36.378 29.7539 36.2915 29.7897C36.205 29.8255 36.1124 29.8438 36.0188 29.8438H35.8188C35.7252 29.8438 35.6325 29.8255 35.546 29.7897C35.4595 29.7539 35.3809 29.7014 35.3148 29.6352C35.2486 29.5691 35.1961 29.4905 35.1603 29.404C35.1246 29.3175 35.1062 29.2248 35.1063 29.1312V28.2188ZM35.05 26.9688L34.8125 24.625H35.8125L36.5188 26.9688H35.05ZM32.5313 24.625H33.5563L33.7938 26.9688H32.3L32.5313 24.625ZM32.2313 28.2188H33.8563V29.1312C33.8563 29.2248 33.838 29.3175 33.8022 29.404C33.7664 29.4905 33.7139 29.5691 33.6478 29.6352C33.5816 29.7014 33.503 29.7539 33.4165 29.7897C33.33 29.8255 33.2374 29.8438 33.1438 29.8438H32.95C32.856 29.8444 32.7627 29.8265 32.6756 29.791C32.5885 29.7555 32.5093 29.7031 32.4425 29.6369C32.3757 29.5707 32.3227 29.4919 32.2864 29.4052C32.2502 29.3184 32.2314 29.2253 32.2313 29.1312V28.2188ZM30.275 24.625H31.275L31.0438 26.9688H29.5688L30.275 24.625ZM29.3563 28.2188H30.9813V29.1312C30.9813 29.2248 30.963 29.3175 30.9272 29.404C30.8914 29.4905 30.8389 29.5691 30.7728 29.6352C30.7066 29.7014 30.628 29.7539 30.5415 29.7897C30.455 29.8255 30.3624 29.8438 30.2688 29.8438H30.075C29.981 29.8444 29.8877 29.8265 29.8006 29.791C29.7135 29.7555 29.6343 29.7031 29.5675 29.6369C29.5007 29.5707 29.4477 29.4919 29.4114 29.4052C29.3752 29.3184 29.3564 29.2253 29.3563 29.1312V28.2188ZM27.75 24.625H28.9688L28.2688 26.9688H26.7875L27.75 24.625ZM26.4813 28.2188H28.1063V29.1312C28.1063 29.2248 28.088 29.3175 28.0522 29.404C28.0164 29.4905 27.9639 29.5691 27.8978 29.6352C27.8316 29.7014 27.753 29.7539 27.6665 29.7897C27.58 29.8255 27.4874 29.8438 27.3938 29.8438H27.1938C27.1002 29.8438 27.0075 29.8255 26.921 29.7897C26.8345 29.7539 26.7559 29.7014 26.6898 29.6352C26.6236 29.5691 26.5711 29.4905 26.5353 29.404C26.4996 29.3175 26.4812 29.2248 26.4813 29.1312V28.2188ZM26.4813 30.9562C26.7081 31.0462 26.9498 31.0928 27.1938 31.0938H27.3938C27.8921 31.0933 28.3712 30.9008 28.7313 30.5562C29.0933 30.9018 29.5746 31.0943 30.075 31.0938H30.2688C30.7671 31.0933 31.2462 30.9008 31.6063 30.5562C31.9683 30.9018 32.4496 31.0943 32.95 31.0938H33.1438C33.6421 31.0933 34.1212 30.9008 34.4813 30.5562C34.8414 30.9008 35.3204 31.0933 35.8188 31.0938H36.0188C36.5171 31.0933 36.9962 30.9008 37.3563 30.5562C37.7183 30.9018 38.1996 31.0943 38.7 31.0938H38.8938C39.1378 31.0928 39.3794 31.0462 39.6063 30.9562V39.1062H26.4813V30.9562ZM25.7625 41.6187V40.3562H40.2313L40.2375 41.6187H25.7625Z" fill="#2D7EFF"/>
<path d="M34.0688 35.0188C34.3015 35.1858 34.476 35.4214 34.5679 35.6927C34.6599 35.964 34.6645 36.2572 34.5813 36.5313C34.5119 36.7615 34.3892 36.9721 34.223 37.1458C34.0568 37.3196 33.8519 37.4517 33.625 37.5313V37.7438C33.625 37.9095 33.5592 38.0685 33.442 38.1857C33.3248 38.3029 33.1658 38.3688 33 38.3688C32.8343 38.3688 32.6753 38.3029 32.5581 38.1857C32.4409 38.0685 32.375 37.9095 32.375 37.7438V37.4375C32.179 37.3399 31.9909 37.2271 31.8125 37.1C31.7375 37.05 31.6688 37 31.5938 36.9563C31.5239 36.9129 31.4633 36.8561 31.4154 36.7892C31.3675 36.7223 31.3333 36.6467 31.3147 36.5665C31.2962 36.4864 31.2936 36.4034 31.3071 36.3223C31.3207 36.2411 31.3502 36.1635 31.3938 36.0938C31.4362 36.0237 31.4921 35.9628 31.5582 35.9144C31.6243 35.8661 31.6993 35.8313 31.7789 35.8122C31.8585 35.793 31.9412 35.7898 32.022 35.8027C32.1029 35.8156 32.1804 35.8445 32.25 35.8875C32.3375 35.9438 32.425 36.0063 32.5188 36.0688C32.7313 36.2125 32.9563 36.3938 33.1313 36.3688C33.1873 36.3673 33.2414 36.3484 33.2862 36.3148C33.331 36.2813 33.3642 36.2346 33.3813 36.1813C33.3924 36.1544 33.3935 36.1245 33.3843 36.0969C33.3751 36.0694 33.3563 36.046 33.3313 36.0313L32.1688 35.175C32.021 35.0698 31.8955 34.9364 31.7997 34.7824C31.7038 34.6284 31.6395 34.4568 31.6104 34.2778C31.5813 34.0987 31.5881 33.9157 31.6303 33.7392C31.6725 33.5628 31.7493 33.3965 31.8563 33.25C31.9893 33.0625 32.1678 32.9119 32.375 32.8125V32.4563C32.375 32.2905 32.4409 32.1315 32.5581 32.0143C32.6753 31.8971 32.8343 31.8313 33 31.8313C33.1658 31.8313 33.3248 31.8971 33.442 32.0143C33.5592 32.1315 33.625 32.2905 33.625 32.4563V32.7438C33.7517 32.7899 33.8716 32.8529 33.9813 32.9313L34.45 33.275C34.5161 33.3238 34.5719 33.3852 34.6143 33.4556C34.6566 33.526 34.6847 33.6041 34.6969 33.6853C34.7091 33.7666 34.7051 33.8494 34.6853 33.9292C34.6655 34.0089 34.6301 34.0839 34.5813 34.15C34.5325 34.2161 34.4711 34.2719 34.4007 34.3142C34.3303 34.3566 34.2522 34.3847 34.171 34.3968C34.0897 34.409 34.0069 34.4051 33.9271 34.3853C33.8474 34.3654 33.7724 34.3301 33.7063 34.2813L33.2438 33.9375C33.1803 33.8927 33.1017 33.8748 33.025 33.8875C32.9939 33.8913 32.9639 33.9017 32.937 33.9178C32.9101 33.934 32.8868 33.9556 32.8688 33.9813C32.8577 33.9959 32.8499 34.0128 32.8461 34.0308C32.8422 34.0488 32.8424 34.0674 32.8466 34.0853C32.8508 34.1032 32.8588 34.12 32.8702 34.1344C32.8816 34.1488 32.8961 34.1605 32.9125 34.1688C32.9125 34.1688 34.0188 34.9875 34.0688 35.0188Z" fill="#2D7EFF"/>
<circle cx="33" cy="33" r="32.5" stroke="#2D7EFF"/>
</svg>
