<svg width="32" height="32" viewBox="0 0 32 32" fill="none" xmlns="http://www.w3.org/2000/svg">
<circle cx="16" cy="16" r="16" fill="#1476F2"/>
<path d="M9.24999 9.45825H15.2917C15.6121 9.45825 15.9195 9.58556 16.1461 9.81216C16.3727 10.0388 16.5 10.3461 16.5 10.6666C16.5 10.9871 16.3727 11.2944 16.1461 11.521C15.9195 11.7476 15.6121 11.8749 15.2917 11.8749H9.24999C8.92952 11.8749 8.62218 11.7476 8.39557 11.521C8.16896 11.2944 8.04166 10.9871 8.04166 10.6666C8.04166 10.3461 8.16896 10.0388 8.39557 9.81216C8.62218 9.58556 8.92952 9.45825 9.24999 9.45825ZM17.7083 19.1249H23.75C24.0705 19.1249 24.3778 19.2522 24.6044 19.4788C24.831 19.7054 24.9583 20.0128 24.9583 20.3333C24.9583 20.6537 24.831 20.9611 24.6044 21.1877C24.3778 21.4143 24.0705 21.5416 23.75 21.5416H17.7083C17.3879 21.5416 17.0805 21.4143 16.8539 21.1877C16.6273 20.9611 16.5 20.6537 16.5 20.3333C16.5 20.0128 16.6273 19.7054 16.8539 19.4788C17.0805 19.2522 17.3879 19.1249 17.7083 19.1249ZM9.24999 14.2916H23.75C24.0705 14.2916 24.3778 14.4189 24.6044 14.6455C24.831 14.8721 24.9583 15.1794 24.9583 15.4999C24.9583 15.8204 24.831 16.1277 24.6044 16.3543C24.3778 16.5809 24.0705 16.7083 23.75 16.7083H9.24999C8.92952 16.7083 8.62218 16.5809 8.39557 16.3543C8.16896 16.1277 8.04166 15.8204 8.04166 15.4999C8.04166 15.1794 8.16896 14.8721 8.39557 14.6455C8.62218 14.4189 8.92952 14.2916 9.24999 14.2916Z" fill="white"/>
</svg>
