<svg width="66" height="66" viewBox="0 0 66 66" fill="none" xmlns="http://www.w3.org/2000/svg">
<g clip-path="url(#clip0_106_167)">
<path d="M38.6142 29.9846C38.566 29.585 38.4141 29.2205 38.1807 28.9161L39.7835 18.9685C39.8432 18.5984 39.6058 18.2455 39.2405 18.1611L39.2226 18.1571C38.8574 18.0727 38.4893 18.2859 38.3807 18.6446L35.4607 28.288C34.741 28.6498 34.2415 29.3874 34.2415 30.2464C34.2415 31.4593 35.2278 32.4463 36.4407 32.4463C36.6667 32.4463 36.8805 32.4022 37.0858 32.3386L43.186 35.5088C43.5216 35.6831 43.9348 35.5742 44.1407 35.257L44.1499 35.2428C44.3559 34.9257 44.2875 34.5039 43.9915 34.2683L38.6142 29.9846ZM35.3544 30.2464C35.3544 29.6475 35.8419 29.1601 36.4408 29.1601C37.0402 29.1601 37.5276 29.6475 37.5276 30.2464C37.5276 30.8457 37.0402 31.3333 36.4408 31.3333C35.8419 31.3333 35.3544 30.8458 35.3544 30.2464ZM53 30.2464C53 37.6097 48.168 43.8629 41.5092 46.0091L41.5089 43.6512C46.9178 41.5991 50.7741 36.3657 50.7741 30.2464C50.7741 22.3431 44.344 15.9131 36.4408 15.9131C28.5375 15.9131 22.1075 22.3431 22.1075 30.2464C22.1075 31.0392 22.1751 31.8163 22.2995 32.5745H20.0485C19.9409 31.8133 19.8816 31.0368 19.8816 30.2464C19.8816 21.1155 27.3099 13.6872 36.4408 13.6872C45.5717 13.6872 53 21.1155 53 30.2464ZM39.3275 42.0456L34.2301 37.0039C33.9073 36.681 33.4677 36.5029 33.0169 36.5029H30.4459V35.5403C30.4459 34.8224 29.8617 34.2437 29.1438 34.2437H14.2968C13.579 34.2437 13.0002 34.8224 13.0002 35.5403V44.2213H39.8395V43.2754C39.8394 42.8136 39.6558 42.3684 39.3275 42.0456ZM37.1071 42.2126H32.171C32.0597 42.2126 31.9707 42.1235 31.9707 42.0122V38.2003C31.9707 38.089 32.0597 37.9999 32.171 37.9999H33.1115C33.1616 37.9999 33.2173 38.0223 33.2562 38.0556L37.2462 41.8676C37.3797 41.9899 37.2907 42.2126 37.1071 42.2126ZM39.84 44.9386V47.8105C39.84 48.5269 39.2592 49.1078 38.5427 49.1078H37.1547C36.9039 47.3867 35.4207 46.0636 33.6306 46.0636C31.8446 46.0636 30.3615 47.3867 30.1107 49.1078H23.0752C22.8244 47.3867 21.3412 46.0636 19.5554 46.0636C17.7695 46.0636 16.2863 47.3867 16.0355 49.1078H14.2973C13.5808 49.1076 13 48.5269 13 47.8106V44.9386H39.84ZM33.6346 46.9315C32.1488 46.9315 30.9412 48.1335 30.9412 49.6193C30.9412 51.1052 32.1488 52.3128 33.6346 52.3128C35.1204 52.3128 36.3224 51.1052 36.3224 49.6193C36.3224 48.1335 35.1204 46.9315 33.6346 46.9315ZM33.6346 50.9661C32.889 50.9661 32.2879 50.3651 32.2879 49.6193C32.2879 48.8792 32.8889 48.2727 33.6346 48.2727C34.3747 48.2727 34.9758 48.8792 34.9758 49.6193C34.9758 50.3651 34.3747 50.9661 33.6346 50.9661ZM19.5556 46.9315C18.0698 46.9315 16.8622 48.1335 16.8622 49.6193C16.8622 51.1052 18.0698 52.3128 19.5556 52.3128C21.0414 52.3128 22.2434 51.1052 22.2434 49.6193C22.2434 48.1335 21.0414 46.9315 19.5556 46.9315ZM19.5556 50.9661C18.8099 50.9661 18.2089 50.3651 18.2089 49.6193C18.2089 48.8792 18.8099 48.2727 19.5556 48.2727C20.2957 48.2727 20.9022 48.8792 20.9022 49.6193C20.9022 50.3651 20.2957 50.9661 19.5556 50.9661Z" fill="#2D7EFF"/>
</g>
<circle cx="33" cy="33" r="32.5" stroke="#2D7EFF"/>
<defs>
<clipPath id="clip0_106_167">
<rect width="40" height="40" fill="white" transform="translate(13 13)"/>
</clipPath>
</defs>
</svg>
