<svg width="66" height="66" viewBox="0 0 66 66" fill="none" xmlns="http://www.w3.org/2000/svg">
<g clip-path="url(#clip0_106_125)">
<path d="M34.8906 17.5625C34.8906 17.2031 34.6094 16.9219 34.2656 16.9219C33.9219 16.9219 33.6406 17.2031 33.6406 17.5625C33.6406 17.9219 33.9219 18.2031 34.2656 18.2031C34.6094 18.2031 34.8906 17.9062 34.8906 17.5625Z" fill="#2D7EFF"/>
<path d="M37.4062 31.5469C36.0781 31.5469 35.0156 30.4688 35.0156 29.1563C35.0156 27.8281 36.0937 26.7656 37.4062 26.7656C38.7344 26.7656 39.7969 27.8438 39.7969 29.1563C39.7969 30.4844 38.7187 31.5469 37.4062 31.5469ZM37.4062 27.5781C36.5312 27.5781 35.8281 28.2813 35.8281 29.1563C35.8281 30.0313 36.5312 30.7344 37.4062 30.7344C38.2812 30.7344 38.9844 30.0313 38.9844 29.1563C38.9687 28.2813 38.2656 27.5781 37.4062 27.5781Z" fill="#2D7EFF"/>
<path d="M48.25 18.5312H32.1406V20.4844H48.25V18.5312Z" fill="#2D7EFF"/>
<path d="M39.2344 17.9219C40 17.9219 40.625 17.2969 40.625 16.5156C40.625 15.7344 40 15.1094 39.2344 15.1094C38.4687 15.1094 37.8594 15.75 37.8594 16.5156C37.8437 17.2812 38.4687 17.9219 39.2344 17.9219Z" fill="#2D7EFF"/>
<path d="M36.3906 18.0312C36.9062 18.0312 37.2969 17.625 37.2969 17.1094C37.2969 16.5938 36.8906 16.1875 36.3906 16.1875C35.8906 16.1875 35.4844 16.5938 35.4844 17.1094C35.4844 17.625 35.9062 18.0312 36.3906 18.0312Z" fill="#2D7EFF"/>
<path d="M19.7656 31.875C19.7656 31.6406 19.9688 31.4844 20.1562 31.4844C20.3906 31.4844 20.5469 31.6563 20.5469 31.875V36.4844H22.1406V36.4687H27.8125H28.5938V31.875C28.5938 31.6406 28.7969 31.4844 28.9844 31.4844C29.2188 31.4844 29.375 31.6875 29.375 31.875V33.8438C29.375 33.8594 29.375 33.875 29.375 33.875V33.9063C29.375 34.1875 29.4688 34.4531 29.625 34.6719C29.875 35.0312 30.2969 35.2656 30.7656 35.2656H37.5C38.2656 35.2656 38.8906 34.6406 38.8906 33.875C38.8906 33.1094 38.2656 32.4844 37.5 32.4844H31.8594V31.25C31.8906 28.9063 30.5 27.0625 28.2344 27.0625H20.8906C18.6563 27.0625 17.2656 28.9062 17.2656 31.2031V36.5H19.75V31.875H19.7656Z" fill="#2D7EFF"/>
<path d="M50.1875 13.3125L50.1719 37.0469L16.0625 37.5156V13.3125H13.4219V52.7031H52.8438V13.3125H50.1875Z" fill="#2D7EFF"/>
<path d="M43.2812 18.0469C44.5312 18.0469 45.5625 17.0156 45.5625 15.7344C45.5625 14.4531 44.5469 13.4219 43.2812 13.4219C42.0312 13.4219 41.0156 14.4531 41.0156 15.7344C41 17.0156 42.0156 18.0469 43.2812 18.0469Z" fill="#2D7EFF"/>
<path d="M24.6094 26.4375C26.3906 26.4375 27.8125 25.0156 27.8125 23.2344C27.8125 21.4531 26.3906 20.0312 24.6094 20.0312C22.8281 20.0312 21.4062 21.4531 21.4062 23.2344C21.4062 25.0156 22.8438 26.4375 24.6094 26.4375Z" fill="#2D7EFF"/>
<path d="M37.7188 24H37.0625V25.7188H37.7188V24Z" fill="#2D7EFF"/>
<path d="M41.3029 25.4569L40.8159 25.017L39.6638 26.2925L40.1508 26.7324L41.3029 25.4569Z" fill="#2D7EFF"/>
<path d="M35.2848 26.2832L34.1327 25.0077L33.6457 25.4476L34.7978 26.7231L35.2848 26.2832Z" fill="#2D7EFF"/>
</g>
<circle cx="33" cy="33" r="32.5" stroke="#2D7EFF"/>
<defs>
<clipPath id="clip0_106_125">
<rect width="40" height="40" fill="white" transform="translate(13 13)"/>
</clipPath>
</defs>
</svg>
