<svg width="66" height="66" viewBox="0 0 66 66" fill="none" xmlns="http://www.w3.org/2000/svg">
<g clip-path="url(#clip0_106_110)">
<path d="M18 38V40.5H23.7325L15.5 48.7325L17.2675 50.5L25.5 42.2675V48H28V38H18Z" fill="#2D7EFF"/>
<path d="M45.5001 39.25H43.0001V45.5H45.5001V39.25Z" fill="#2D7EFF"/>
<path d="M40.5001 33H38.0001V45.5H40.5001V33Z" fill="#2D7EFF"/>
<path d="M35.5 35.5H33V45.5H35.5V35.5Z" fill="#2D7EFF"/>
<path d="M48 15.5H18C17.3372 15.5007 16.7017 15.7643 16.233 16.233C15.7643 16.7017 15.5007 17.3372 15.5 18V33H18V29.25H48.0013L48.0025 48H33V50.5H48C48.6628 50.4991 49.2981 50.2354 49.7668 49.7668C50.2354 49.2981 50.4991 48.6628 50.5 48V18C50.4992 17.3372 50.2356 16.7017 49.7669 16.2331C49.2983 15.7644 48.6628 15.5008 48 15.5ZM28 26.75H18V18H28V26.75ZM30.5 26.75V18H48L48.0009 26.75H30.5Z" fill="#2D7EFF"/>
</g>
<circle cx="33" cy="33" r="32.5" stroke="#2D7EFF"/>
<defs>
<clipPath id="clip0_106_110">
<rect width="40" height="40" fill="white" transform="translate(13 13)"/>
</clipPath>
</defs>
</svg>
