<svg width="66" height="66" viewBox="0 0 66 66" fill="none" xmlns="http://www.w3.org/2000/svg">
<path d="M37.6817 44.6389H19.0438V17.9075H37.6766V19.9073H40.1811V17.3616C40.1827 14.9637 38.2139 13 35.8176 13H20.9062C18.5065 13 16.5428 14.9637 16.5428 17.3616V48.6366C16.5428 51.0381 18.5065 53 20.9062 53H35.8176C38.2139 53 40.1827 51.0381 40.1827 48.6366V44.5925H37.6817V44.6389ZM28.3593 50.8166C27.2539 50.8166 26.3613 49.9223 26.3613 48.8186C26.3613 47.7115 27.2539 46.8189 28.3593 46.8189C29.4665 46.8189 30.3608 47.7131 30.3608 48.8186C30.3608 49.9223 29.4665 50.8166 28.3593 50.8166Z" fill="#2D7EFF"/>
<path d="M26.7699 20.5903H21.1792V23.9994H26.7699V20.5903Z" fill="#2D7EFF"/>
<path d="M26.7699 29.3188H21.1792V32.7279H26.7699V29.3188Z" fill="#2D7EFF"/>
<path d="M26.7699 38.4541H21.1792V41.8614H26.7699V38.4541Z" fill="#2D7EFF"/>
<path d="M46.6128 30.8173C46.4154 29.784 46.0154 28.8279 45.449 27.9919L47.4539 25.9853L45.4061 23.9444L43.4046 25.9475C42.5721 25.3777 41.6109 24.9828 40.581 24.7837V21.9429H37.6835V24.7837C36.6519 24.9828 35.6992 25.3794 34.8582 25.9475L32.8602 23.9444L30.8124 25.987L32.8139 27.9936C32.2491 28.8295 31.8509 29.7856 31.6535 30.8173H28.816V33.713H31.6534C31.8508 34.7412 32.2508 35.6973 32.8155 36.5367L30.8123 38.5399L32.8601 40.5791L34.8633 38.5776C35.701 39.1474 36.657 39.544 37.6886 39.7448V42.5805H40.586V39.7432C41.6159 39.5457 42.5704 39.1458 43.4097 38.5794L45.4112 40.5808L47.459 38.5399L45.4541 36.5367C46.0205 35.7008 46.4188 34.743 46.6179 33.7114H49.457V30.8173H46.6128ZM39.1357 35.4159C37.3935 35.4159 35.979 34.0083 35.979 32.2644C35.979 30.5221 37.3934 29.106 39.1357 29.106C40.8797 29.106 42.2872 30.5204 42.2872 32.2644C42.2872 34.01 40.8762 35.4159 39.1357 35.4159Z" fill="#2D7EFF"/>
<circle cx="33" cy="33" r="32.5" stroke="#2D7EFF"/>
</svg>
