<svg width="66" height="66" viewBox="0 0 66 66" fill="none" xmlns="http://www.w3.org/2000/svg">
<path d="M42.5833 18C44.0199 18 45.3976 18.5707 46.4135 19.5865C47.4293 20.6023 48 21.9801 48 23.4167V42.5833C48 44.0199 47.4293 45.3977 46.4135 46.4135C45.3976 47.4293 44.0199 48 42.5833 48H34.2666C34.5433 47.3633 34.6733 46.6883 34.6733 46.0217C34.6733 45.845 34.6616 45.6717 34.64 45.5H42.5833C43.3568 45.5 44.0987 45.1927 44.6457 44.6457C45.1927 44.0987 45.5 43.3569 45.5 42.5833V23.4167C45.5 22.6431 45.1927 21.9013 44.6457 21.3543C44.0987 20.8073 43.3568 20.5 42.5833 20.5H23.4166C22.6431 20.5 21.9012 20.8073 21.3542 21.3543C20.8073 21.9013 20.5 22.6431 20.5 23.4167V32.1833C19.6105 32.2497 18.7514 32.5361 18 33.0167V23.4167C18 21.9801 18.5706 20.6023 19.5865 19.5865C20.6023 18.5707 21.98 18 23.4166 18H42.5833ZM32.5833 23C32.8854 23 33.1772 23.1094 33.4048 23.3079C33.6325 23.5065 33.7805 23.7807 33.8216 24.08L33.8333 24.25V33H40.08C40.3967 33.0001 40.7015 33.1204 40.9329 33.3366C41.1644 33.5528 41.3051 33.8488 41.3267 34.1648C41.3483 34.4808 41.2491 34.7932 41.0492 35.0388C40.8494 35.2845 40.5637 35.4452 40.25 35.4883L40.08 35.5H32.5833C32.2812 35.5 31.9894 35.3906 31.7617 35.1921C31.5341 34.9935 31.386 34.7193 31.345 34.42L31.3333 34.25V24.25C31.3333 23.9185 31.465 23.6005 31.6994 23.3661C31.9338 23.1317 32.2518 23 32.5833 23ZM20.9166 41.3333C21.9112 41.3333 22.865 40.9382 23.5683 40.235C24.2715 39.5317 24.6666 38.5779 24.6666 37.5833C24.6666 36.5888 24.2715 35.6349 23.5683 34.9317C22.865 34.2284 21.9112 33.8333 20.9166 33.8333C19.9221 33.8333 18.9682 34.2284 18.265 34.9317C17.5617 35.6349 17.1666 36.5888 17.1666 37.5833C17.1666 38.5779 17.5617 39.5317 18.265 40.235C18.9682 40.9382 19.9221 41.3333 20.9166 41.3333ZM20.9166 51.3333C25.3816 51.3333 27.1666 48.7183 27.1666 46.125C27.1666 44.4 25.9666 43 24.4883 43H17.345C15.8666 43 14.6666 44.4 14.6666 46.125C14.6666 48.7283 16.4516 51.3333 20.9166 51.3333ZM32.1666 39.25C32.1666 40.0235 31.8593 40.7654 31.3124 41.3124C30.7654 41.8594 30.0235 42.1667 29.25 42.1667C28.4764 42.1667 27.7345 41.8594 27.1876 41.3124C26.6406 40.7654 26.3333 40.0235 26.3333 39.25C26.3333 38.4765 26.6406 37.7346 27.1876 37.1876C27.7345 36.6406 28.4764 36.3333 29.25 36.3333C30.0235 36.3333 30.7654 36.6406 31.3124 37.1876C31.8593 37.7346 32.1666 38.4765 32.1666 39.25ZM27.86 49.6667C28.5333 48.5667 28.83 47.325 28.83 46.125C28.8284 45.3305 28.646 44.5468 28.2966 43.8333H30.8633C32.0466 43.8333 33.0066 44.8133 33.0066 46.0217C33.0066 47.8383 31.5783 49.6667 28.0066 49.6667H27.86Z" fill="#2D7EFF"/>
<circle cx="33" cy="33" r="32.5" stroke="#2D7EFF"/>
</svg>
