<svg width="66" height="66" viewBox="0 0 66 66" fill="none" xmlns="http://www.w3.org/2000/svg">
<g clip-path="url(#clip0_106_57)">
<path d="M23.2262 15H41.9256C45.4137 15 48.157 17.7433 48.0258 21.1108V41.5568C48.0258 44.919 45.2878 47.6623 41.9204 47.6623H37.808L40.053 54.8902L29.211 47.6623H23.2314C19.7433 47.6623 17 44.919 17 41.4309V21.116C16.9948 17.7433 19.7382 15 23.2262 15ZM30.4909 37.4393C29.8563 37.0878 29.3474 36.579 28.9645 35.9076C28.5816 35.2362 28.3927 34.4285 28.3927 33.4896V22.5952C28.3927 22.4273 28.356 22.2961 28.2773 22.2122C28.2039 22.123 28.0781 22.0811 27.8998 22.0811H25.1144C25.0515 22.0811 24.9886 22.0916 24.9309 22.1178C24.8732 22.144 24.8207 22.1808 24.784 22.2332C24.6942 22.334 24.6472 22.4657 24.6529 22.6005V33.4476C24.6529 35.1838 25.0096 36.6367 25.7229 37.817C26.4362 38.9919 27.3909 39.8679 28.5973 40.4448C29.7986 41.0218 31.1412 41.305 32.6204 41.305C34.1049 41.305 35.4476 41.0218 36.6489 40.4605C37.8501 39.8993 38.8046 39.0338 39.5179 37.8589C40.2313 36.6839 40.588 35.2257 40.588 33.4844V22.6056C40.5886 22.5357 40.5761 22.4664 40.5513 22.4011C40.5251 22.3381 40.4883 22.2752 40.4411 22.228C40.3415 22.1284 40.2103 22.0759 40.0426 22.0759H37.3884C37.231 22.0759 37.0999 22.1232 37.0055 22.2228C36.9058 22.3224 36.8587 22.4482 36.8587 22.6057V33.4896C36.8587 34.3656 36.6698 35.147 36.2921 35.8238C35.9144 36.5056 35.4057 37.0302 34.7605 37.4025C34.1154 37.7749 33.4019 37.9585 32.6257 37.9585C31.8337 37.9638 31.1256 37.7907 30.4909 37.4393Z" fill="#2D7EFF"/>
</g>
<circle cx="33" cy="33" r="32.5" stroke="#2D7EFF"/>
<defs>
<clipPath id="clip0_106_57">
<rect width="31.0303" height="40" fill="white" transform="translate(17 15)"/>
</clipPath>
</defs>
</svg>
