<svg width="66" height="66" viewBox="0 0 66 66" fill="none" xmlns="http://www.w3.org/2000/svg">
<path d="M35.5 46.75C36.1904 46.75 36.75 46.1904 36.75 45.5C36.75 44.8096 36.1904 44.25 35.5 44.25C34.8096 44.25 34.25 44.8096 34.25 45.5C34.25 46.1904 34.8096 46.75 35.5 46.75Z" fill="#2D7EFF"/>
<path d="M48 38C49.3787 38 50.5 36.8787 50.5 35.5V30.5C50.5 29.1225 49.3787 28 48 28H46.75V21.75C46.75 20.3725 45.6287 19.25 44.25 19.25H38V18C38 16.6225 36.8787 15.5 35.5 15.5H30.5C29.1213 15.5 28 16.6225 28 18V19.25H21.75C20.3713 19.25 19.25 20.3725 19.25 21.75V28.1775C17.1 28.7362 15.5 30.6775 15.5 33C15.5 35.3225 17.1 37.2625 19.25 37.8225V44.25C19.25 45.6287 20.3713 46.75 21.75 46.75H30.5V48C30.5 49.3787 31.6213 50.5 33 50.5H48C49.3787 50.5 50.5 49.3787 50.5 48V43C50.5 41.6225 49.3787 40.5 48 40.5H46.75V38H48ZM48 35.5H43V30.5H48V35.5ZM30.5 18H35.5V23H30.5V18ZM28 21.75V23C28 24.3787 29.1213 25.5 30.5 25.5H35.5C36.8787 25.5 38 24.3787 38 23V21.75H44.25V28H43C41.6213 28 40.5 29.1225 40.5 30.5V31.75H25.3225C25.0986 30.8906 24.6495 30.1065 24.0215 29.4785C23.3935 28.8505 22.6094 28.4014 21.75 28.1775V21.75H28ZM18 33C18 31.6225 19.1212 30.5 20.5 30.5C21.8787 30.5 23 31.6225 23 33C23 34.3775 21.8787 35.5 20.5 35.5C19.1212 35.5 18 34.3787 18 33ZM48 48H33V43H48V48ZM44.25 40.5H33C31.6213 40.5 30.5 41.6225 30.5 43V44.25H21.75V37.8225C22.6094 37.5986 23.3935 37.1495 24.0215 36.5215C24.6495 35.8935 25.0986 35.1094 25.3225 34.25H40.5V35.5C40.5 36.8787 41.6213 38 43 38H44.25V40.5Z" fill="#2D7EFF"/>
<circle cx="33" cy="33" r="32.5" stroke="#2D7EFF"/>
</svg>
