<svg width="66" height="66" viewBox="0 0 66 66" fill="none" xmlns="http://www.w3.org/2000/svg">
<g clip-path="url(#clip0_106_145)">
<path d="M34.2904 23.9677H33V20.7419H34.2904V18.1613V17.5161V16.491L28.0058 13H26.3813L20.0968 16.491V17.5161V18.1613V20.7419H21.3871V23.9677H20.0968V27.8387H34.2904V23.9677ZM26.7155 14.2903H27.6716L32.3162 16.871H22.071L26.7155 14.2903ZM21.3871 18.1613H33V19.4516H21.3871V18.1613ZM31.7097 20.7419V23.9677H30.4194V20.7419H31.7097ZM29.1291 20.7419V23.9677H27.8387V20.7419H29.1291ZM26.5484 20.7419V23.9677H25.2581V20.7419H26.5484ZM23.9678 20.7419V23.9677H22.6774V20.7419H23.9678ZM33 26.5484H21.3871V25.2581H33V26.5484Z" fill="#2D7EFF"/>
<path d="M40.0968 31.0645H41.3871V18.1613H35.5807V19.4516H40.0968V31.0645Z" fill="#2D7EFF"/>
<path d="M40.0968 51.7097H19.4516V46.5484H14.2903V19.4516H18.8065V18.1613H13V47.4607L18.5394 53H41.3871V47.8387H40.0968V51.7097ZM18.1613 50.7974L15.2026 47.8387H18.1613V50.7974Z" fill="#2D7EFF"/>
<path d="M36.2258 31.0645C31.6013 31.0645 27.8387 34.8271 27.8387 39.4516C27.8387 44.0761 31.6013 47.8387 36.2258 47.8387C40.8504 47.8387 44.6129 44.0761 44.6129 39.4516C44.6129 34.8271 40.8504 31.0645 36.2258 31.0645ZM36.2258 46.5484C32.3129 46.5484 29.1291 43.3645 29.1291 39.4516C29.1291 35.5387 32.3129 32.3548 36.2258 32.3548C40.1387 32.3548 43.3226 35.5387 43.3226 39.4516C43.3226 43.3645 40.1387 46.5484 36.2258 46.5484Z" fill="#2D7EFF"/>
<path d="M34.9355 36.2258H37.5161C38.2271 36.2258 38.8065 36.8045 38.8065 37.5161H40.0968C40.0968 36.0929 38.9394 34.9355 37.5161 34.9355H36.871V33.6452H35.5807V34.9355H34.9355C33.5123 34.9355 32.3549 36.0929 32.3549 37.5161C32.3549 38.9394 33.5123 40.0968 34.9355 40.0968H37.5161C38.2271 40.0968 38.8065 40.6755 38.8065 41.3871C38.8065 42.0987 38.2271 42.6774 37.5161 42.6774H34.9355C34.2239 42.6774 33.6452 42.0987 33.6452 41.3871H32.3549C32.3549 42.8103 33.5123 43.9677 34.9355 43.9677H35.5807V45.2581H36.871V43.9677H37.5161C38.9394 43.9677 40.0968 42.8103 40.0968 41.3871C40.0968 39.9639 38.9394 38.8065 37.5161 38.8065H34.9355C34.2239 38.8065 33.6452 38.2277 33.6452 37.5161C33.6452 36.8045 34.2239 36.2258 34.9355 36.2258Z" fill="#2D7EFF"/>
<path d="M50.9167 34.2903L49.5348 36.2258H45.258V37.5161H48.6129L47.9587 38.4316L49.0083 39.1813L52.5019 34.2903L49.0083 29.3994L47.9587 30.149L48.6129 31.0645H42.6774V32.3548H49.5348L50.9167 34.2903Z" fill="#2D7EFF"/>
<path d="M52.9999 42.6774V41.3871H47.7096L48.3632 40.4716L47.3135 39.7219L43.8199 44.6129L47.3135 49.5039L48.3632 48.7542L47.7096 47.8387H52.9999V46.5484H46.7877L45.4051 44.6129L46.7877 42.6774H52.9999Z" fill="#2D7EFF"/>
<path d="M27.1935 42.6774V41.3871H23.8387L24.4922 40.4716L23.4425 39.7219L19.949 44.6129L23.4425 49.5039L24.4922 48.7542L23.8387 47.8387H30.4193V46.5484H22.9167L21.5341 44.6129L22.9167 42.6774H27.1935Z" fill="#2D7EFF"/>
<path d="M24.0878 38.4316L25.1375 39.1813L28.631 34.2903L25.1375 29.3994L24.0878 30.149L24.742 31.0645H19.4517V32.3548H25.6639L27.0459 34.2903L25.6639 36.2258H19.4517V37.5161H24.742L24.0878 38.4316Z" fill="#2D7EFF"/>
</g>
<circle cx="33" cy="33" r="32.5" stroke="#2D7EFF"/>
<defs>
<clipPath id="clip0_106_145">
<rect width="40" height="40" fill="white" transform="translate(13 13)"/>
</clipPath>
</defs>
</svg>
