<svg width="66" height="66" viewBox="0 0 66 66" fill="none" xmlns="http://www.w3.org/2000/svg">
<path fill-rule="evenodd" clip-rule="evenodd" d="M32.9988 25.4839C37.1507 25.4839 40.5151 28.8484 40.5151 33C40.5151 37.1495 37.1507 40.5141 32.9988 40.5141C28.8493 40.5141 25.4848 37.1496 25.4848 33C25.4848 28.8484 28.8494 25.4839 32.9988 25.4839ZM22.3605 33C22.3605 32.5431 22.7302 32.1736 23.187 32.1736C23.6441 32.1736 24.0134 32.5431 24.0134 33C24.0134 33.457 23.6441 33.8264 23.187 33.8264C22.7302 33.8264 22.3605 33.457 22.3605 33ZM23.7861 38.3191C23.5588 37.9235 23.6942 37.4185 24.088 37.1888C24.4836 36.9615 24.9887 37.0971 25.2181 37.4928C25.4454 37.8883 25.31 38.3934 24.9143 38.6208C24.5184 38.8481 24.0134 38.7149 23.7861 38.3191ZM27.6797 42.2128C27.2841 41.9833 27.1486 41.4782 27.3781 41.0848C27.6054 40.689 28.1105 40.5535 28.5061 40.7808C28.902 41.0103 29.0374 41.5153 28.808 41.9089C28.5806 42.3046 28.0756 42.4402 27.6797 42.2128ZM32.9988 43.6382C32.542 43.6382 32.1723 43.2687 32.1723 42.8118C32.1723 42.3549 32.5419 41.9855 32.9988 41.9855C33.4558 41.9855 33.8251 42.3549 33.8251 42.8118C33.8251 43.2687 33.4558 43.6382 32.9988 43.6382ZM38.3178 42.2128C37.9222 42.4402 37.4172 42.3046 37.1898 41.9089C36.9603 41.5153 37.0958 41.0103 37.4913 40.7808C37.8873 40.5535 38.3923 40.6889 38.6196 41.0848C38.8492 41.4782 38.7138 41.9832 38.3178 42.2128ZM42.2117 38.3191C41.9842 38.7149 41.4791 38.8481 41.0835 38.6208C40.6879 38.3934 40.5524 37.8883 40.7797 37.4928C41.0092 37.0971 41.5142 36.9615 41.9099 37.1888C42.3058 37.4185 42.4413 37.9235 42.2117 38.3191ZM43.6372 33C43.6372 33.457 43.2677 33.8264 42.8106 33.8264C42.3538 33.8264 41.9842 33.457 41.9842 33C41.9842 32.5431 42.3538 32.1736 42.8106 32.1736C43.2677 32.1736 43.6372 32.5431 43.6372 33ZM42.2117 27.681C42.4413 28.0766 42.3058 28.5816 41.9099 28.809C41.5143 29.0385 41.0092 28.903 40.7797 28.5073C40.5524 28.1117 40.6878 27.6067 41.0835 27.377C41.4791 27.1497 41.9842 27.2852 42.2117 27.681ZM38.3178 23.7872C38.7138 24.0146 38.8492 24.5196 38.6197 24.9153C38.3924 25.311 37.8873 25.4466 37.4914 25.2169C37.0959 24.9897 36.9603 24.4846 37.1899 24.0889C37.4172 23.6932 37.9222 23.5578 38.3178 23.7872ZM32.9988 22.3619C33.4558 22.3619 33.8251 22.7314 33.8251 23.1882C33.8251 23.6451 33.4557 24.0146 32.9988 24.0146C32.542 24.0146 32.1723 23.6451 32.1723 23.1882C32.1723 22.7314 32.542 22.3619 32.9988 22.3619ZM27.6797 23.7872C28.0756 23.5577 28.5806 23.6932 28.8079 24.0889C29.0374 24.4846 28.902 24.9897 28.506 25.2169C28.1104 25.4465 27.6053 25.311 27.378 24.9153C27.1486 24.5196 27.2841 24.0146 27.6797 23.7872ZM23.7861 27.681C24.0134 27.2852 24.5184 27.1497 24.9143 27.377C25.3099 27.6066 25.4454 28.1117 25.2181 28.5073C24.9886 28.903 24.4836 29.0385 24.088 28.809C23.6942 28.5816 23.5588 28.0766 23.7861 27.681ZM31.1034 28.3981L33.9323 26.8567C34.0614 26.7867 34.2254 26.8349 34.2952 26.9638C34.3301 27.0315 34.3366 27.106 34.315 27.1737L34.0066 28.2953C35.3753 28.7367 36.4663 29.6704 37.1309 30.8399C37.8347 32.0774 38.0664 33.5859 37.6598 35.0681C37.6206 35.2103 37.4741 35.2934 37.3296 35.2562C37.1877 35.2168 37.1045 35.0703 37.1441 34.926C37.5112 33.588 37.3014 32.2239 36.665 31.1045C36.0662 30.0529 35.0909 29.2134 33.8645 28.8112L33.6481 29.5982C34.658 29.9415 35.4627 30.6367 35.9567 31.5067C36.49 32.4446 36.6649 33.5881 36.3568 34.7096C36.3176 34.8516 36.1709 34.9369 36.0289 34.8975C35.8869 34.8582 35.8016 34.7118 35.8408 34.5696C36.1098 33.5881 35.9567 32.5912 35.4909 31.7714C35.0627 31.0193 34.3717 30.4181 33.5059 30.1163L33.1277 31.4915C33.0883 31.6335 32.9419 31.7189 32.7998 31.6795C32.7299 31.6598 32.6729 31.616 32.638 31.5571L30.9875 28.7762C30.9129 28.6473 30.9546 28.4832 31.0813 28.4089L31.1034 28.3981ZM34.8966 37.602L32.0655 39.1433C31.9363 39.2133 31.7745 39.1652 31.7024 39.0363C31.6673 38.9685 31.6608 38.8941 31.6827 38.8263L31.9912 37.7048C30.6224 37.261 29.5337 36.3296 28.8669 35.1601C28.163 33.9227 27.9311 32.4142 28.3377 30.9319C28.3772 30.7875 28.5259 30.7046 28.6679 30.7439C28.8102 30.7832 28.8933 30.9298 28.8538 31.0718C28.4866 32.412 28.6963 33.7761 29.3324 34.8955C29.9315 35.9471 30.9067 36.7844 32.1332 37.1888L32.3495 36.3995C31.3395 36.0564 30.535 35.3611 30.0409 34.4909C29.5074 33.5531 29.3325 32.4119 29.6409 31.2903C29.6802 31.146 29.8268 31.063 29.9688 31.1024C30.1109 31.1395 30.1962 31.2881 30.157 31.4303C29.888 32.4096 30.0409 33.4087 30.5066 34.2264C30.9351 34.9784 31.626 35.5819 32.4919 35.8836L32.87 34.5063C32.9091 34.3641 33.0559 34.281 33.2001 34.3204C33.2701 34.338 33.3246 34.3839 33.3597 34.4406L35.0102 37.2237C35.0867 37.3505 35.0431 37.5166 34.9163 37.591L34.8966 37.602ZM30.3623 50.2319C30.0366 50.1663 29.9184 50.691 30.2836 50.7632L30.8238 50.8374C31.1385 50.8987 31.2673 50.3805 30.8871 50.304L30.3623 50.2319ZM28.2963 49.7881C27.9007 49.7094 27.8524 50.2472 28.1521 50.3063L28.6788 50.4441C29.055 50.5206 29.1271 49.9871 28.808 49.9237L28.2963 49.7881ZM26.298 49.0951C25.9592 48.9596 25.7733 49.4646 26.0924 49.5914C26.2585 49.6635 26.4291 49.7292 26.5974 49.7947C26.7375 49.8494 26.8927 49.7685 26.9407 49.6483C27.0019 49.4952 26.9231 49.3466 26.7899 49.2918C26.6238 49.2285 26.4598 49.1649 26.298 49.0951ZM24.4005 48.1637C24.3566 48.1396 24.2845 48.1221 24.2234 48.1331C23.972 48.1835 23.9152 48.5003 24.1337 48.6316C24.2911 48.7212 24.4529 48.8087 24.6124 48.8939C24.9034 49.0689 25.1764 48.6075 24.8638 48.4195C24.7087 48.3364 24.5535 48.2533 24.4005 48.1637ZM22.6273 47.0093C22.3474 46.7994 22.0238 47.2302 22.306 47.4401C22.4459 47.5493 22.6032 47.6566 22.7521 47.7592C23.0669 47.9496 23.3359 47.5276 23.0559 47.3177L22.6273 47.0093ZM21.0075 45.6496C20.769 45.4113 20.3755 45.7785 20.638 46.0408L21.0402 46.4104C21.263 46.6334 21.6743 46.2858 21.3966 46.0081L21.0075 45.6496ZM19.5623 44.1039C19.2977 43.8392 18.9435 44.1739 19.1513 44.4494C19.267 44.5892 19.383 44.727 19.5055 44.8625C19.783 45.1424 20.1285 44.7292 19.9077 44.5061L19.5623 44.1039ZM18.3162 42.3964C18.2441 42.2784 18.0889 42.2435 17.962 42.3046C17.8243 42.3876 17.7782 42.543 17.8657 42.6893C17.962 42.8402 18.0626 42.9955 18.1654 43.1419C18.3752 43.4217 18.7971 43.1529 18.6068 42.836L18.3162 42.3964ZM17.2841 40.5512C17.1684 40.2584 16.6546 40.4179 16.801 40.7852C16.8775 40.9469 16.9605 41.111 17.0437 41.2727C17.2471 41.6116 17.6823 41.2924 17.5202 41.0235C17.4416 40.8683 17.3584 40.7088 17.2841 40.5512ZM16.4841 38.5924C16.3421 38.2338 15.8566 38.4678 15.9769 38.7672L16.1584 39.2789C16.296 39.6222 16.7879 39.4057 16.6634 39.0909L16.4841 38.5924ZM15.9311 36.5528C15.8631 36.2139 15.3342 36.3078 15.4041 36.6642C15.4412 36.8392 15.4806 37.0205 15.5242 37.1955C15.5878 37.519 16.1189 37.4381 16.0446 37.0687L15.9311 36.5528ZM15.6292 34.4582C15.6292 34.1543 15.0938 34.1084 15.0938 34.491C15.1066 34.6769 15.1263 34.8627 15.1461 35.0464C15.227 35.4485 15.7386 35.278 15.6797 34.985L15.6292 34.4582ZM32.9988 50.9687C33.1015 50.9687 33.2066 50.901 33.2413 50.8157C33.3288 50.6364 33.1934 50.4309 32.9988 50.4309L32.4698 50.4221C32.098 50.4221 32.1178 50.9599 32.4545 50.9599L32.9988 50.9687ZM35.6355 15.7659C35.9634 15.8316 36.0813 15.3089 35.7142 15.2346L35.1741 15.1625C35.1544 15.1582 35.113 15.1603 35.0932 15.1647C34.8091 15.2215 34.7851 15.6304 35.1108 15.6959L35.6355 15.7659ZM37.7037 16.2098C38.0971 16.2907 38.1454 15.7528 37.8457 15.6939L37.3187 15.5539C36.945 15.4796 36.8729 16.013 37.192 16.0764L37.7037 16.2098ZM39.6997 16.9028C40.0386 17.0384 40.2245 16.5355 39.9051 16.4065C39.7389 16.3366 39.5684 16.2709 39.4 16.2054C39.2602 16.1485 39.1051 16.2294 39.057 16.3518C38.9956 16.5049 39.0743 16.6535 39.2079 16.706C39.374 16.7694 39.538 16.835 39.6997 16.9028ZM41.5973 17.8342C41.8945 18.0112 42.168 17.5499 41.8728 17.3729C41.7177 17.2789 41.5471 17.1914 41.3854 17.1039C41.0945 16.9291 40.8234 17.3925 41.134 17.5807C41.2913 17.6636 41.4465 17.7467 41.5973 17.8342ZM43.3705 18.9885C43.6501 19.1984 43.9737 18.7698 43.694 18.5599C43.552 18.4485 43.3943 18.3413 43.2479 18.2386C42.9309 18.0506 42.6641 18.4724 42.9419 18.6801L43.3705 18.9885ZM44.9903 20.3483C45.2286 20.5887 45.6223 20.2215 45.3599 19.9593L44.9577 19.5897C44.7345 19.3668 44.3235 19.7121 44.6013 19.9921L44.9903 20.3483ZM46.4356 21.8939C46.7002 22.1585 47.0541 21.8263 46.8466 21.5507C46.7327 21.4108 46.6148 21.2709 46.4945 21.1353C46.2148 20.8577 45.8694 21.2709 46.0923 21.4917L46.4356 21.8939ZM47.6838 23.6037C47.8566 23.8922 48.3199 23.6211 48.1384 23.3173C48.0446 23.1664 47.9352 23.0002 47.8324 22.856C47.6227 22.5783 47.2007 22.8472 47.3907 23.1621L47.6838 23.6037ZM48.7137 25.4489C48.8294 25.7396 49.3432 25.5799 49.1968 25.2149C49.1203 25.0509 49.0373 24.887 48.9542 24.7274C48.7508 24.3885 48.3156 24.7054 48.4773 24.9744C48.556 25.1317 48.6391 25.2892 48.7137 25.4489ZM49.5137 27.4075C49.6557 27.7663 50.141 27.5301 50.0209 27.2328L49.8395 26.719C49.7018 26.3757 49.2099 26.5922 49.3366 26.9069L49.5137 27.4075ZM50.0667 29.4473C50.1345 29.7774 50.6549 29.7031 50.5937 29.3381C50.5563 29.1609 50.5194 28.9796 50.4734 28.8046C50.4099 28.4811 49.8789 28.5599 49.9532 28.9314L50.0667 29.4473ZM50.3686 31.5396C50.3686 31.8457 50.9063 31.8917 50.9063 31.5068C50.8931 31.3231 50.8715 31.1352 50.8517 30.9516C50.7709 30.5494 50.2592 30.7198 50.3181 31.0128L50.3686 31.5396ZM32.9988 15.0314C32.8984 15.0314 32.7912 15.0969 32.7583 15.1822C32.6687 15.3615 32.8044 15.5692 32.9988 15.5692L33.5301 15.5757C33.8997 15.5757 33.88 15.0402 33.5433 15.0402L32.9988 15.0314ZM16.8098 33V34.1631L21.285 34.8343C21.4163 35.6783 21.637 36.4936 21.9364 37.2698L18.3992 40.0879L19.5601 42.0991L23.7728 40.4442C24.302 41.0978 24.901 41.6968 25.5547 42.226L23.8998 46.4389L25.9112 47.6019L28.7292 44.0624C29.5052 44.3619 30.3209 44.5828 31.1645 44.7139L31.8378 49.1892H34.1617L34.833 44.7139C35.6769 44.5828 36.4923 44.3619 37.2685 44.0624L40.0888 47.6019L42.1002 46.4389L40.443 42.226C41.0989 41.6969 41.6957 41.0978 42.2249 40.4442L46.4377 42.0991L47.6008 40.0879L44.0611 37.2698C44.3608 36.4936 44.5815 35.6783 44.7128 34.8343L49.188 34.161V33V31.837L44.7128 31.1657C44.5815 30.3217 44.3608 29.5064 44.0611 28.7303L47.6008 25.9099L46.4377 23.8987L42.2249 25.5558C41.6958 24.8999 41.0989 24.3031 40.443 23.774L42.1002 19.5611L40.0888 18.398L37.2685 21.9376C36.4923 21.6381 35.6769 21.4172 34.833 21.2861L34.1617 16.8108H31.8378L31.1645 21.2861C30.3208 21.4172 29.5051 21.6381 28.7292 21.9376L25.9112 18.398L23.8998 19.5611L25.5547 23.774C24.901 24.303 24.302 24.9021 23.7728 25.5558L19.5602 23.8988L18.3992 25.91L21.9364 28.7303C21.637 29.5064 21.4163 30.3218 21.285 31.1658L16.8098 31.8371V33Z" fill="#2D7EFF"/>
<circle cx="33" cy="33" r="32.5" stroke="#2D7EFF"/>
</svg>
