<svg width="66" height="66" viewBox="0 0 66 66" fill="none" xmlns="http://www.w3.org/2000/svg">
<path d="M13.34 18.3412C12.8898 18.4631 12.7538 18.5194 12.7538 18.5897C12.7538 18.6225 12.796 18.8804 12.8476 19.1618C12.9507 19.7339 12.9695 20.3435 12.8851 20.5264C12.857 20.592 12.7257 20.7093 12.5943 20.789C12.4021 20.9109 12.3271 20.9297 12.1582 20.9109C11.8956 20.8828 11.5486 20.6671 10.9859 20.1888L10.5357 19.8042L10.3106 20.0012C10.1887 20.109 10.0011 20.2966 9.89329 20.4232L9.69634 20.6436L9.9355 20.9062C10.4842 21.5018 10.8312 22.0504 10.8312 22.3083C10.8312 22.4912 10.6014 22.8898 10.4466 22.9695C10.2591 23.068 9.61193 23.0539 9.02108 22.9367C8.7491 22.8851 8.49587 22.8523 8.46774 22.8617C8.41147 22.8851 8.25672 23.3587 8.16762 23.7714L8.12073 23.9637L8.61311 24.1372C9.26961 24.3623 9.70572 24.5873 9.88392 24.7937C10.0152 24.939 10.034 24.9953 10.034 25.2392C10.034 25.4783 10.0152 25.5393 9.89329 25.6753C9.7151 25.8816 9.33526 26.0786 8.72096 26.2896C8.44898 26.3834 8.20514 26.4678 8.177 26.4771C8.1348 26.4912 8.13948 26.5803 8.19107 26.796C8.2661 27.143 8.39271 27.5463 8.43491 27.5932C8.44898 27.612 8.69752 27.5838 8.97888 27.5322C9.626 27.4103 10.2403 27.3916 10.4279 27.49C10.6014 27.5745 10.8218 27.9308 10.8265 28.1231C10.8359 28.4092 10.5592 28.8546 9.97301 29.5205L9.69165 29.8394L10.0856 30.238C10.3013 30.4537 10.4982 30.6319 10.5264 30.6319C10.5545 30.6319 10.7092 30.5147 10.8781 30.3693C11.4877 29.8347 11.8394 29.6096 12.1536 29.5533C12.2989 29.5252 12.3693 29.544 12.5756 29.6706C12.7116 29.7503 12.8523 29.8675 12.8804 29.9332C12.9695 30.102 12.9507 30.7585 12.8476 31.2978C12.796 31.5651 12.7538 31.8183 12.7538 31.8605C12.7538 31.9215 12.8523 31.973 13.1196 32.0528C13.3165 32.1184 13.565 32.1841 13.6729 32.1981L13.8652 32.231L14.0199 31.7948C14.2591 31.1196 14.4607 30.7116 14.6483 30.524C14.8124 30.3599 14.8358 30.3505 15.136 30.3505C15.4408 30.3505 15.4595 30.3552 15.6283 30.524C15.8206 30.7257 16.0598 31.2134 16.252 31.8183L16.388 32.231L16.5521 32.2028C16.8007 32.1606 17.415 31.9918 17.4806 31.9496C17.5275 31.9215 17.5181 31.7995 17.4384 31.3541C17.3212 30.7069 17.2977 30.1536 17.3868 29.9519C17.4572 29.7784 17.8417 29.5533 18.0574 29.5533C18.3575 29.558 18.6858 29.7644 19.4173 30.4068L19.7315 30.6788L20.0785 30.3552C20.2661 30.177 20.4537 29.9801 20.4865 29.9144C20.5475 29.7972 20.5381 29.7784 20.2614 29.4736C19.8581 29.0281 19.5486 28.5686 19.483 28.3013C19.4267 28.0856 19.4267 28.0668 19.5674 27.8089C19.6659 27.626 19.7596 27.5229 19.8581 27.4807C20.0645 27.3916 20.6741 27.415 21.2837 27.5322C21.7151 27.6167 21.8276 27.626 21.8558 27.5745C21.9121 27.4854 22.0809 26.8335 22.0949 26.6553L22.109 26.4959L21.5697 26.299C20.8851 26.0457 20.6506 25.9285 20.4349 25.7175C20.2661 25.558 20.2567 25.5346 20.2567 25.2532C20.2567 25.061 20.2849 24.9156 20.3317 24.8406C20.4771 24.6155 20.871 24.4138 21.7714 24.0903L22.1371 23.959L22.109 23.7667C22.0527 23.4338 21.8511 22.8476 21.7901 22.8476C21.7573 22.8476 21.5041 22.8898 21.2227 22.9414C20.6459 23.0492 20.0082 23.0633 19.8394 22.9742C19.6565 22.8851 19.4126 22.4396 19.4455 22.2661C19.4924 22.0082 19.7362 21.6143 20.1395 21.136C20.3599 20.8781 20.5381 20.6436 20.5381 20.6155C20.5381 20.5873 20.3599 20.3904 20.1395 20.1794L19.7409 19.7902L19.4267 20.0668C18.7749 20.6436 18.32 20.925 18.0527 20.925C17.8464 20.925 17.4572 20.6952 17.3868 20.5264C17.2977 20.3201 17.3212 19.6682 17.4337 19.0727C17.49 18.7913 17.5181 18.5428 17.4994 18.524C17.4572 18.4818 16.6037 18.2521 16.4818 18.2521C16.4021 18.2521 16.3599 18.3224 16.252 18.66C16.0598 19.2603 15.7878 19.8089 15.5908 19.9824C15.4408 20.1137 15.3939 20.1278 15.1266 20.1278C14.8499 20.1278 14.8218 20.1184 14.6577 19.9543C14.4513 19.748 14.2544 19.3494 14.0434 18.7257C13.8698 18.2052 13.8698 18.2005 13.34 18.3412ZM15.9378 21.9566C17.9121 22.4303 19.0187 24.5498 18.2825 26.4584C17.7573 27.823 16.3693 28.7046 14.9062 28.6014C13.4291 28.4936 12.2192 27.476 11.8581 26.0317C11.7737 25.7128 11.7643 25.5487 11.7784 25.1032C11.8206 24.1794 12.1067 23.5041 12.7303 22.8711C13.5744 22.0129 14.7608 21.6753 15.9378 21.9566Z" fill="#1476F2"/>
<path d="M14.3997 22.9696C13.3822 23.3166 12.7538 24.1794 12.7538 25.2439C12.7538 26.6085 13.9589 27.7293 15.3095 27.6167C16.2708 27.5323 17.0351 26.9508 17.3962 26.013C17.5416 25.6378 17.5557 24.9203 17.4244 24.5358C16.9883 23.2416 15.6424 22.5429 14.3997 22.9696ZM15.6987 24.1419C16.1442 24.3623 16.3927 24.8125 16.3552 25.3236C16.3317 25.6472 16.2239 25.877 16.0035 26.0974C15.7831 26.3178 15.5533 26.4256 15.2391 26.4491C14.7139 26.4866 14.2872 26.2521 14.0527 25.7926C13.8183 25.3377 13.898 24.7468 14.245 24.3764C14.5826 24.0153 15.2344 23.9121 15.6987 24.1419Z" fill="#1476F2"/>
<path d="M35.1922 19.8512C34.9859 19.9027 34.7139 19.9778 34.592 20.0153L34.3622 20.0903L34.3951 20.306C34.4232 20.4983 34.4185 20.5124 34.3388 20.4795C34.0152 20.3435 33.5744 20.2122 33.1524 20.1278C32.7397 20.0434 32.5521 20.0294 31.98 20.0481C31.2532 20.0716 30.8312 20.1653 30.2215 20.4326C29.5369 20.7374 28.6694 21.4408 28.1723 22.0974C27.8675 22.4959 27.4548 23.34 27.3329 23.809C27.1969 24.3248 27.1594 25.3236 27.2626 25.7972C27.3282 26.1114 27.3282 26.1536 27.2579 26.2896C27.1547 26.4913 27.1266 27.2275 27.2063 27.687C27.2438 27.8887 27.272 28.0528 27.272 28.0528C26.2403 27.7808 26.3622 27.7339 26.0949 28.5077C25.7901 29.4033 25.5557 29.8723 25.2743 30.1349L25.0445 30.3506H24.6412H24.238L24.0129 30.1208C23.7362 29.8488 23.5017 29.3705 23.1875 28.4702L22.9672 27.8277L22.5639 27.9168C22.1278 28.0106 21.5697 28.1841 21.5088 28.2404C21.4853 28.2591 21.5275 28.5686 21.6026 28.925C21.7479 29.6753 21.7854 30.6319 21.6729 30.8992C21.5979 31.0727 21.0258 31.4291 20.8147 31.4291C20.4724 31.4291 19.9425 31.1056 19.1172 30.3975L18.5686 29.9238L18.4373 30.0176C18.3669 30.0692 18.1137 30.3084 17.8698 30.5569L17.429 31.0024L17.7057 31.3166C18.6389 32.367 18.939 32.8406 18.9437 33.2486C18.9437 33.5393 18.6342 34.0692 18.4185 34.1489C18.0199 34.2896 17.3118 34.2474 16.2051 34.0129L15.7925 33.9238L15.7268 34.0833C15.6283 34.3131 15.4408 34.993 15.4033 35.2275L15.3751 35.4385L15.9754 35.6448C16.8241 35.9356 17.4103 36.2216 17.6588 36.4702L17.8652 36.6765V37.1032V37.5253L17.6682 37.741C17.429 37.9989 16.8757 38.2802 16.0363 38.5616C15.7128 38.6695 15.4314 38.7726 15.4079 38.7961C15.3376 38.857 15.7034 40.292 15.7925 40.292C15.8112 40.292 16.102 40.2357 16.4349 40.17C16.7725 40.1044 17.2977 40.0387 17.6119 40.0247C18.3716 39.9918 18.5264 40.0528 18.7702 40.4936C18.8874 40.6999 18.9437 40.8594 18.9437 40.9813C18.9437 41.3424 18.6155 41.877 17.8745 42.7257L17.4478 43.2134L17.7151 43.5088C17.8605 43.673 18.1043 43.9168 18.2591 44.0528C18.5029 44.2638 18.5451 44.2873 18.6248 44.2357C18.7092 44.1841 18.7139 44.1888 18.6905 44.3107C18.6764 44.3811 18.5123 45.1595 18.3294 46.0364C18.1465 46.9133 17.9965 47.6823 17.9965 47.7386C17.9918 47.9262 18.245 48.2263 18.517 48.367L18.7655 48.4983H31.5158C42.109 48.4983 44.2942 48.4889 44.4208 48.4373C44.6647 48.3342 44.8804 48.1185 44.9976 47.8652C45.1008 47.6495 45.1102 47.5698 45.1102 46.9039C45.1102 46.2802 45.068 45.8723 44.8288 44.0434C44.6741 42.8711 44.524 41.5909 44.5006 41.2064C44.463 40.5874 44.4302 40.2732 44.3364 39.5839C44.3177 39.4338 44.3271 39.4057 44.4255 39.3822C44.5662 39.3494 44.9414 39.551 45.0539 39.7199C45.1618 39.884 45.1477 40.4467 45.0258 41.0657C44.9742 41.3236 44.946 41.5487 44.9601 41.5675C45.007 41.6097 45.565 41.7738 45.7901 41.8113L45.9777 41.8441L46.1371 41.3846C46.3341 40.8078 46.517 40.4467 46.6905 40.2826C46.7983 40.1794 46.8687 40.156 47.1031 40.1466C47.2579 40.1419 47.4314 40.1607 47.483 40.1888C47.6471 40.2732 47.8675 40.6671 48.0879 41.258L48.2942 41.816L48.449 41.8019C48.6319 41.7879 49.279 41.605 49.3071 41.5581C49.3165 41.5393 49.2837 41.3002 49.2368 41.0188C49.1242 40.4139 49.1149 39.9168 49.2086 39.7386C49.2462 39.6636 49.3775 39.551 49.5041 39.4854C49.6963 39.3822 49.762 39.3682 49.9074 39.3963C50.1653 39.4573 50.4419 39.6401 50.9109 40.0528L51.3329 40.4233L51.619 40.1653C51.7784 40.0247 51.9519 39.8512 52.0035 39.7761L52.102 39.6355L51.7596 39.2369C51.3564 38.7726 51.1172 38.3975 51.0844 38.1724C51.0609 38.0505 51.0891 37.9614 51.1922 37.7832C51.4126 37.408 51.6799 37.3611 52.6412 37.5253C52.946 37.5768 53.2227 37.6097 53.2509 37.6003C53.279 37.5909 53.3493 37.4127 53.4009 37.2111C53.5791 36.5311 53.6072 36.6202 53.1242 36.4514C52.4818 36.2263 52.2239 36.0997 52.0082 35.9074C51.8206 35.7386 51.8159 35.7246 51.8159 35.4385C51.8159 35.1525 51.8206 35.1384 52.0082 34.9696C52.2239 34.7773 52.4818 34.6507 53.1242 34.4256C53.6072 34.2568 53.5791 34.3459 53.4009 33.6659C53.3493 33.4643 53.279 33.2861 53.2462 33.2767C53.218 33.2627 52.9507 33.2955 52.66 33.3517C51.694 33.5253 51.4033 33.469 51.1875 33.0891C51.0891 32.9156 51.0656 32.8172 51.0844 32.6999C51.1172 32.4795 51.3611 32.0997 51.7596 31.6355L52.102 31.2369L51.9332 31.0305C51.8394 30.918 51.6705 30.7492 51.5533 30.6554L51.3423 30.4819L51.211 30.5944C50.3247 31.3213 50.1606 31.4338 49.8652 31.4948C49.7432 31.5229 49.6682 31.4995 49.4713 31.3775C49.34 31.2978 49.2086 31.1759 49.1852 31.1149C49.1196 30.9414 49.1336 30.4115 49.218 29.9473C49.34 29.2627 49.354 29.3189 48.9742 29.197C48.7866 29.136 48.5615 29.0845 48.463 29.0751L48.2942 29.061L48.0879 29.619C47.8628 30.2146 47.6612 30.5804 47.4783 30.6976C47.4126 30.7398 47.2626 30.7726 47.1313 30.7726C46.7139 30.7726 46.4701 30.4584 46.1371 29.4924L45.9777 29.0329L45.7901 29.0657C45.565 29.1032 45.007 29.2673 44.9601 29.3095C44.946 29.3283 44.9742 29.5534 45.0258 29.8113C45.1336 30.3693 45.1571 30.9274 45.0727 31.1243C45.0351 31.2181 44.9273 31.3119 44.7632 31.401C44.5146 31.5323 44.5099 31.537 44.2989 31.4619C44.0363 31.3729 43.7409 31.1759 43.2954 30.7867C43.1078 30.6226 42.939 30.4913 42.9203 30.4913C42.8968 30.4913 42.7139 30.6601 42.5123 30.8617L42.1418 31.2322L42.4232 31.5557C42.9625 32.1747 43.1875 32.5311 43.1875 32.7703C43.1875 32.9719 42.9671 33.3049 42.7843 33.3799C42.5686 33.469 42.3294 33.4643 41.6213 33.3471C41.1196 33.2627 41.0164 33.2533 40.9789 33.3095C40.9132 33.4221 40.7444 34.102 40.7585 34.2052C40.7679 34.2802 40.8757 34.3365 41.2649 34.4725C41.8558 34.6835 42.0902 34.8008 42.2872 34.9836C42.4279 35.1149 42.4373 35.1478 42.4373 35.4385C42.4373 35.7339 42.4279 35.7621 42.2872 35.8981C42.1278 36.0434 41.6166 36.3013 41.2837 36.3998C41.0961 36.4561 41.0586 36.4467 39.1266 35.7199C38.048 35.3119 37.0633 34.9274 36.946 34.8664C36.6788 34.7257 36.4068 34.4491 36.1817 34.0974L36.0176 33.8301L36.1395 33.5862C36.2051 33.4502 36.3411 33.258 36.4349 33.1595C36.6084 32.9766 36.6131 32.9766 36.9648 32.9766C37.2931 32.9766 37.3353 32.986 37.4806 33.1126C37.6917 33.3002 37.8605 33.6237 38.1278 34.3553L38.3528 34.9696L38.5545 34.9602C38.6623 34.9555 38.939 34.8945 39.1641 34.8242C39.4736 34.7257 39.5768 34.6788 39.5768 34.6179C39.5768 34.571 39.5346 34.3271 39.4783 34.0739C39.3611 33.5159 39.3376 32.7421 39.4314 32.5217C39.5064 32.3389 39.9238 32.0856 40.1489 32.0856C40.463 32.0856 40.9929 32.4186 41.6494 33.0235L41.9683 33.3095L42.1371 33.1829C42.2309 33.1126 42.4373 32.9063 42.6014 32.7234L42.9015 32.3998L42.7045 32.17C41.9683 31.3166 41.7245 30.9508 41.6682 30.6272C41.6448 30.4819 41.6635 30.4068 41.8089 30.1724C41.9402 29.9473 42.0152 29.8723 42.1465 29.8254C42.3951 29.741 43.0281 29.7691 43.694 29.8957L44.2755 30.0083L44.3224 29.8863C44.3833 29.7316 44.5943 28.9063 44.5943 28.8265C44.5943 28.789 44.4255 28.7093 44.2098 28.6343C43.2954 28.3342 42.7374 28.034 42.6014 27.7714C42.5123 27.6026 42.517 27.19 42.6061 27.0118C42.7374 26.7585 43.2251 26.4866 44.1395 26.1724L44.599 26.0129L44.5662 25.8254C44.5287 25.5815 44.3177 24.85 44.2755 24.8125C44.2567 24.7937 43.98 24.8312 43.6565 24.8922C43.0281 25.0094 42.3575 25.0376 42.1184 24.9532C41.9074 24.8828 41.6213 24.3623 41.6682 24.1466C41.7385 23.8183 42.0011 23.4057 42.5404 22.7914C42.7186 22.5944 42.8593 22.4115 42.8593 22.3834C42.8593 22.3224 42.3763 21.8019 42.1465 21.6237L41.9636 21.4737L41.7667 21.6612C41.4103 22.0036 40.7819 22.4819 40.5428 22.5944C40.4115 22.6554 40.238 22.707 40.1536 22.707C39.9425 22.707 39.5017 22.4397 39.4267 22.2662C39.3376 22.0505 39.3611 21.3095 39.4783 20.714C39.5299 20.4279 39.5768 20.1747 39.5768 20.1419C39.5768 20.034 38.3669 19.7152 38.3341 19.8183C38.0668 20.6906 37.7573 21.3752 37.5181 21.6284C37.34 21.816 37.34 21.816 36.9836 21.816C36.6741 21.816 36.6131 21.8019 36.4912 21.6988C36.3036 21.544 36.0129 20.9672 35.7972 20.3389C35.7034 20.0528 35.6096 19.809 35.5955 19.7949C35.5815 19.7761 35.3986 19.8043 35.1922 19.8512ZM37.9261 23.8371C38.4466 23.9684 39.0516 24.3013 39.4689 24.6952C41.626 26.7023 40.7116 30.2427 37.8464 30.9649C37.5135 31.0493 37.3587 31.0587 36.8382 31.0399C36.4584 31.0258 36.1301 30.9883 35.9847 30.9414L35.7409 30.8664L35.8628 30.3834C35.9238 30.1208 35.9941 29.8863 36.0129 29.8676C36.0316 29.8441 36.1582 29.8629 36.2989 29.9004C36.6975 30.0176 37.354 29.9989 37.7807 29.8582C39.619 29.2392 40.177 26.9461 38.8265 25.5675C38.3763 25.1173 37.8183 24.8594 37.1383 24.789L36.8101 24.7562V24.2216V23.6823L37.1993 23.7152C37.4103 23.7339 37.7385 23.7902 37.9261 23.8371ZM37.5228 26.163C38.0105 26.3834 38.2731 26.7773 38.3013 27.34C38.32 27.6495 38.306 27.7105 38.1747 27.9825C37.9261 28.4842 37.5322 28.7281 36.9742 28.7234C36.735 28.7234 36.585 28.6952 36.4255 28.6155L36.2004 28.5124V27.7058C36.2004 26.8242 36.2192 26.6929 36.3411 26.6929C36.4771 26.6929 36.585 26.5335 36.735 26.1114C36.7632 26.0364 36.8007 26.027 37.0398 26.0505C37.1899 26.0598 37.4056 26.1161 37.5228 26.163ZM28.2614 29C28.2895 29.0329 28.3458 29.2204 28.388 29.4127C28.4302 29.605 28.5756 30.0927 28.7116 30.4913C28.8429 30.8898 28.9554 31.2369 28.9554 31.2603C28.9554 31.3166 28.6647 31.4197 28.4912 31.4244C28.4068 31.4291 28.2192 31.3541 28.0269 31.2369C27.6096 30.9883 27.5533 30.8711 27.5533 30.2333C27.5533 29.8347 27.6799 28.8547 27.7456 28.7468C27.769 28.7046 28.1911 28.911 28.2614 29ZM47.8769 32.442C49.2227 32.7562 50.2215 34.0317 50.2215 35.4385C50.2215 36.8453 49.2227 38.1208 47.8769 38.435C47.4877 38.5288 46.7561 38.5288 46.3997 38.4397C45.34 38.1724 44.4912 37.3564 44.1676 36.306C44.0785 36.0294 44.0598 35.8418 44.0598 35.4385C44.0598 34.5522 44.3364 33.8863 44.9648 33.2533C45.3493 32.8687 45.8605 32.578 46.3763 32.442C46.7186 32.3529 47.497 32.3482 47.8769 32.442ZM25.898 32.8078C26.6623 33.0376 27.3001 33.4174 27.8487 33.9801L28.1489 34.2849L28.0691 34.4725C27.9566 34.7163 27.694 34.9649 27.4173 35.0868L27.1922 35.1853L26.8265 34.8383C26.1606 34.2052 25.4197 33.9285 24.4818 33.9754C23.633 34.0129 23.0375 34.2802 22.4091 34.8992C22.1184 35.19 22.0105 35.34 21.837 35.6964C21.6307 36.1231 21.4759 36.6765 21.4759 37.0047C21.4759 37.1407 21.4619 37.1501 21.1383 37.2486C20.7116 37.3752 20.5521 37.4502 20.3646 37.6284L20.2192 37.7691L20.1817 37.544C20.1629 37.4221 20.1629 37.1173 20.177 36.8734C20.313 34.7961 21.7432 33.1454 23.7737 32.714C23.98 32.6718 24.3083 32.6577 24.7819 32.6671C25.3775 32.6812 25.551 32.6999 25.898 32.8078ZM25.2462 35.5886C25.3681 35.6355 25.4759 35.6917 25.4806 35.7152C25.4806 35.7339 25.2321 35.8418 24.9226 35.9543C24.6131 36.0622 24.0879 36.2498 23.755 36.3717C23.4267 36.4936 23.1407 36.578 23.1266 36.5639C23.0797 36.5217 23.2438 36.2263 23.4267 36.0247C23.8863 35.5182 24.599 35.3447 25.2462 35.5886Z" fill="#1476F2"/>
<path d="M46.5638 33.3236C45.6025 33.5909 44.9507 34.4491 44.9507 35.4385C44.9507 37.3471 47.2156 38.3318 48.6224 37.0282C49.2039 36.4936 49.4524 35.6683 49.2602 34.9227C49.0492 34.1302 48.4067 33.4831 47.6377 33.3096C47.361 33.2439 46.8217 33.2533 46.5638 33.3236ZM47.6095 34.4162C47.8252 34.5053 48.1394 34.8523 48.2051 35.0821C48.2707 35.3213 48.2614 35.673 48.1863 35.8559C48.0128 36.2732 47.5814 36.5546 47.1265 36.5546C46.0245 36.5499 45.5931 35.1478 46.4935 34.5147C46.8077 34.2943 47.2016 34.2615 47.6095 34.4162Z" fill="#1476F2"/>
<path d="M52.4349 39.1759L52.0879 39.2744L52.116 39.4198C52.2848 40.2498 52.2661 40.5218 52.0222 40.6625C51.9331 40.7187 51.8253 40.7609 51.7877 40.7609C51.6658 40.7609 51.4267 40.6156 51.0703 40.3248L50.7186 40.0435L50.47 40.3108L50.2215 40.5781L50.4794 40.8782C50.7373 41.183 50.9249 41.4972 50.9249 41.6238C50.9249 41.6613 50.8827 41.7691 50.8264 41.8582C50.7514 41.9849 50.6858 42.0318 50.5591 42.0552C50.4044 42.0833 49.7995 42.0224 49.5369 41.952C49.4478 41.9286 49.429 41.9567 49.354 42.2475C49.3071 42.421 49.2696 42.5851 49.2649 42.6085C49.2602 42.6273 49.3962 42.6929 49.565 42.7539C49.9402 42.8805 50.1652 42.9931 50.3059 43.1197C50.4466 43.251 50.4513 43.5792 50.3106 43.7199C50.2074 43.8231 49.776 44.0341 49.4618 44.1326C49.2555 44.1982 49.2414 44.2639 49.3587 44.6484L49.429 44.8969L49.6025 44.8688C49.9683 44.8125 50.4982 44.7844 50.6107 44.8125C50.6764 44.8266 50.7749 44.9157 50.8358 45.0095C50.9249 45.1548 50.9296 45.1971 50.8874 45.3471C50.8593 45.4456 50.6998 45.6894 50.531 45.8958L50.2262 46.2709L50.4794 46.5241L50.7326 46.7774L51.0515 46.5194C51.5814 46.088 51.7596 46.0318 52.0363 46.2006C52.2426 46.3225 52.2754 46.5288 52.177 47.0915C52.1348 47.3354 52.116 47.5511 52.1348 47.5699C52.191 47.6214 52.7538 47.7527 52.8006 47.7246C52.8288 47.7105 52.8475 47.673 52.8475 47.6496C52.8475 47.5323 53.1477 46.8571 53.2508 46.7492C53.3446 46.6461 53.4103 46.6226 53.5978 46.6226C53.8135 46.6226 53.8417 46.6367 53.9636 46.8008C54.0339 46.8993 54.1512 47.1525 54.2262 47.3682L54.3575 47.748L54.531 47.7199C54.6248 47.7012 54.7749 47.6636 54.8639 47.6308C55.0468 47.5652 55.0421 47.6074 54.9812 46.8993C54.9343 46.4022 54.9624 46.2944 55.15 46.1865C55.4314 46.0318 55.6189 46.0927 56.1113 46.5101C56.3552 46.7164 56.4302 46.7586 56.4958 46.7211C56.5896 46.6695 56.9273 46.3131 56.9273 46.2662C56.9273 46.2522 56.8428 46.1443 56.7397 46.0271C56.4536 45.6988 56.2707 45.4034 56.2707 45.258C56.2707 45.0751 56.4161 44.8454 56.5474 44.8078C56.6084 44.7938 56.8382 44.7985 57.0632 44.8172C57.7995 44.8782 57.7338 44.8969 57.8229 44.6062C57.9542 44.2029 57.9542 44.2123 57.5275 44.0622C57.3165 43.9872 57.0632 43.87 56.9648 43.7996C56.8006 43.6777 56.7866 43.6496 56.7866 43.4432C56.7866 43.3213 56.8053 43.1994 56.8241 43.1759C56.8944 43.0728 57.1523 42.9274 57.49 42.8008C57.6822 42.7258 57.8604 42.6507 57.8792 42.6367C57.9167 42.6038 57.7901 42.0318 57.7338 41.9708C57.7151 41.952 57.4994 41.9708 57.2555 42.013C56.6928 42.1115 56.4865 42.0786 56.3645 41.8723C56.1957 41.5956 56.252 41.4174 56.6834 40.8876L56.9413 40.5687L56.6928 40.3155L56.4443 40.0622L56.1348 40.3201C55.5767 40.7844 55.3188 40.8454 55.0656 40.5921C54.9484 40.4749 54.9484 40.4561 54.9765 40.0435C54.9906 39.8043 55.0187 39.5323 55.0328 39.4386L55.0609 39.265L54.8124 39.1947C54.4044 39.0728 54.3669 39.0822 54.2731 39.3635C54.1559 39.734 53.9402 40.142 53.837 40.1982C53.7854 40.2217 53.6635 40.2451 53.5603 40.2451C53.293 40.2451 53.1477 40.0575 52.8944 39.3635C52.8382 39.2041 52.7866 39.0728 52.7819 39.0775C52.7819 39.0775 52.6224 39.1244 52.4349 39.1759ZM54.2872 41.469C54.7326 41.6191 55.2156 42.0318 55.4173 42.435C55.7877 43.1572 55.7221 44.0575 55.2485 44.6765C54.5169 45.6378 53.082 45.7785 52.2051 44.9673C51.6377 44.4468 51.4032 43.7387 51.5533 43.0212C51.6424 42.5945 51.8206 42.2568 52.1207 41.952C52.6693 41.394 53.5228 41.2064 54.2872 41.469Z" fill="#1476F2"/>
<path d="M53.2415 41.9754C53.0164 42.0317 52.6178 42.2661 52.4912 42.4162C52.4255 42.4959 52.3177 42.6647 52.2473 42.796C52.0832 43.1196 52.0691 43.6729 52.2239 44.0059C52.3739 44.3341 52.6647 44.6202 52.9929 44.7702C53.2508 44.8828 53.3212 44.8968 53.6635 44.8781C54.4747 44.8312 54.9953 44.3107 55.0422 43.4994C55.0609 43.1571 55.0468 43.0868 54.9343 42.8288C54.7842 42.5006 54.4935 42.2052 54.1699 42.0645C53.9355 41.9613 53.4712 41.9144 53.2415 41.9754ZM53.973 42.7866C54.1981 42.9414 54.3106 43.1149 54.3341 43.3447C54.381 43.8042 53.9683 44.2169 53.5087 44.17C53.2743 44.1465 53.1055 44.034 52.9507 43.8042C52.81 43.5979 52.8194 43.1993 52.9789 42.9789C53.1899 42.6835 53.6776 42.5897 53.973 42.7866Z" fill="#1476F2"/>
<circle cx="33" cy="33" r="32.5" stroke="#2D7EFF"/>
</svg>
