<svg width="66" height="66" viewBox="0 0 66 66" fill="none" xmlns="http://www.w3.org/2000/svg">
<path d="M26.4375 14.4063C26.3828 14.5508 26.3203 14.7032 26.2734 14.8672C26 15.7211 25.875 16.7336 26.2344 17.468C26.2734 17.5477 26.2969 17.568 26.3281 17.6297C26.7109 17.3118 27.3437 16.9149 28.2656 16.943C29.0312 16.9657 29.6641 17.4133 30.0312 17.9688C30.3984 18.5243 30.5703 19.1844 30.6016 19.8438C30.6328 20.5024 30.5312 21.1641 30.25 21.7422C29.9688 22.3204 29.4453 22.8516 28.7266 22.9532C27.5469 23.125 26.6953 22.4766 26.2656 22.1954C26.1953 22.1563 26.1641 22.1485 26.125 22.125C26.1016 22.1641 26.0938 22.1641 26.0547 22.2579C26.0156 22.336 25.9844 22.8985 26.1484 23.6329C26.2109 23.8985 26.2812 24.1875 26.375 24.4844C27.9844 24.4454 29.5625 24.5704 30.6953 25.0079C31.2734 25.2266 31.6797 25.4219 31.9609 25.8282C32.2422 26.2344 32.1719 26.7735 32.0547 27.0782C31.8281 27.6875 31.5469 28.0313 31.6328 28.8125C31.6719 29.1094 31.7578 29.2032 31.9453 29.3047C32.1328 29.4063 32.4531 29.461 32.7969 29.4063C33.4844 29.3125 34.1172 28.8438 34.1875 28.3594C34.2891 27.6641 34.1406 27.6797 33.8828 27.3594C33.8203 27.2735 33.7266 27.1719 33.6562 26.9766C33.5859 26.7735 33.6016 26.4454 33.7188 26.2344C33.9453 25.8125 34.2266 25.6954 34.6641 25.461C35.3516 25.086 36.1172 25.1641 36.9531 25.2969C37.5391 25.3907 38.1719 25.5391 38.8125 25.7032C38.6328 24.9922 38.4688 24.2891 38.3672 23.6329C38.2344 22.75 38.1797 21.9375 38.5781 21.2188C38.7188 20.9766 38.8281 20.7907 38.9688 20.6282C39.1016 20.4657 39.2656 20.2868 39.5859 20.2188C39.9062 20.15 40.2422 20.3204 40.3828 20.454C40.5312 20.5875 40.5938 20.6961 40.6562 20.7907C40.7812 20.9766 40.8828 21.1172 40.9766 21.1797C41.0703 21.25 41.1406 21.3047 41.4297 21.2579C41.625 21.2344 41.8125 21.1016 41.9844 20.8204C42.1641 20.5422 42.2891 20.1274 42.3125 19.725C42.3281 19.3227 42.25 18.9422 42.1094 18.7157C41.9766 18.4899 41.8594 18.3922 41.5547 18.375C41.1484 18.3516 40.9844 18.4282 40.8906 18.4883C40.7969 18.5477 40.7578 18.6055 40.6797 18.7391C40.6328 18.8055 40.625 18.9024 40.375 19.0758C40.25 19.1625 39.9922 19.2422 39.7812 19.1969C39.5625 19.1508 39.4453 19.043 39.3672 18.9649C39.0625 18.6547 39.0234 18.45 38.7812 17.9446C38.1953 16.725 38.2578 15.4102 38.4688 14.4055L26.4375 14.4063ZM39.9609 14.4063C39.7578 15.2555 39.6172 16.436 40.0469 17.3352C40.0547 17.3454 40.0547 17.3485 40.0625 17.3586C40.0859 17.3422 40.1016 17.3243 40.125 17.3086C40.4922 17.0735 41 16.9344 41.6328 16.9711C42.375 17.0133 42.9922 17.4493 43.3203 17.9977C43.6484 18.5454 43.75 19.1805 43.7109 19.8024C43.6797 20.4243 43.5078 21.0391 43.1797 21.5704C42.8516 22.0938 42.3203 22.5547 41.6328 22.6485C41.0391 22.7344 40.5 22.5782 40.1406 22.3204C39.9922 22.211 39.8828 22.0938 39.7812 21.9766C39.7031 22.2032 39.6562 22.7266 39.7578 23.4297C39.875 24.1954 40.1172 25.1329 40.3672 26.086C40.3672 26.0938 40.3672 26.1016 40.375 26.1016C41.0547 26.2813 41.7188 26.4375 42.3125 26.5313C43.1094 26.6563 43.7656 26.6485 44.0781 26.5313C44.2344 26.4766 44.2891 26.4375 44.3516 26.3985C44.3516 26.3907 44.3516 26.3907 44.3438 26.3829C44.0391 25.9532 43.2422 25.0625 43.3359 23.7344C43.3906 22.9766 43.9141 22.3594 44.5156 22.1094C44.8203 21.9844 45.1406 21.9219 45.4609 21.9063C45.7891 21.8907 46.1172 21.9141 46.4453 21.9766C47.0938 22.0938 47.7344 22.3516 48.2734 22.7344C48.8125 23.1172 49.2734 23.6485 49.375 24.3594C49.5312 25.4375 48.9609 26.1875 48.6484 26.5625L48.6641 26.5782C49.125 26.7969 50.1641 26.6875 51.0547 26.3985C51.2422 26.3438 51.4219 26.2735 51.5938 26.211V14.4063H39.9609ZM45.6875 23.3125C45.4297 23.3125 45.2031 23.3516 45.0547 23.4063C44.8203 23.5079 44.7578 23.5547 44.7422 23.8282C44.6875 24.5782 45.0938 25.0079 45.4922 25.5704C45.5938 25.711 45.6953 25.8594 45.7734 26.0547C45.8594 26.2579 45.9062 26.5547 45.8203 26.836C45.6328 27.4063 45.1562 27.6329 44.5625 27.8516C43.8125 28.1329 42.9844 28.0625 42.0859 27.9219C41.6562 27.8516 41.2109 27.7579 40.7578 27.6485C40.8594 28.086 40.9531 28.5235 41.0156 28.9454C41.1562 29.8516 41.2109 30.6954 40.8672 31.4454C40.625 31.9844 40.5469 32.2891 40.1016 32.5782C39.8828 32.7188 39.4688 32.7422 39.2422 32.6407C39.0234 32.5391 38.9375 32.4297 38.8516 32.3438C38.5234 32.0079 38.4531 31.7657 37.6484 31.8125C37.3594 31.8282 37.2734 31.9063 37.1562 32.1407C37.0391 32.3672 36.9766 32.7657 37.0156 33.1797C37.0625 33.6016 37.2031 34.0235 37.3828 34.2891C37.5547 34.5625 37.6953 34.625 37.7969 34.625C38.3438 34.6329 38.6406 34.3672 39.1562 34.1016C39.4141 33.961 39.8438 33.7969 40.2969 33.9766C40.7422 34.1563 40.9766 34.5235 41.2031 34.9844C41.5859 35.7735 41.75 36.8829 41.8047 38.1172C41.875 38.1094 41.9531 38.0938 42.0234 38.0782C42.8984 37.9297 43.7109 37.8594 44.4609 38.1329C44.7578 38.2422 44.9844 38.3438 45.1953 38.4844C45.3984 38.625 45.625 38.8438 45.6953 39.1641C45.7656 39.4922 45.6406 39.7813 45.5312 39.9532C45.4219 40.1329 45.3047 40.2422 45.1953 40.3594C44.75 40.8047 44.3828 41.0782 44.4688 41.6954C44.5 41.9141 44.6406 42.1172 44.9766 42.3125C45.3047 42.5157 45.7969 42.6641 46.2891 42.7032C46.7812 42.7422 47.2656 42.6719 47.5781 42.5391C47.8828 42.4063 47.9688 42.2969 47.9922 42.1329C48.0781 41.5625 47.7578 41.2344 47.3594 40.7032C47.1641 40.4375 46.8828 40.0938 46.9297 39.5547C46.9766 39.0157 47.3906 38.625 47.9062 38.3282C49.0703 37.6719 50.4297 37.9454 51.4766 38.2813C51.5156 38.2969 51.5547 38.3047 51.5938 38.3204V27.7032C51.5547 27.7188 51.5234 27.7266 51.4844 27.7422C50.4609 28.0704 49.1797 28.3907 48.0469 27.836C47.8203 27.7266 47.6328 27.6172 47.4609 27.4688C47.2891 27.3125 47.125 27.0938 47.0781 26.8125C47.0391 26.5313 47.1328 26.2813 47.2188 26.125C47.3125 25.9688 47.4062 25.8594 47.4844 25.7579C47.8281 25.3672 48.0781 25.1875 47.9844 24.5625C47.9609 24.375 47.7969 24.1172 47.4609 23.875C47.125 23.6407 46.6484 23.4454 46.1875 23.3594C46.0156 23.3282 45.8438 23.3125 45.6875 23.3125ZM26.8516 25.8907H26.8047L26.9062 26.211C27.1953 27.1485 27.4922 28.1094 27.6562 29C27.8125 29.8907 27.8828 30.7266 27.5 31.4766C27.3672 31.7422 27.2422 31.9454 27.0859 32.1329C26.9297 32.3125 26.6875 32.5157 26.3359 32.5313C25.9922 32.5469 25.7344 32.3594 25.5938 32.2188C25.4609 32.086 25.375 31.9688 25.2969 31.8516C25.125 31.6172 24.9766 31.4141 24.8125 31.2969C24.6562 31.1719 24.5156 31.1016 24.1719 31.1407C23.9297 31.1719 23.7422 31.3047 23.5469 31.625C23.3594 31.9532 23.2266 32.4375 23.1953 32.9297C23.1719 33.4219 23.2578 33.9141 23.4062 34.2344C23.5547 34.5547 23.6953 34.6641 23.8828 34.6875C24.5078 34.7813 24.8594 34.461 25.3984 34.086C25.6641 33.8985 25.9922 33.6407 26.5234 33.6797C27.0547 33.7188 27.4531 34.1329 27.7266 34.625C28.1094 35.3282 28.0156 36.1016 27.875 36.961C27.7266 37.8125 27.4687 38.7657 27.2109 39.7188C27.1953 39.7735 27.1797 39.8204 27.1641 39.875C28.5312 39.7969 29.8125 39.5625 30.4297 39.2579C30.4375 39.2579 30.4375 39.2579 30.4375 39.25C30.2109 38.8985 30.0781 38.4063 30.1094 37.7891C30.1406 37.0391 30.5625 36.4219 31.0859 36.0625C31.6094 35.7032 32.2266 35.5547 32.8359 35.5313C33.4453 35.5079 34.0469 35.6094 34.5625 35.8907C35.0859 36.1719 35.5547 36.711 35.5703 37.3985C35.5859 38.2032 35.2734 38.7813 35.1094 39.0469C35.1875 39.1094 35.2969 39.1875 35.4688 39.2813C35.6172 39.3672 36.1406 39.4297 36.8438 39.3125C37.5469 39.2032 38.4219 38.9688 39.3203 38.7266C39.6797 38.6329 40.0391 38.5313 40.3984 38.4375C40.3438 37.1641 40.1484 36.0313 39.9375 35.6016C39.875 35.461 39.8281 35.4063 39.7891 35.3594C39.4922 35.5157 38.7969 36.0469 37.7734 36.0313C37.0781 36.0235 36.5391 35.5704 36.2031 35.0625C35.875 34.5547 35.6797 33.9454 35.6172 33.3282C35.5547 32.7032 35.6094 32.0625 35.9062 31.4922C36.2031 30.9219 36.8203 30.4532 37.5703 30.4063C38.4766 30.3594 39.1094 30.7344 39.4922 31.0391C39.5234 30.9688 39.5547 30.9454 39.5938 30.8594C39.7109 30.5938 39.75 29.9532 39.625 29.1563C39.5391 28.586 39.3906 27.9297 39.2188 27.2579C38.3125 27.0235 37.4453 26.7969 36.7344 26.6875C36.0078 26.5704 35.4609 26.6329 35.3359 26.6954C35.2656 26.7344 35.25 26.7579 35.1953 26.7891C35.4219 27.1485 35.6953 27.7579 35.5781 28.5625C35.3828 29.8907 34.1484 30.6407 32.9922 30.8047C32.4141 30.8829 31.8047 30.8282 31.2734 30.5391C30.7422 30.25 30.3125 29.6719 30.2344 28.9688C30.1016 27.7579 30.625 26.8907 30.7344 26.586C30.6797 26.5469 30.5391 26.4532 30.1953 26.3204C29.5 26.0547 28.2109 25.8985 26.8516 25.8907ZM25.3438 25.9532C23.875 26.0704 22.5156 26.3829 21.9844 26.6719C21.8438 26.75 21.7813 26.8047 21.7344 26.8516C21.9375 27.1563 22.5703 27.8907 22.4766 28.9766C22.4219 29.6563 21.9219 30.1797 21.3828 30.4141C20.8438 30.6563 20.243 30.7032 19.6422 30.6329C19.0422 30.5547 18.4391 30.3516 17.9281 29.9922C17.4172 29.625 16.9922 29.0547 16.9039 28.3438C16.8258 27.7188 16.9688 27.1797 17.2133 26.8047C17.3039 26.6641 17.4031 26.5547 17.5 26.461C17.4883 26.4532 17.4875 26.4532 17.475 26.4454C16.757 26.0782 15.7219 26.1563 14.8484 26.3985C14.6914 26.4375 14.5461 26.4844 14.4062 26.5313V39.5235C14.5445 39.5704 14.6891 39.6172 14.8445 39.6563C15.7148 39.8985 16.75 39.9844 17.4813 39.6172C17.6258 39.5469 17.682 39.5 17.7594 39.4454C17.4719 39.086 16.9539 38.3516 17.0711 37.2579C17.15 36.5313 17.6039 35.9532 18.1492 35.625C18.6945 35.2969 19.3258 35.1719 19.9484 35.1719C20.5703 35.1719 21.1875 35.3047 21.7266 35.6094C22.2578 35.9063 22.7344 36.4297 22.8281 37.1172C22.9609 38.1329 22.4219 38.836 22.1328 39.1797C22.1797 39.211 22.1875 39.2266 22.2734 39.2735C22.7734 39.5547 24.1953 39.8282 25.7031 39.8829C25.7578 39.7032 25.8047 39.5313 25.8516 39.3516C26.1094 38.3985 26.3594 37.4688 26.4844 36.7266C26.6094 35.9766 26.5547 35.4141 26.4922 35.3047C26.4297 35.1875 26.4062 35.1641 26.3828 35.1329C26.3438 35.1563 26.2891 35.1797 26.2031 35.2422C25.7578 35.5469 24.8984 36.2579 23.6797 36.0782C22.9453 35.9766 22.4141 35.4219 22.1328 34.8282C21.8516 34.2266 21.7578 33.5391 21.7969 32.8594C21.8281 32.1797 21.9922 31.4922 22.3359 30.9141C22.6797 30.3282 23.2656 29.8282 24.0234 29.7422C24.6875 29.6719 25.2656 29.875 25.6562 30.1719C25.9375 30.375 26.1172 30.6016 26.2656 30.7969C26.3672 30.5547 26.4062 29.9922 26.2656 29.25C26.1328 28.4844 25.8516 27.5625 25.5625 26.6329C25.4922 26.4063 25.4141 26.1797 25.3438 25.9532ZM19.9414 36.5782C19.5305 36.5782 19.1281 36.6719 18.8719 36.8282C18.6156 36.9844 18.4992 37.1329 18.4695 37.4063C18.3891 38.1641 18.6539 38.3125 18.9922 38.7422C19.0773 38.8516 19.1766 38.9766 19.2531 39.1797C19.3305 39.3829 19.343 39.7032 19.232 39.9532C19.0117 40.4454 18.6445 40.6094 18.1094 40.8829C16.8734 41.4922 15.5086 41.2969 14.4703 41.0157C14.4484 41.0079 14.4281 41 14.4062 40.9922V51.5938H25.0547C24.8516 50.6797 24.8125 49.5313 25.4062 48.4844C25.6641 48.0313 25.7812 47.7735 26.1172 47.5313C26.2812 47.4063 26.6016 47.3047 26.8516 47.3672C27.1016 47.4219 27.2266 47.5391 27.3047 47.6094C27.4609 47.75 27.5078 47.8047 27.5938 47.8438C27.6797 47.8829 27.7969 47.9297 28.1094 47.8907C28.2344 47.875 28.4297 47.7579 28.6172 47.4219C28.8125 47.0938 28.9609 46.6016 29 46.1172C29.0391 45.6407 28.9609 45.1719 28.8281 44.8985C28.6953 44.625 28.6016 44.5391 28.3281 44.5235C27.9688 44.5 27.8125 44.586 27.6562 44.711C27.5 44.836 27.3672 45.0391 27.2422 45.2579C27.1719 45.3594 27.1172 45.4688 27 45.6094C26.9453 45.6797 26.8672 45.7657 26.7188 45.8438C26.5781 45.9297 26.3281 45.9766 26.125 45.9219C25.7109 45.8204 25.6094 45.5704 25.5078 45.3907C25.4063 45.2032 25.3203 45 25.2109 44.7188C24.9297 43.961 25.0078 43.1172 25.1641 42.2032C25.2188 41.9063 25.2813 41.5938 25.3516 41.2813C23.8672 41.2266 22.5078 41.0157 21.5859 40.5079C21.1172 40.2422 20.7484 40.0157 20.6156 39.5C20.55 39.2422 20.6078 38.961 20.6938 38.7891C20.7781 38.6094 20.875 38.5 20.9531 38.3985C21.2891 38 21.5078 37.8829 21.4297 37.2969C21.4062 37.1329 21.3125 36.9844 21.0391 36.836C20.6703 36.6719 20.2789 36.5782 19.9414 36.5782ZM49.5312 39.3594C49.1641 39.3594 48.8359 39.4219 48.5938 39.5547C48.4609 39.6329 48.4219 39.6719 48.3828 39.6954C48.4062 39.7344 48.4219 39.7813 48.4844 39.8672C48.8047 40.2891 49.5625 41.125 49.3828 42.336C49.2812 43.0625 48.7188 43.586 48.125 43.836C47.5234 44.086 46.8516 44.1563 46.1719 44.1016C45.5 44.0469 44.8281 43.8672 44.25 43.5235C43.6797 43.1797 43.1719 42.6172 43.0781 41.8829C42.9141 40.6954 43.6484 39.9141 44.0703 39.4922C44.0312 39.4766 44.0312 39.4766 43.9766 39.4532C43.6719 39.3438 43.0312 39.336 42.2578 39.4688C42.1172 39.4922 41.9688 39.5157 41.8203 39.5469C41.7891 41.2422 41.5859 42.9532 41.125 44.1329C40.8984 44.7188 40.7031 45.1407 40.2344 45.3907C39.9922 45.5157 39.7031 45.5469 39.4766 45.5079C39.2578 45.461 39.0938 45.3829 38.9453 45.3047C38.3594 44.9922 37.9688 44.6407 37.1484 44.6719C36.8594 44.6797 36.8359 44.7266 36.7422 44.9454C36.6562 45.1641 36.6172 45.586 36.7031 46.0235C36.7812 46.461 36.9688 46.9141 37.1875 47.211C37.3984 47.5079 37.5938 47.5938 37.6797 47.6016C38.2031 47.6094 38.2344 47.4297 38.625 47.1016C38.7188 47.0157 38.8438 46.9063 39.0625 46.836C39.2812 46.7657 39.5938 46.7969 39.8047 46.9063C40.2344 47.1329 40.3906 47.4375 40.6641 47.9219C41.3125 49.0704 41.1484 50.4141 40.9141 51.461C40.9062 51.5079 40.8906 51.5469 40.8828 51.5938H51.5938V39.8125C51.4219 39.75 51.2422 39.6797 51.0547 39.625C50.5547 39.461 50.0078 39.3672 49.5312 39.3594Z" fill="#2D7EFF"/>
<circle cx="33" cy="33" r="32.5" stroke="#2D7EFF"/>
</svg>
