<svg width="66" height="66" viewBox="0 0 66 66" fill="none" xmlns="http://www.w3.org/2000/svg">
<g clip-path="url(#clip0_106_32)">
<path d="M42.4825 41.7675L46.9575 46.25L42.48 50.7337L44.25 52.5L50.5 46.25L44.25 40L42.4825 41.7675ZM38.5175 41.7675L34.0425 46.25L38.52 50.7337L36.75 52.5L30.5 46.25L36.75 40L38.5175 41.7675ZM40.5 22.5H43V32.5H40.5V22.5ZM35.5 22.5H38V32.5H35.5V22.5ZM30.5 32.5H28C26.6213 32.5 25.5 31.3787 25.5 30V25C25.5 23.6212 26.6213 22.5 28 22.5H30.5C31.8787 22.5 33 23.6212 33 25V30C33 31.3787 31.8787 32.5 30.5 32.5ZM28 25V30H30.5V25H28ZM20.5 22.5H23V32.5H20.5V22.5Z" fill="#2D7EFF"/>
<path d="M25.5 50H18C16.6212 50 15.5 48.8787 15.5 47.5V20C15.5 18.6212 16.6212 17.5 18 17.5H45.5C46.8787 17.5 48 18.6212 48 20V35H45.5V20H18V47.5H25.5V50Z" fill="#2D7EFF"/>
</g>
<circle cx="33" cy="33" r="32.5" stroke="#2D7EFF"/>
<defs>
<clipPath id="clip0_106_32">
<rect width="37" height="37" fill="white" transform="translate(16 15)"/>
</clipPath>
</defs>
</svg>
