<svg width="66" height="66" viewBox="0 0 66 66" fill="none" xmlns="http://www.w3.org/2000/svg">
<g clip-path="url(#clip0_99_2)">
<path fill-rule="evenodd" clip-rule="evenodd" d="M14.0872 16H51.9128C52.2009 16.0009 52.4769 16.1157 52.6806 16.3194C52.8843 16.5231 52.9991 16.7991 53 17.0872V42.1523C52.9991 42.4404 52.8843 42.7165 52.6806 42.9202C52.4769 43.1239 52.2009 43.2387 51.9128 43.2396H14.0872C13.944 43.2392 13.8023 43.2105 13.6702 43.1553C13.538 43.1001 13.4181 43.0194 13.3171 42.9179C13.2161 42.8163 13.1362 42.6959 13.0818 42.5634C13.0274 42.4309 12.9996 42.289 13 42.1458V17.0807C13.0026 16.7938 13.1182 16.5194 13.3217 16.3171C13.5252 16.1148 13.8003 16.0008 14.0872 16ZM17.3913 36.804C17.2764 36.8112 17.1612 36.7947 17.0529 36.7557C16.9446 36.7166 16.8455 36.6558 16.7616 36.577C16.6777 36.4981 16.6108 36.4029 16.5651 36.2973C16.5194 36.1916 16.4958 36.0777 16.4958 35.9626C16.4958 35.8474 16.5194 35.7335 16.5651 35.6279C16.6108 35.5222 16.6777 35.427 16.7616 35.3482C16.8455 35.2693 16.9446 35.2085 17.0529 35.1695C17.1612 35.1304 17.2764 35.1139 17.3913 35.1211H30.2331C30.348 35.1139 30.4631 35.1304 30.5714 35.1695C30.6797 35.2085 30.7789 35.2693 30.8628 35.3482C30.9467 35.427 31.0136 35.5222 31.0593 35.6279C31.105 35.7335 31.1285 35.8474 31.1285 35.9626C31.1285 36.0777 31.105 36.1916 31.0593 36.2973C31.0136 36.4029 30.9467 36.4981 30.8628 36.577C30.7789 36.6558 30.6797 36.7166 30.5714 36.7557C30.4631 36.7947 30.348 36.8112 30.2331 36.804H17.3913ZM17.4401 32.4811C17.226 32.4678 17.025 32.3733 16.8781 32.217C16.7312 32.0607 16.6494 31.8542 16.6494 31.6396C16.6494 31.4251 16.7312 31.2186 16.8781 31.0623C17.025 30.906 17.226 30.8115 17.4401 30.7982H26.8021C27.0162 30.8115 27.2172 30.906 27.3641 31.0623C27.511 31.2186 27.5928 31.4251 27.5928 31.6396C27.5928 31.8542 27.511 32.0607 27.3641 32.217C27.2172 32.3733 27.0162 32.4678 26.8021 32.4811H17.4401ZM17.3913 28.1745C17.2764 28.1816 17.1612 28.1652 17.0529 28.1261C16.9446 28.0871 16.8455 28.0262 16.7616 27.9474C16.6777 27.8686 16.6108 27.7734 16.5651 27.6677C16.5194 27.562 16.4958 27.4481 16.4958 27.333C16.4958 27.2179 16.5194 27.104 16.5651 26.9983C16.6108 26.8926 16.6777 26.7975 16.7616 26.7186C16.8455 26.6398 16.9446 26.579 17.0529 26.5399C17.1612 26.5008 17.2764 26.4844 17.3913 26.4915H24.0189C24.233 26.5049 24.434 26.5993 24.5809 26.7557C24.7278 26.912 24.8096 27.1185 24.8096 27.333C24.8096 27.5475 24.7278 27.754 24.5809 27.9104C24.434 28.0667 24.233 28.1612 24.0189 28.1745H17.3913ZM17.3913 23.8581C17.2764 23.8652 17.1612 23.8488 17.0529 23.8097C16.9446 23.7707 16.8455 23.7098 16.7616 23.631C16.6777 23.5522 16.6108 23.457 16.5651 23.3513C16.5194 23.2456 16.4958 23.1317 16.4958 23.0166C16.4958 22.9015 16.5194 22.7876 16.5651 22.6819C16.6108 22.5762 16.6777 22.481 16.7616 22.4022C16.8455 22.3234 16.9446 22.2625 17.0529 22.2235C17.1612 22.1844 17.2764 22.168 17.3913 22.1751H21.2357C21.4498 22.1885 21.6508 22.2829 21.7977 22.4392C21.9446 22.5956 22.0264 22.8021 22.0264 23.0166C22.0264 23.2311 21.9446 23.4376 21.7977 23.594C21.6508 23.7503 21.4498 23.8447 21.2357 23.8581H17.3913ZM48.9668 32.3835V34.4798L44.6602 36.9212V34.4798L47.4336 33.4251L44.6602 32.3835V29.9421L48.9668 32.3835ZM41.5059 37.5918H39.6927L41.9714 28.7669H43.804L41.5254 37.5918H41.5059ZM38.4427 32.3835L35.666 33.4251L38.4427 34.4798V36.9212L34.1589 34.4798V32.3835L38.4688 29.9421V32.3835H38.4427ZM40.2884 19.7923V20.987C40.2884 21.145 40.2257 21.2965 40.1139 21.4082C40.0022 21.5199 39.8507 21.5827 39.6927 21.5827H38.7162C38.5942 21.984 38.419 22.3672 38.1953 22.722L38.8464 23.373C38.9573 23.4847 39.0195 23.6356 39.0195 23.793C39.0195 23.9503 38.9573 24.1013 38.8464 24.2129L37.9642 25.0951C37.8526 25.206 37.7016 25.2682 37.5443 25.2682C37.3869 25.2682 37.236 25.206 37.1244 25.0951L36.4147 24.3854C36.0454 24.5835 35.6513 24.7313 35.2428 24.8249V25.7428C35.242 25.9006 35.179 26.0516 35.0674 26.1631C34.9559 26.2747 34.8049 26.3377 34.6471 26.3385H33.3874C33.2297 26.3377 33.0786 26.2747 32.9671 26.1631C32.8556 26.0516 32.7925 25.9006 32.7917 25.7428V24.7402C32.3902 24.6202 32.0069 24.446 31.6524 24.2227L31.0013 24.8737C30.9462 24.9295 30.8806 24.9738 30.8082 25.0041C30.7358 25.0343 30.6582 25.0499 30.5798 25.0499C30.5013 25.0499 30.4237 25.0343 30.3513 25.0041C30.279 24.9738 30.2133 24.9295 30.1582 24.8737L29.276 23.9915C29.1688 23.88 29.1089 23.7312 29.1089 23.5765C29.1089 23.4218 29.1688 23.273 29.276 23.1615L29.9857 22.4551C29.7876 22.0847 29.6398 21.6895 29.5462 21.2799H28.625C28.467 21.2799 28.3155 21.2172 28.2038 21.1055C28.0921 20.9938 28.0293 20.8422 28.0293 20.6842V19.8053H14.0059V39.0599C14.0059 39.3189 14.1088 39.5673 14.2919 39.7504C14.475 39.9336 14.7234 40.0365 14.9824 40.0365H51.0371C51.2961 40.0365 51.5445 39.9336 51.7277 39.7504C51.9108 39.5673 52.0137 39.3189 52.0137 39.0599V19.7923H40.2884ZM36.571 19.7923H31.7565C31.733 19.93 31.721 20.0693 31.7207 20.209C31.7658 20.8257 32.0426 21.4025 32.4954 21.8235C32.9483 22.2445 33.5438 22.4785 34.1621 22.4785C34.7805 22.4785 35.3759 22.2445 35.8288 21.8235C36.2817 21.4025 36.5585 20.8257 36.6035 20.209C36.6043 20.0694 36.5934 19.9301 36.571 19.7923ZM50.1745 17.6016C50.3033 17.6016 50.4291 17.6397 50.5362 17.7113C50.6433 17.7828 50.7267 17.8845 50.776 18.0035C50.8252 18.1224 50.8381 18.2533 50.813 18.3796C50.7879 18.5059 50.7259 18.6219 50.6348 18.713C50.5438 18.804 50.4278 18.866 50.3015 18.8911C50.1752 18.9163 50.0443 18.9034 49.9253 18.8541C49.8064 18.8048 49.7047 18.7214 49.6332 18.6143C49.5616 18.5072 49.5234 18.3814 49.5234 18.2526C49.5234 18.0799 49.592 17.9143 49.7141 17.7922C49.8362 17.6702 50.0018 17.6016 50.1745 17.6016ZM45.7995 17.6016C45.9283 17.6016 46.0541 17.6397 46.1612 17.7113C46.2682 17.7828 46.3517 17.8845 46.401 18.0035C46.4502 18.1224 46.4631 18.2533 46.438 18.3796C46.4129 18.5059 46.3509 18.6219 46.2598 18.713C46.1688 18.804 46.0528 18.866 45.9265 18.8911C45.8002 18.9163 45.6693 18.9034 45.5503 18.8541C45.4314 18.8048 45.3297 18.7214 45.2582 18.6143C45.1866 18.5072 45.1484 18.3814 45.1484 18.2526C45.1484 18.0799 45.217 17.9143 45.3391 17.7922C45.4612 17.6702 45.6268 17.6016 45.7995 17.6016ZM47.987 17.6016C48.1158 17.6016 48.2416 17.6397 48.3487 17.7113C48.4557 17.7828 48.5392 17.8845 48.5885 18.0035C48.6377 18.1224 48.6506 18.2533 48.6255 18.3796C48.6004 18.5059 48.5384 18.6219 48.4473 18.713C48.3563 18.804 48.2403 18.866 48.114 18.8911C47.9877 18.9163 47.8568 18.9034 47.7378 18.8541C47.6189 18.8048 47.5172 18.7214 47.4457 18.6143C47.3741 18.5072 47.3359 18.3814 47.3359 18.2526C47.3359 18.0799 47.4045 17.9143 47.5266 17.7922C47.6487 17.6702 47.8143 17.6016 47.987 17.6016ZM28.0684 44.7337H37.9316C37.9577 46.4395 38.6608 47.9694 40.5651 49.1706H25.4349C26.9681 48.0605 28.0749 46.7161 28.0684 44.7337Z" fill="#2D7EFF"/>
</g>
<circle cx="33" cy="33" r="32" stroke="#2D7EFF" stroke-width="2"/>
<defs>
<clipPath id="clip0_99_2">
<rect width="40" height="33.1706" fill="white" transform="translate(13 16)"/>
</clipPath>
</defs>
</svg>
