<svg width="66" height="66" viewBox="0 0 66 66" fill="none" xmlns="http://www.w3.org/2000/svg">
<path d="M35.3518 19.9452C27.5224 19.9458 21.1776 26.2906 21.177 34.12C21.1776 41.9501 27.5225 48.2949 35.3518 48.2955C43.1819 48.2949 49.5268 41.95 49.5273 34.12C49.5268 26.2906 43.1819 19.9458 35.3518 19.9452ZM27.0179 25.786C27.814 24.9906 28.7235 24.3087 29.718 23.7665C29.1918 24.5724 28.7327 25.4799 28.3494 26.4732H26.3932C26.5944 26.2378 26.7989 26.0049 27.0179 25.786ZM25.0109 28.4644H27.7229C27.3483 29.9081 27.1274 31.4792 27.0588 33.1241H23.6166C23.7577 31.4456 24.2418 29.8673 25.0109 28.4644ZM25.0122 39.7763C24.2418 38.3727 23.7577 36.7944 23.6165 35.1153H27.0449C27.1134 36.7642 27.3456 38.3312 27.7215 39.7763H25.0122ZM27.0179 42.4539C26.799 42.235 26.5945 42.0028 26.394 41.7674H28.3502C28.6279 42.4876 28.9425 43.1649 29.2947 43.7888C29.4312 44.0288 29.577 44.2538 29.724 44.4774C28.7261 43.9346 27.8159 43.252 27.0179 42.4539ZM34.3566 45.8559C34.2577 45.848 34.158 45.8434 34.0591 45.8321C33.7347 45.6988 33.4121 45.5227 33.0909 45.2834C32.1274 44.5677 31.2125 43.3496 30.5043 41.7674H34.3566V45.8559ZM34.3566 39.7763H29.7906C29.3797 38.37 29.1251 36.7931 29.0499 35.1153H34.3566V39.7763ZM34.3566 33.1241H29.0354C29.1106 31.4469 29.3744 29.8706 29.784 28.4644H34.3566V33.1241ZM34.3566 26.4733H30.5095C30.6731 26.1079 30.8439 25.7564 31.0286 25.4312C31.638 24.3502 32.3523 23.508 33.0909 22.9567C33.4122 22.7178 33.7347 22.5424 34.0585 22.4092C34.1574 22.398 34.2577 22.3934 34.3566 22.3848V26.4733ZM45.6935 28.4644C46.4625 29.8673 46.9466 31.4456 47.0877 33.1241H43.6588C43.5902 31.4759 43.358 29.9095 42.9821 28.4644H45.6935ZM43.6865 25.786C43.9054 26.0049 44.1099 26.2378 44.3111 26.4733H42.3536C42.0765 25.7531 41.7612 25.0757 41.4084 24.4511C41.2725 24.2117 41.1261 23.9868 40.9804 23.7625C41.9769 24.306 42.8878 24.9886 43.6865 25.786ZM36.3471 22.3848C36.446 22.3934 36.5462 22.398 36.6452 22.4092C36.9683 22.5424 37.2916 22.7178 37.6127 22.9567C38.577 23.6722 39.4911 24.8917 40.2001 26.4733H36.3471V22.3848ZM36.3471 28.4644H40.9137C41.324 29.8706 41.5786 31.4475 41.6537 33.1241H36.3471V28.4644ZM39.6758 42.8088C39.0657 43.8898 38.3514 44.7327 37.6127 45.2834C37.2916 45.5227 36.9683 45.6988 36.6445 45.8321C36.5456 45.8434 36.446 45.8479 36.3471 45.8559V41.7674H40.1949C40.0306 42.132 39.8605 42.4843 39.6758 42.8088ZM36.3471 39.7763V35.1153H41.6682C41.5931 36.7931 41.3293 38.3701 40.9197 39.7763H36.3471ZM43.6865 42.4539C42.8904 43.2506 41.9809 43.932 40.9863 44.4735C41.5119 43.6682 41.971 42.7606 42.3542 41.7674H44.3103C44.1099 42.0028 43.9054 42.235 43.6865 42.4539ZM45.6921 39.7763H42.9808C43.356 38.3331 43.5763 36.7621 43.6449 35.1153H47.0877C46.9466 36.7944 46.4625 38.3727 45.6921 39.7763Z" fill="#2D7EFF"/>
<path d="M44.379 48.8595C41.5595 50.5861 38.4471 51.4067 35.369 51.4067C29.5505 51.406 23.8732 48.4717 20.6125 43.1472C18.8857 40.3277 18.0653 37.2153 18.0653 34.1371C18.066 28.318 21.0003 22.6427 26.3254 19.3806L25.4937 18.0225C19.6799 21.5835 16.4712 27.7871 16.4725 34.1371C16.4718 37.4982 17.3714 40.9048 19.2544 43.9788C22.8146 49.7914 29.0189 53.0007 35.369 53C38.73 53 42.1366 52.1011 45.2114 50.2181L44.379 48.8602V48.8595Z" fill="#2D7EFF"/>
<path d="M32.1083 18.4545H39.5604C40.3275 18.4545 40.9501 18.1954 40.9501 17.4271C40.9501 16.6599 39.4813 15.9167 38.7143 15.9167H37.1749L34.0421 13.0964C33.8851 12.923 33.2632 13.0364 33.0746 13.0371C32.8418 13.0385 32.8926 13.4104 32.9822 13.6267L33.8977 15.9167H31.7054L30.503 14.0067C30.2919 13.7765 29.9615 13.6987 29.6707 13.8114C29.3791 13.9242 29.1872 14.2045 29.1872 14.5165L29.1675 15.9167V16.3302C29.1674 17.5035 30.5776 18.4545 32.1083 18.4545Z" fill="#2D7EFF"/>
<circle cx="33" cy="33" r="32.5" stroke="#2D7EFF"/>
</svg>
