<svg width="66" height="66" viewBox="0 0 66 66" fill="none" xmlns="http://www.w3.org/2000/svg">
<g clip-path="url(#clip0_106_96)">
<path d="M22.6774 27.8387H21.387C20.6754 27.8387 20.0967 27.26 20.0967 26.5484H18.8064C18.8064 27.9716 19.9638 29.1291 21.387 29.1291H22.6774C24.1006 29.1291 25.258 27.9716 25.258 26.5484C25.258 25.1252 24.1006 23.9678 22.6774 23.9678H21.387C20.6754 23.9678 20.0967 23.3891 20.0967 22.6774C20.0967 21.9658 20.6754 21.3871 21.387 21.3871H22.6774C23.389 21.3871 23.9677 21.9658 23.9677 22.6774H25.258C25.258 21.2542 24.1006 20.0968 22.6774 20.0968H21.387C19.9638 20.0968 18.8064 21.2542 18.8064 22.6774C18.8064 24.1007 19.9638 25.2581 21.387 25.2581H22.6774C23.389 25.2581 23.9677 25.8368 23.9677 26.5484C23.9677 27.26 23.389 27.8387 22.6774 27.8387Z" fill="#2D7EFF"/>
<path d="M36.2258 44.6129H31.0645V42.0323H34.9355V40.7419H31.0645V38.1613H36.2258V36.871H29.7742V45.9032H36.2258V44.6129Z" fill="#2D7EFF"/>
<path d="M53 22.0323H51.0194C50.9471 21.8335 50.8671 21.6394 50.78 21.4497L52.1787 20.051L48.5297 16.4019L47.131 17.8C46.9413 17.7135 46.7471 17.6335 46.5484 17.5613V15.5806H42.8116C39.8245 13.8948 36.4374 13 33 13C29.5626 13 26.1755 13.8948 23.1884 15.5806H19.4516V17.5613C19.2529 17.6335 19.0587 17.7135 18.869 17.8006L17.4703 16.4013L13.8213 20.0503L15.22 21.449C15.1329 21.6394 15.0529 21.8335 14.9806 22.0323H13V27.1935H13.8787C13.3071 29.0755 13 31.0219 13 33C13 44.0277 21.9723 53 33 53C44.0277 53 53 44.0277 53 33C53 31.0219 52.6929 29.0755 52.1213 27.1935H53V22.0323ZM41.3871 16.2826V17.5613C41.1884 17.6335 40.9942 17.7135 40.8045 17.8006L39.4058 16.4019L37.8813 17.9258C36.7213 16.3884 35.6058 15.1968 34.7755 14.3845C37.0768 14.6052 39.3213 15.2445 41.3871 16.2826ZM33.6452 15.0897C34.4755 15.8839 35.6994 17.1613 36.9581 18.849L35.7561 20.051L37.1548 21.4497C37.0677 21.6387 36.9877 21.8335 36.9155 22.0323H34.9355V25.2084C34.5026 25.2284 34.0716 25.2419 33.6452 25.249V15.0897ZM33.6452 26.5387C34.0729 26.5323 34.5039 26.5194 34.9355 26.4994V27.1935H36.9161C36.9884 27.3923 37.0684 27.5865 37.1555 27.7761L35.7568 29.1748L39.4058 32.8239L40.8045 31.4252C40.9935 31.5123 41.1884 31.5923 41.3871 31.6645V33.6452H42.0181C41.9626 35.3645 41.6852 37.0929 41.1916 38.8064H40.0516C39.9794 38.6077 39.8994 38.4135 39.8123 38.2239L41.211 36.8252L37.5619 33.1761L36.1632 34.5748C35.9742 34.4877 35.7794 34.4077 35.5806 34.3355V32.3548H33.6452V26.5387ZM32.3548 15.0903V25.2484C31.9284 25.2413 31.4974 25.2284 31.0645 25.2077V22.0323H29.0839C29.0116 21.8335 28.9316 21.6394 28.8445 21.4497L30.2432 20.051L29.0419 18.849C30.2981 17.1652 31.5232 15.8865 32.3548 15.0903ZM26.1877 38.2239C26.1006 38.4129 26.0206 38.6077 25.9484 38.8064H24.8084C24.3148 37.0929 24.0374 35.3645 23.9819 33.6452H24.6129V31.6645C24.8116 31.5923 25.0058 31.5123 25.1955 31.4252L26.5942 32.8239L30.2432 29.1748L28.8452 27.7761C28.9323 27.5871 29.0123 27.3923 29.0845 27.1935H31.0645V26.4994C31.4961 26.5187 31.9271 26.5323 32.3548 26.5387V32.3548H30.4194V34.3355C30.2206 34.4077 30.0265 34.4877 29.8368 34.5748L28.4381 33.1761L24.789 36.8252L26.1877 38.2239ZM24.6129 16.2826C26.6787 15.2452 28.9232 14.6052 31.2245 14.3852C30.3948 15.1974 29.2787 16.389 28.1187 17.9265L26.5942 16.4019L25.1955 17.8C25.0058 17.7135 24.8116 17.6335 24.6129 17.5613V16.2826ZM14.2903 23.3226H15.9303L16.0665 22.8594C16.1942 22.4239 16.3639 22.0116 16.571 21.6329L16.8026 21.209L15.6452 20.051L17.4697 18.2265L18.6277 19.3839L19.0516 19.1523C19.4303 18.9452 19.8426 18.7755 20.2781 18.6477L20.7419 18.511V16.871H23.3226V18.511L23.7858 18.6471C24.2213 18.7748 24.6335 18.9445 25.0123 19.1516L25.4361 19.3832L26.5942 18.2258L28.4187 20.0503L27.2613 21.2084L27.4929 21.6323C27.7 22.011 27.8697 22.4232 27.9974 22.8587L28.1342 23.3226H29.7742V25.9032H28.1342L27.9981 26.3665C27.8703 26.8019 27.7006 27.2142 27.4935 27.5929L27.2619 28.0168L28.4194 29.1748L26.5948 30.9994L25.4368 29.8419L25.0129 30.0735C24.6342 30.2806 24.2219 30.4503 23.7865 30.5781L23.3226 30.7148V32.3548H20.7419V30.7148L20.2787 30.5787C19.8432 30.451 19.431 30.2813 19.0523 30.0742L18.6284 29.8426L17.4703 31L15.6458 29.1755L16.8032 28.0174L16.5716 27.5935C16.3645 27.2148 16.1948 26.8026 16.0671 26.3671L15.9303 25.9032H14.2903V23.3226ZM15.2194 27.7761L14.9729 28.0226C15.0181 27.86 15.0723 27.6994 15.1219 27.5374C15.1548 27.6168 15.1839 27.6987 15.2194 27.7761ZM14.2903 33C14.2903 31.9574 14.3794 30.9232 14.5497 29.9039L17.4703 32.8245L18.869 31.4258C19.0581 31.5129 19.2529 31.5929 19.4516 31.6652V33.6452H22.6916C22.76 35.9097 23.1871 38.1871 23.9677 40.4271V40.54C20.4574 41.5 18.4968 42.8568 17.611 43.6232C15.5194 40.6032 14.2903 36.9432 14.2903 33ZM18.3852 44.6613C19.0761 44.0516 20.789 42.7987 23.9677 41.8768V43.9677H25.5174C25.66 44.24 25.809 44.509 25.9606 44.7768L24.7884 45.9497L28.4374 49.5987L28.9316 49.1052C29.7961 50.1587 30.6 51.0039 31.2342 51.6245C26.0465 51.1361 21.4703 48.5206 18.3852 44.6613ZM29.869 48.2129C30.0484 48.2942 30.2316 48.371 30.4194 48.4387V48.8665C30.2387 48.6574 30.0555 48.4413 29.869 48.2129ZM33 51.5058C32.7277 51.2645 32.3329 50.9 31.8555 50.4194H34.1445C33.6671 50.9 33.2723 51.2645 33 51.5058ZM34.2903 47.489V49.129H31.7097V47.489L31.2465 47.3529C30.811 47.2252 30.3987 47.0555 30.02 46.8484L29.5961 46.6168L28.4381 47.7742L26.6135 45.9497L27.771 44.7916L27.5394 44.3677C27.3323 43.989 27.1626 43.5768 27.0348 43.1413L26.8981 42.6774H25.2581V40.0968H26.8981L27.0342 39.6335C27.1619 39.1981 27.3316 38.7858 27.5387 38.4071L27.7703 37.9832L26.6129 36.8252L28.4374 35.0006L29.5955 36.1581L30.0194 35.9265C30.3981 35.7194 30.8103 35.5497 31.2458 35.4219L31.7097 35.2852V33.6452H34.2903V35.2852L34.7535 35.4213C35.189 35.549 35.6013 35.7187 35.98 35.9258L36.4039 36.1574L37.5619 35L39.3864 36.8245L38.229 37.9826L38.4606 38.4065C38.6677 38.7852 38.8374 39.1974 38.9652 39.6329L39.1019 40.0968H40.7419V42.6774H39.1019L38.9658 43.1406C38.8381 43.5761 38.6684 43.9884 38.4613 44.3671L38.2297 44.791L39.3871 45.949L37.5626 47.7735L36.4045 46.6161L35.9806 46.8477C35.6019 47.0548 35.1897 47.2245 34.7542 47.3523L34.2903 47.489ZM36.131 48.2129C35.9439 48.4419 35.7613 48.6574 35.5806 48.8665V48.4387C35.7684 48.371 35.9516 48.2942 36.131 48.2129ZM34.7652 51.6239C35.3994 51.0032 36.2032 50.1581 37.0677 49.1045L37.5619 49.5981L41.211 45.949L40.0387 44.7761C40.1903 44.5084 40.3394 44.2394 40.4819 43.9671H42.0323V41.8768C45.211 42.7987 46.9239 44.0516 47.6148 44.6613C44.5297 48.5206 39.9535 51.1361 34.7652 51.6239ZM48.389 43.6232C47.5026 42.8568 45.5426 41.5 42.0323 40.54V40.4271C42.8129 38.1871 43.24 35.9097 43.3084 33.6452H46.5484V31.6645C46.7471 31.5923 46.9413 31.5123 47.131 31.4252L48.5297 32.8239L51.4503 29.9032C51.6206 30.9232 51.7097 31.9574 51.7097 33C51.7097 36.9432 50.4806 40.6032 48.389 43.6232ZM50.7806 27.7761C50.8161 27.6987 50.8452 27.6168 50.8781 27.5374C50.9277 27.6994 50.9819 27.86 51.0271 28.0226L50.7806 27.7761ZM51.7097 25.9032H50.0697L49.9335 26.3665C49.8058 26.8019 49.6361 27.2142 49.429 27.5929L49.1974 28.0168L50.3548 29.1748L48.5303 30.9994L47.3723 29.8419L46.9484 30.0735C46.5697 30.2806 46.1574 30.4503 45.7219 30.5781L45.2581 30.7148V32.3548H42.6774V30.7148L42.2142 30.5787C41.7787 30.451 41.3665 30.2813 40.9877 30.0742L40.5639 29.8426L39.4058 31L37.5813 29.1755L38.7387 28.0174L38.5071 27.5935C38.3 27.2148 38.1303 26.8026 38.0026 26.3671L37.8658 25.9032H36.2258V23.3226H37.8658L38.0019 22.8594C38.1297 22.4239 38.2994 22.0116 38.5065 21.6329L38.7381 21.209L37.5806 20.051L39.4052 18.2265L40.5632 19.3839L40.9871 19.1523C41.3658 18.9452 41.7781 18.7755 42.2135 18.6477L42.6774 18.511V16.871H45.2581V18.511L45.7213 18.6471C46.1568 18.7748 46.569 18.9445 46.9477 19.1516L47.3716 19.3832L48.5297 18.2258L50.3542 20.0503L49.1968 21.2084L49.4284 21.6323C49.6355 22.011 49.8052 22.4232 49.9329 22.8587L50.0697 23.3226H51.7097V25.9032Z" fill="#2D7EFF"/>
<path d="M43.9677 20.0968C42.189 20.0968 40.7419 21.5439 40.7419 23.3226V25.9033C40.7419 27.682 42.189 29.1291 43.9677 29.1291C45.7465 29.1291 47.1936 27.682 47.1936 25.9033V23.3226C47.1936 21.5439 45.7465 20.0968 43.9677 20.0968ZM45.9032 25.9033C45.9032 26.9703 45.0348 27.8387 43.9677 27.8387C42.9007 27.8387 42.0323 26.9703 42.0323 25.9033V23.3226C42.0323 22.2555 42.9007 21.3871 43.9677 21.3871C45.0348 21.3871 45.9032 22.2555 45.9032 23.3226V25.9033Z" fill="#2D7EFF"/>
</g>
<circle cx="33" cy="33" r="32.5" stroke="#2D7EFF"/>
<defs>
<clipPath id="clip0_106_96">
<rect width="40" height="40" fill="white" transform="translate(13 13)"/>
</clipPath>
</defs>
</svg>
