<svg width="66" height="66" viewBox="0 0 66 66" fill="none" xmlns="http://www.w3.org/2000/svg">
<path d="M34.4375 38.4375C34.8906 37.9844 35.6094 37.9844 36.0625 38.4375L39.5781 41.9531L44.5469 36.9844V15.9688C44.5469 15.3281 44.0312 14.8125 43.3906 14.8125H15.7188C15.0937 14.8125 14.5625 15.3281 14.5625 15.9688V43.6562C14.5625 44.2969 15.0781 44.8125 15.7188 44.8125H29.4375C29.125 44.3594 29.1406 43.75 29.5469 43.3594L34.4375 38.4375ZM25.0625 23.8594L20.1719 28.7656C19.9531 28.9844 19.5781 28.9844 19.3594 28.7656L18.5469 27.9531C18.3281 27.7344 18.3281 27.3594 18.5469 27.1406L22.2188 23.4688L18.5313 19.7812C18.3125 19.5625 18.3125 19.1875 18.5313 18.9688L19.3438 18.1562C19.5625 17.9375 19.9375 17.9375 20.1562 18.1562L25.0625 23.0625C25.2969 23.2656 25.2969 23.6406 25.0625 23.8594ZM26.6719 28.6406C26.3438 28.6406 26.0938 28.3906 26.0938 28.0625V26.9062C26.0938 26.5781 26.3438 26.3281 26.6719 26.3281H33.5938C33.9219 26.3281 34.1719 26.5781 34.1719 26.9062V28.0625C34.1719 28.3906 33.9219 28.6406 33.5938 28.6406H26.6719Z" fill="#2D7EFF"/>
<path d="M51.0938 38.75L49.4688 37.125C49.0156 36.6719 48.2969 36.6719 47.8438 37.125L39.9688 45L36.0312 41.0625C35.5781 40.6094 34.8594 40.6094 34.4063 41.0625L32.7813 42.6875C32.3281 43.1406 32.3281 43.8594 32.7813 44.3125L39.3125 50.8438C39.7656 51.2969 40.4844 51.2969 40.9375 50.8438L42.5625 49.2188C42.7188 49.0625 42.8125 48.8594 42.8594 48.6563L51.125 40.3906C51.5469 39.9375 51.5469 39.2188 51.0938 38.75Z" fill="#2D7EFF"/>
<circle cx="33" cy="33" r="32.5" stroke="#2D7EFF"/>
</svg>
