<svg width="66" height="66" viewBox="0 0 66 66" fill="none" xmlns="http://www.w3.org/2000/svg">
<g clip-path="url(#clip0_106_82)">
<path d="M33.6977 33.6587H30.0417V34.6437H33.6977V36.0985L36.0707 34.0549L33.6977 32.2055V33.6587Z" fill="#2D7EFF"/>
<path d="M44.961 24.1242C46.5539 24.1471 52.9992 24.0591 52.9992 21.7207C52.9992 19.354 46.5572 19.3392 44.961 19.3172C43.3663 19.3393 36.9236 19.354 36.9236 21.7207C36.9236 24.0873 43.3663 24.102 44.961 24.1242Z" fill="#2D7EFF"/>
<path d="M44.9498 25.033C43.5601 25.0118 38.8069 24.9928 36.9238 23.4819V27.1405V30.1036L36.9328 23.804L36.9439 30.1521H36.985C38.9081 31.6161 43.5746 31.6335 44.9508 31.656C46.323 31.6781 50.9783 31.6137 52.9094 30.1521C52.9094 30.1521 52.9929 30.0814 53.0002 30.0746L52.9784 23.474C51.0953 24.9886 46.3396 25.0559 44.9498 25.033Z" fill="#2D7EFF"/>
<path d="M44.9498 32.6362C43.5601 32.6145 38.8069 32.596 36.9238 31.0842V34.7434V37.7067L36.9328 31.4066L36.9439 37.755H36.985C38.9081 39.2186 43.5746 39.2362 44.9508 39.2572C46.323 39.2797 50.9783 39.2153 52.9094 37.755C52.9094 37.755 52.9929 37.6843 53.0002 37.6762L52.9784 31.0762C51.0953 32.5919 46.3396 32.6594 44.9498 32.6362Z" fill="#2D7EFF"/>
<path d="M44.9498 40.0582C43.5601 40.0356 38.8069 40.018 36.9238 38.5069V42.1652V45.1279L36.9328 38.8284L36.9439 45.1762H36.985C38.9081 46.6408 43.5746 46.6576 44.9508 46.6792C46.323 46.7025 50.9783 46.6375 52.9094 45.1762C52.9094 45.1762 52.9929 45.1055 53.0002 45.0992L52.9784 38.4976C51.0953 40.0139 46.3396 40.0814 44.9498 40.0582Z" fill="#2D7EFF"/>
<path d="M21.0368 26.7386C19.4426 26.7607 13 26.7756 13 29.1422C13 31.5087 19.4418 31.5237 21.0368 31.5457C22.6301 31.5687 29.0753 31.4805 29.0753 29.1422C29.0753 26.7756 22.6335 26.7615 21.0368 26.7386Z" fill="#2D7EFF"/>
<path d="M21.026 32.4545C19.6358 32.4333 14.8829 32.4144 13 30.9034V34.5625V37.5245L13.0092 31.2247L13.0196 37.5733H13.0611C14.9843 39.037 19.6506 39.0546 21.0268 39.0772C22.3988 39.0988 27.0541 39.0345 28.9849 37.5733C28.9849 37.5733 29.0688 37.5026 29.0761 37.4954L29.0547 30.8949C27.171 32.4112 22.4153 32.4786 21.026 32.4545Z" fill="#2D7EFF"/>
<path d="M21.026 40.0588C19.6358 40.0363 14.8829 40.0186 13 38.5067V42.165V45.1284L13.0092 38.8288L13.0196 45.1767H13.0611C14.9843 46.6413 19.6506 46.6588 21.0268 46.6797C22.3988 46.7023 27.0541 46.6379 28.9849 45.1767C28.9849 45.1767 29.0688 45.1061 29.0761 45.0988L29.0547 38.4987C27.171 40.0139 22.4153 40.0814 21.026 40.0588Z" fill="#2D7EFF"/>
</g>
<circle cx="33" cy="33" r="32.5" stroke="#2D7EFF"/>
<defs>
<clipPath id="clip0_106_82">
<rect width="40" height="40" fill="white" transform="translate(13 13)"/>
</clipPath>
</defs>
</svg>
