<svg width="41" height="41" viewBox="0 0 41 41" fill="none" xmlns="http://www.w3.org/2000/svg">
<circle cx="20.3873" cy="20.3873" r="20.3873" fill="#2D7EFF"/>
<path d="M13.9356 14.1309C13.9356 14.5716 13.7973 14.9252 13.5205 15.1917C13.2541 15.4479 12.8953 15.5761 12.4444 15.5761C12.0037 15.5761 11.6501 15.4479 11.3836 15.1917C11.1274 14.9252 10.9993 14.5716 10.9993 14.1309C10.9993 13.7005 11.1325 13.352 11.399 13.0855C11.6757 12.8191 12.0344 12.6858 12.4751 12.6858C12.9158 12.6858 13.2694 12.8191 13.5359 13.0855C13.8024 13.352 13.9356 13.7005 13.9356 14.1309ZM13.6435 23.3397C13.6435 23.6369 13.7153 23.8521 13.8587 23.9853C14.0125 24.1083 14.2431 24.1698 14.5506 24.1698C14.5506 24.4876 14.4327 24.7643 14.197 25H10.7226C10.4868 24.7643 10.369 24.4876 10.369 24.1698C10.6764 24.1698 10.8968 24.1083 11.03 23.9853C11.1735 23.8521 11.2453 23.6318 11.2453 23.3243V18.866C11.2453 18.579 11.1735 18.374 11.03 18.251C10.8968 18.128 10.6303 18.0666 10.2306 18.0666V17.3901C10.4766 17.2364 10.8917 17.0775 11.4759 16.9135C12.0703 16.7393 12.5725 16.6522 12.9825 16.6522C13.2182 16.6522 13.3873 16.7086 13.4898 16.8213C13.5923 16.9238 13.6435 17.1032 13.6435 17.3594V23.3397ZM23.8903 24.5849C23.7366 24.7387 23.4599 24.8616 23.0601 24.9539C22.6707 25.0461 22.2966 25.0922 21.9379 25.0922C21.4972 25.0922 21.1692 25.0102 20.954 24.8463C20.749 24.6823 20.6465 24.4209 20.6465 24.0622V19.2657C20.6465 18.866 20.5594 18.579 20.3852 18.4048C20.2109 18.2305 19.9803 18.1434 19.6933 18.1434C19.2731 18.1434 18.9195 18.3125 18.6326 18.6507V23.3397C18.6326 23.6369 18.6941 23.8521 18.8171 23.9853C18.9503 24.1186 19.1706 24.1852 19.4781 24.1852C19.4781 24.4927 19.3603 24.7643 19.1245 25H15.6347C15.3888 24.754 15.2658 24.4824 15.2658 24.1852C15.5733 24.1852 15.7936 24.1186 15.9268 23.9853C16.0601 23.8521 16.1267 23.6369 16.1267 23.3397V18.8506C16.1267 18.5739 16.0498 18.3792 15.8961 18.2664C15.7424 18.1434 15.4759 18.0819 15.0967 18.0819V17.3901C15.4246 17.2056 15.8858 17.0365 16.4803 16.8828C17.085 16.7291 17.5411 16.6522 17.8485 16.6522C18.0843 16.6522 18.2636 16.7291 18.3866 16.8828C18.5198 17.0263 18.5967 17.303 18.6172 17.713C18.8837 17.385 19.2168 17.1288 19.6165 16.9443C20.0162 16.7496 20.4671 16.6522 20.9693 16.6522C21.7073 16.6522 22.2505 16.8418 22.5989 17.221C22.9577 17.59 23.137 18.1998 23.137 19.0505V23.2474C23.137 23.7496 23.383 24.0468 23.8749 24.1391L23.8903 24.5849ZM27.7387 18.2203V22.5556C27.7387 22.8631 27.8002 23.0783 27.9232 23.2013C28.0462 23.314 28.2204 23.3704 28.4459 23.3704C28.6406 23.3704 28.8456 23.3192 29.0608 23.2167C29.2761 23.1142 29.4452 22.9861 29.5682 22.8323C29.6707 22.9143 29.7424 23.0373 29.7834 23.2013C29.8346 23.3653 29.8603 23.5139 29.8603 23.6471C29.8603 23.8829 29.7783 24.1135 29.6143 24.3389C29.4503 24.5644 29.2043 24.7489 28.8764 24.8924C28.5484 25.0359 28.1538 25.1076 27.6926 25.1076C26.9752 25.1076 26.3961 24.9026 25.9554 24.4927C25.5249 24.0827 25.3097 23.4012 25.3097 22.448V18.2203H24.3412V17.2825C24.6077 17.2415 24.8639 17.0724 25.1099 16.7752C25.3661 16.4677 25.5813 16.0885 25.7555 15.6375C25.94 15.1763 26.0579 14.7203 26.1091 14.2693C26.2936 14.2386 26.4627 14.2232 26.6165 14.2232C26.9854 14.2232 27.257 14.3308 27.4313 14.546C27.6157 14.751 27.708 14.9816 27.708 15.2378V16.8521H29.4913C29.4913 17.1595 29.4759 17.426 29.4452 17.6515C29.4144 17.8667 29.3478 18.0563 29.2453 18.2203H27.7387Z" fill="white"/>
</svg>
