<svg width="66" height="66" viewBox="0 0 66 66" fill="none" xmlns="http://www.w3.org/2000/svg">
<path d="M46.1594 30.7539C45.9252 30.7006 45.7114 30.5809 45.5435 30.4092C45.3756 30.2376 45.2607 30.0212 45.2125 29.7859C44.6125 26.9203 43.3023 24.4617 41.3703 22.5984C39.1216 20.4366 36.1193 19.2356 33 19.25C30.2266 19.25 27.6688 20.1633 25.6031 21.8906C24.1926 23.082 23.0707 24.5779 22.3219 26.2656C22.2411 26.4467 22.1184 26.6059 21.964 26.7302C21.8095 26.8545 21.6277 26.9403 21.4336 26.9805C19.3242 27.4195 17.4437 28.3352 16.0289 29.6266C14.0461 31.4281 13 33.8922 13 36.75C13 39.5625 14.1234 42.1313 16.1633 43.9836C18.1281 45.768 20.7781 46.75 23.625 46.75H43.9375C46.4664 46.75 48.643 46.0805 50.2336 44.8149C52.0438 43.3734 53 41.2336 53 38.625C53 34.1274 49.7188 31.5484 46.1594 30.7539ZM38.7219 30.0555L30.3 40.0555C30.1847 40.1924 30.0413 40.3029 29.8796 40.3796C29.7178 40.4563 29.5415 40.4974 29.3625 40.5H29.3414C29.1665 40.5 28.9934 40.4633 28.8336 40.3923C28.6737 40.3212 28.5305 40.2174 28.4133 40.0875L24.8273 36.1133C24.3766 35.6141 24.3727 34.8375 24.8508 34.3633C24.9708 34.244 25.1138 34.1503 25.2711 34.0879C25.4285 34.0255 25.5968 33.9957 25.766 34.0003C25.9352 34.0049 26.1017 34.0438 26.2554 34.1146C26.4091 34.1855 26.5468 34.2868 26.6602 34.4125L29.3086 37.3484L36.8086 28.4422C36.9144 28.3166 37.0438 28.2131 37.1896 28.1376C37.3354 28.062 37.4946 28.0159 37.6582 28.0019C37.8218 27.9879 37.9866 28.0063 38.1431 28.056C38.2996 28.1056 38.4447 28.1856 38.5703 28.2914C38.6959 28.3972 38.7994 28.5267 38.8749 28.6724C38.9505 28.8182 38.9966 28.9775 39.0106 29.141C39.0246 29.3046 39.0062 29.4694 38.9565 29.6259C38.9069 29.7824 38.8269 29.9276 38.7211 30.0531L38.7219 30.0555Z" fill="#2D7EFF"/>
<circle cx="33" cy="33" r="32.5" stroke="#2D7EFF"/>
</svg>
