<svg width="66" height="66" viewBox="0 0 66 66" fill="none" xmlns="http://www.w3.org/2000/svg">
<path d="M33 38C35.7614 38 38 35.7614 38 33C38 30.2386 35.7614 28 33 28C30.2386 28 28 30.2386 28 33C28 35.7614 30.2386 38 33 38Z" stroke="#2D7EFF" stroke-width="3" stroke-linecap="round" stroke-linejoin="round"/>
<path d="M33 23C34.8409 23 36.3333 21.5076 36.3333 19.6666C36.3333 17.8257 34.8409 16.3333 33 16.3333C31.159 16.3333 29.6666 17.8257 29.6666 19.6666C29.6666 21.5076 31.159 23 33 23Z" stroke="#2D7EFF" stroke-width="3" stroke-linecap="round" stroke-linejoin="round"/>
<path d="M46.3333 36.3334C48.1743 36.3334 49.6667 34.841 49.6667 33C49.6667 31.1591 48.1743 29.6667 46.3333 29.6667C44.4924 29.6667 43 31.1591 43 33C43 34.841 44.4924 36.3334 46.3333 36.3334Z" stroke="#2D7EFF" stroke-width="3" stroke-linecap="round" stroke-linejoin="round"/>
<path d="M19.6667 36.3334C21.5077 36.3334 23 34.841 23 33C23 31.1591 21.5077 29.6667 19.6667 29.6667C17.8258 29.6667 16.3334 31.1591 16.3334 33C16.3334 34.841 17.8258 36.3334 19.6667 36.3334Z" stroke="#2D7EFF" stroke-width="3" stroke-linecap="round" stroke-linejoin="round"/>
<path d="M33 49.6667C34.8409 49.6667 36.3333 48.1743 36.3333 46.3333C36.3333 44.4924 34.8409 43 33 43C31.159 43 29.6666 44.4924 29.6666 46.3333C29.6666 48.1743 31.159 49.6667 33 49.6667Z" stroke="#2D7EFF" stroke-width="3" stroke-linecap="round" stroke-linejoin="round"/>
<path d="M33 23V28" stroke="#2D7EFF" stroke-width="2" stroke-linecap="round" stroke-linejoin="round"/>
<path d="M38 33H43" stroke="#2D7EFF" stroke-width="3" stroke-linecap="round" stroke-linejoin="round"/>
<path d="M33 38V43" stroke="#2D7EFF" stroke-width="2" stroke-linecap="round" stroke-linejoin="round"/>
<path d="M28 33H23" stroke="#2D7EFF" stroke-width="3" stroke-linecap="round" stroke-linejoin="round"/>
<circle cx="33" cy="33" r="32.5" stroke="#2D7EFF"/>
</svg>
