<svg width="66" height="66" viewBox="0 0 66 66" fill="none" xmlns="http://www.w3.org/2000/svg">
<path d="M37.6818 44.6389H19.0439V17.9075H37.6767V19.9073H40.1811V17.3616C40.1828 14.9637 38.2139 13 35.8177 13H20.9063C18.5066 13 16.5429 14.9637 16.5429 17.3616V48.6366C16.5429 51.0381 18.5066 53 20.9063 53H35.8177C38.2139 53 40.1828 51.0381 40.1828 48.6366V44.5925H37.6818V44.6389ZM28.3594 50.8166C27.2539 50.8166 26.3614 49.9223 26.3614 48.8186C26.3614 47.7115 27.254 46.8189 28.3594 46.8189C29.4665 46.8189 30.3609 47.7131 30.3609 48.8186C30.3609 49.9223 29.4666 50.8166 28.3594 50.8166Z" fill="#2D7EFF"/>
<path d="M26.77 20.5903H21.1793V23.9994H26.77V20.5903Z" fill="#2D7EFF"/>
<path d="M26.77 29.3188H21.1793V32.7279H26.77V29.3188Z" fill="#2D7EFF"/>
<path d="M26.77 38.4541H21.1793V41.8614H26.77V38.4541Z" fill="#2D7EFF"/>
<path d="M46.6129 30.8173C46.4154 29.784 46.0155 28.8279 45.4491 27.9919L47.454 25.9853L45.4062 23.9444L43.4047 25.9475C42.5722 25.3777 41.611 24.9828 40.581 24.7837V21.9429H37.6836V24.7837C36.652 24.9828 35.6993 25.3794 34.8582 25.9475L32.8602 23.9444L30.8124 25.987L32.8139 27.9936C32.2492 28.8295 31.851 29.7856 31.6535 30.8173H28.8161V33.713H31.6535C31.8509 34.7412 32.2508 35.6973 32.8155 36.5367L30.8123 38.5399L32.8602 40.5791L34.8633 38.5776C35.701 39.1474 36.657 39.544 37.6887 39.7448V42.5805H40.5861V39.7432C41.616 39.5457 42.5704 39.1458 43.4098 38.5794L45.4113 40.5808L47.4591 38.5399L45.4542 36.5367C46.0206 35.7008 46.4189 34.743 46.618 33.7114H49.4571V30.8173H46.6129ZM39.1358 35.4159C37.3935 35.4159 35.9791 34.0083 35.9791 32.2644C35.9791 30.5221 37.3934 29.106 39.1358 29.106C40.8797 29.106 42.2873 30.5204 42.2873 32.2644C42.2873 34.01 40.8762 35.4159 39.1358 35.4159Z" fill="#2D7EFF"/>
<circle cx="33" cy="33" r="32" stroke="#2D7EFF" stroke-width="2"/>
</svg>
