<svg width="57" height="26" viewBox="0 0 57 26" fill="none" xmlns="http://www.w3.org/2000/svg">
<path d="M7.72171 3.67481C7.72171 4.53948 7.45024 5.23323 6.90731 5.75606C6.38449 6.25877 5.68068 6.51013 4.7959 6.51013C3.93123 6.51013 3.23749 6.25877 2.71466 5.75606C2.21195 5.23323 1.96059 4.53948 1.96059 3.67481C1.96059 2.83025 2.222 2.14656 2.74483 1.62373C3.28776 1.10091 3.99156 0.839498 4.85623 0.839498C5.7209 0.839498 6.41465 1.10091 6.93747 1.62373C7.4603 2.14656 7.72171 2.83025 7.72171 3.67481ZM7.14861 21.7424C7.14861 22.3256 7.28937 22.7478 7.57089 23.0092C7.87252 23.2506 8.32497 23.3712 8.92822 23.3712C8.92822 23.9946 8.69698 24.5375 8.23448 25H1.41766C0.955159 24.5375 0.72391 23.9946 0.72391 23.3712C1.32717 23.3712 1.7595 23.2506 2.02092 23.0092C2.30244 22.7478 2.4432 22.3155 2.4432 21.7122V12.965C2.4432 12.402 2.30244 11.9998 2.02092 11.7585C1.7595 11.5172 1.23668 11.3965 0.452444 11.3965V10.0694C0.935051 9.76772 1.74945 9.45604 2.89564 9.1343C4.06194 8.79246 5.04726 8.62153 5.85161 8.62153C6.31411 8.62153 6.6459 8.73213 6.84698 8.95333C7.04807 9.15441 7.14861 9.50631 7.14861 10.009V21.7424ZM27.2529 24.1856C26.9513 24.4872 26.4083 24.7285 25.6241 24.9095C24.86 25.0905 24.126 25.181 23.4222 25.181C22.5575 25.181 21.9141 25.0201 21.4918 24.6984C21.0896 24.3766 20.8885 23.8639 20.8885 23.1601V13.7492C20.8885 12.965 20.7176 12.402 20.3758 12.0601C20.0339 11.7183 19.5815 11.5473 19.0184 11.5473C18.194 11.5473 17.5002 11.8791 16.9372 12.5427V21.7424C16.9372 22.3256 17.0578 22.7478 17.2991 23.0092C17.5606 23.2707 17.9929 23.4014 18.5961 23.4014C18.5961 24.0046 18.3649 24.5375 17.9024 25H11.0554C10.5728 24.5174 10.3315 23.9845 10.3315 23.4014C10.9348 23.4014 11.3671 23.2707 11.6285 23.0092C11.8899 22.7478 12.0206 22.3256 12.0206 21.7424V12.9348C12.0206 12.3919 11.8698 12.0098 11.5682 11.7886C11.2666 11.5473 10.7437 11.4267 9.99972 11.4267V10.0694C10.6432 9.7074 11.5481 9.37561 12.7144 9.07398C13.9008 8.77235 14.7956 8.62153 15.3989 8.62153C15.8614 8.62153 16.2133 8.77235 16.4546 9.07398C16.716 9.3555 16.8668 9.89843 16.907 10.7028C17.4298 10.0593 18.0834 9.55658 18.8676 9.19463C19.6519 8.81256 20.5366 8.62153 21.522 8.62153C22.9698 8.62153 24.0355 8.99354 24.7192 9.73756C25.423 10.4615 25.7749 11.6579 25.7749 13.3269V21.5614C25.7749 22.5467 26.2575 23.1299 27.2227 23.3109L27.2529 24.1856ZM34.8035 11.6982V20.2041C34.8035 20.8074 34.9242 21.2296 35.1655 21.4709C35.4068 21.6921 35.7486 21.8027 36.191 21.8027C36.5731 21.8027 36.9753 21.7022 37.3975 21.5011C37.8198 21.3 38.1516 21.0487 38.3929 20.747C38.594 20.9079 38.7348 21.1492 38.8152 21.4709C38.9157 21.7927 38.966 22.0843 38.966 22.3457C38.966 22.8082 38.8051 23.2606 38.4834 23.703C38.1617 24.1454 37.6791 24.5073 37.0356 24.7889C36.3921 25.0704 35.6179 25.2111 34.713 25.2111C33.3054 25.2111 32.1693 24.809 31.3046 24.0046C30.4601 23.2003 30.0378 21.8631 30.0378 19.993V11.6982H28.1375V9.85821C28.6604 9.77778 29.1631 9.44599 29.6457 8.86284C30.1484 8.25958 30.5707 7.51556 30.9125 6.63078C31.2745 5.72589 31.5057 4.83106 31.6063 3.94628C31.9682 3.88595 32.3 3.85579 32.6016 3.85579C33.3256 3.85579 33.8584 4.06693 34.2003 4.48921C34.5622 4.89138 34.7432 5.34383 34.7432 5.84654V9.01365H38.2421C38.2421 9.61691 38.2119 10.1397 38.1516 10.5821C38.0913 11.0044 37.9606 11.3764 37.7595 11.6982H34.8035ZM56.6702 15.2875C56.6702 16.0718 56.5898 16.6248 56.4289 16.9465H50.3964V22.9489C50.0545 23.1098 49.5015 23.1902 48.7374 23.1902C47.8928 23.1902 47.2996 23.0997 46.9578 22.9188V16.9465H40.9554C40.7945 16.5644 40.7141 16.0114 40.7141 15.2875C40.7141 14.443 40.8146 13.8498 41.0157 13.5079H46.9578V7.5055C47.3801 7.32453 47.9632 7.23404 48.7072 7.23404C49.4714 7.23404 50.0344 7.32453 50.3964 7.5055V13.5079H56.4289C56.5898 13.89 56.6702 14.4832 56.6702 15.2875Z" fill="#1476F2"/>
</svg>
