<svg width="49" height="49" viewBox="0 0 49 49" fill="none" xmlns="http://www.w3.org/2000/svg">
<path d="M24.4997 44.9166C13.2235 44.9166 4.08301 35.776 4.08301 24.4999C4.08301 13.2238 13.2235 4.08325 24.4997 4.08325C35.7758 4.08325 44.9163 13.2238 44.9163 24.4999C44.9163 35.776 35.7758 44.9166 24.4997 44.9166ZM24.4997 40.8333C28.8315 40.8333 32.986 39.1124 36.0491 36.0493C39.1122 32.9862 40.833 28.8318 40.833 24.4999C40.833 20.168 39.1122 16.0136 36.0491 12.9505C32.986 9.88741 28.8315 8.16659 24.4997 8.16659C20.1678 8.16659 16.0134 9.88741 12.9503 12.9505C9.88717 16.0136 8.16634 20.168 8.16634 24.4999C8.16634 28.8318 9.88717 32.9862 12.9503 36.0493C16.0134 39.1124 20.1678 40.8333 24.4997 40.8333ZM22.4641 32.6666L13.8013 24.0038L16.6883 21.1169L22.4641 26.8928L34.0138 15.343L36.9008 18.23L22.4641 32.6666Z" fill="#2D7EFF"/>
</svg>
