<svg width="17" height="21" viewBox="0 0 17 21" fill="none" xmlns="http://www.w3.org/2000/svg">
<path d="M1.52677 13.2842L7.51649 3.46721C8.66755 1.58065 11.1279 0.984923 13.0145 2.13599C14.901 3.28706 15.4968 5.74741 14.3457 7.63398L7.83513 18.3046C7.48979 18.8706 6.93375 19.2763 6.28933 19.4323C5.64491 19.5883 4.9649 19.482 4.39889 19.1366C3.83288 18.7913 3.42725 18.2352 3.27121 17.5908C3.11518 16.9464 3.22153 16.2664 3.56687 15.7004L9.03575 6.73705C9.32221 6.26754 9.94074 6.11778 10.4102 6.40425C10.8798 6.69071 11.0295 7.30923 10.7431 7.77874L5.79502 15.8884L7.0755 16.6697L12.0235 8.56001C12.3689 7.994 12.4752 7.31399 12.3192 6.66957C12.1632 6.02515 11.7575 5.46911 11.1915 5.12377C10.6255 4.77843 9.9455 4.67207 9.30108 4.82811C8.65666 4.98414 8.10061 5.38978 7.75527 5.95578L2.2864 14.9191C1.13533 16.8057 1.73105 19.266 3.61762 20.4171C5.50419 21.5682 7.96454 20.9725 9.11561 19.0859L15.6262 8.41524C17.2095 5.82014 16.3908 2.43888 13.7957 0.855514C11.2006 -0.727856 7.81938 0.0908461 6.23601 2.68595L0.24629 12.5029L1.52677 13.2842Z" fill="#333333" fill-opacity="0.56"/>
</svg>
