<svg width="12" height="12" viewBox="0 0 12 12" fill="none" xmlns="http://www.w3.org/2000/svg">
<path d="M5.75 0.265625C4.6653 0.265625 3.60495 0.587278 2.70305 1.18991C1.80115 1.79254 1.0982 2.64908 0.683101 3.65122C0.268001 4.65336 0.159392 5.75608 0.371008 6.81995C0.582624 7.88381 1.10496 8.86103 1.87196 9.62804C2.63897 10.395 3.61619 10.9174 4.68005 11.129C5.74392 11.3406 6.84664 11.232 7.84878 10.8169C8.85092 10.4018 9.70746 9.69886 10.3101 8.79695C10.9127 7.89505 11.2344 6.83471 11.2344 5.75C11.2328 4.29592 10.6545 2.90184 9.62634 1.87366C8.59816 0.84547 7.20408 0.267161 5.75 0.265625ZM5.75 10.3906C4.83217 10.3906 3.93496 10.1185 3.17181 9.60854C2.40866 9.09862 1.81386 8.37385 1.46262 7.52589C1.11139 6.67793 1.01949 5.74485 1.19855 4.84466C1.37761 3.94447 1.81958 3.11759 2.46859 2.46858C3.11759 1.81958 3.94447 1.3776 4.84466 1.19854C5.74485 1.01948 6.67793 1.11138 7.52589 1.46262C8.37386 1.81386 9.09862 2.40866 9.60854 3.17181C10.1185 3.93495 10.3906 4.83217 10.3906 5.75C10.3892 6.98034 9.89986 8.15989 9.02988 9.02988C8.15989 9.89986 6.98034 10.3892 5.75 10.3906ZM4.0625 5.75C4.0625 6.10418 4.17394 6.44937 4.38103 6.7367C4.58812 7.02402 4.88037 7.2389 5.21637 7.3509C5.55237 7.4629 5.91509 7.46635 6.25316 7.36074C6.59123 7.25514 6.8875 7.04584 7.1 6.7625C7.16721 6.67299 7.26721 6.61384 7.37803 6.59807C7.48884 6.58229 7.60138 6.61119 7.69089 6.67839C7.7804 6.74559 7.83955 6.8456 7.85532 6.95641C7.8711 7.06723 7.8422 7.17977 7.775 7.26928C7.45617 7.69416 7.01174 8.00797 6.50466 8.16626C5.99759 8.32455 5.45356 8.3193 4.94963 8.15125C4.44571 7.9832 4.00742 7.66087 3.69684 7.22991C3.38627 6.79895 3.21915 6.28121 3.21915 5.75C3.21915 5.21879 3.38627 4.70104 3.69684 4.27009C4.00742 3.83913 4.44571 3.5168 4.94963 3.34875C5.45356 3.1807 5.99759 3.17545 6.50466 3.33374C7.01174 3.49203 7.45617 3.80584 7.775 4.23072C7.80828 4.27504 7.8325 4.32548 7.84628 4.37917C7.86006 4.43285 7.86313 4.48872 7.85532 4.54359C7.84751 4.59846 7.82897 4.65125 7.80076 4.69895C7.77254 4.74666 7.73521 4.78834 7.69089 4.82161C7.64657 4.85489 7.59613 4.87911 7.54245 4.89289C7.48877 4.90667 7.4329 4.90974 7.37803 4.90193C7.32316 4.89412 7.27036 4.87558 7.22266 4.84737C7.17496 4.81915 7.13328 4.78182 7.1 4.7375C6.8875 4.45416 6.59123 4.24486 6.25316 4.13926C5.91509 4.03365 5.55237 4.0371 5.21637 4.1491C4.88037 4.2611 4.58812 4.47598 4.38103 4.7633C4.17394 5.05062 4.0625 5.39582 4.0625 5.75Z" fill="#998E8E"/>
</svg>
